<svg width="393" height="852" viewBox="0 0 393 852" fill="none" xmlns="http://www.w3.org/2000/svg">
<g clip-path="url(#clip0_33_2540)">
<rect width="393" height="852" fill="white"/>
<path opacity="0.35" d="M357.001 20.5029H373.667C374.864 20.5029 375.834 21.4733 375.834 22.6699V28.6699C375.834 29.8664 374.864 30.8359 373.667 30.8359H357.001C355.804 30.8359 354.834 29.8664 354.834 28.6699V22.6699L354.845 22.4482C354.956 21.3556 355.879 20.5029 357.001 20.5029Z" stroke="#141414"/>
<path opacity="0.4" d="M377.334 23.6699V27.6699C378.139 27.3311 378.662 26.5431 378.662 25.6699C378.662 24.7968 378.139 24.0087 377.334 23.6699Z" fill="#141414"/>
<path d="M356.334 23.3363C356.334 22.5999 356.931 22.0029 357.667 22.0029H373.001C373.737 22.0029 374.334 22.5999 374.334 23.3363V28.0029C374.334 28.7393 373.737 29.3363 373.001 29.3363H357.667C356.931 29.3363 356.334 28.7393 356.334 28.0029V23.3363Z" fill="#141414"/>
<path fill-rule="evenodd" clip-rule="evenodd" d="M341.664 22.2773C343.88 22.2774 346.011 23.1289 347.617 24.6557C347.738 24.7735 347.931 24.772 348.05 24.6523L349.206 23.4857C349.267 23.4249 349.3 23.3427 349.3 23.2571C349.299 23.1715 349.265 23.0897 349.204 23.0297C344.989 18.9901 338.339 18.9901 334.124 23.0297C334.063 23.0896 334.028 23.1715 334.027 23.257C334.027 23.3426 334.06 23.4249 334.121 23.4857L335.277 24.6523C335.396 24.7722 335.589 24.7737 335.71 24.6557C337.316 23.1288 339.448 22.2773 341.664 22.2773ZM341.665 26.073C342.882 26.0729 344.056 26.5255 344.959 27.3427C345.081 27.4587 345.273 27.4562 345.392 27.337L346.547 26.1704C346.608 26.1092 346.641 26.0261 346.64 25.9399C346.64 25.8536 346.604 25.7713 346.542 25.7114C343.794 23.155 339.538 23.155 336.79 25.7114C336.728 25.7713 336.692 25.8537 336.691 25.9399C336.691 26.0262 336.724 26.1092 336.785 26.1704L337.94 27.337C338.059 27.4562 338.251 27.4587 338.373 27.3427C339.275 26.526 340.448 26.0735 341.665 26.073ZM343.978 28.6268C343.98 28.7133 343.946 28.7967 343.884 28.8573L341.886 30.873C341.828 30.9323 341.748 30.9656 341.665 30.9656C341.582 30.9656 341.502 30.9323 341.443 30.873L339.445 28.8573C339.384 28.7967 339.35 28.7133 339.352 28.6268C339.353 28.5403 339.391 28.4583 339.455 28.4003C340.731 27.3215 342.599 27.3215 343.874 28.4003C343.939 28.4584 343.976 28.5403 343.978 28.6268Z" fill="#141414"/>
<path fill-rule="evenodd" clip-rule="evenodd" d="M328 20.3359H327C326.448 20.3359 326 20.7837 326 21.3359V30.0026C326 30.5549 326.448 31.0026 327 31.0026H328C328.552 31.0026 329 30.5549 329 30.0026V21.3359C329 20.7837 328.552 20.3359 328 20.3359ZM322.334 22.6693H323.334C323.886 22.6693 324.334 23.117 324.334 23.6693V30.0026C324.334 30.5549 323.886 31.0026 323.334 31.0026H322.334C321.782 31.0026 321.334 30.5549 321.334 30.0026V23.6693C321.334 23.117 321.782 22.6693 322.334 22.6693ZM318.666 25.0026H317.666C317.114 25.0026 316.666 25.4503 316.666 26.0026V30.0026C316.666 30.5548 317.114 31.0026 317.666 31.0026H318.666C319.218 31.0026 319.666 30.5548 319.666 30.0026V26.0026C319.666 25.4503 319.218 25.0026 318.666 25.0026ZM314 27.0026H313C312.448 27.0026 312 27.4503 312 28.0026V30.0026C312 30.5549 312.448 31.0026 313 31.0026H314C314.552 31.0026 315 30.5549 315 30.0026V28.0026C315 27.4503 314.552 27.0026 314 27.0026Z" fill="#141414"/>
<path d="M19.3203 32.2568C22.0083 32.2568 23.605 30.1548 23.605 26.5952C23.605 25.2549 23.3486 24.127 22.8579 23.2554C22.1475 21.9004 20.9243 21.168 19.3789 21.168C17.0791 21.168 15.4531 22.7134 15.4531 24.8813C15.4531 26.9175 16.918 28.397 18.9321 28.397C20.1699 28.397 21.1733 27.8184 21.6714 26.8149H21.6934C21.6934 26.8149 21.7227 26.8149 21.73 26.8149C21.7446 26.8149 21.7959 26.8149 21.7959 26.8149C21.7959 29.2319 20.8804 30.6748 19.335 30.6748C18.4268 30.6748 17.7236 30.1768 17.4819 29.3784H15.5996C15.9146 31.1143 17.3867 32.2568 19.3203 32.2568ZM19.3862 26.8955C18.1704 26.8955 17.3062 26.0312 17.3062 24.8228C17.3062 23.6436 18.2144 22.7427 19.3936 22.7427C20.5728 22.7427 21.481 23.6582 21.481 24.8521C21.481 26.0312 20.5947 26.8955 19.3862 26.8955Z" fill="#141414"/>
<path d="M26.6961 32.1543C27.3919 32.1543 27.868 31.6562 27.868 30.9971C27.868 30.3306 27.3919 29.8398 26.6961 29.8398C26.0076 29.8398 25.5242 30.3306 25.5242 30.9971C25.5242 31.6562 26.0076 32.1543 26.6961 32.1543ZM26.6961 26.6611C27.3919 26.6611 27.868 26.1704 27.868 25.5112C27.868 24.8447 27.3919 24.354 26.6961 24.354C26.0076 24.354 25.5242 24.8447 25.5242 25.5112C25.5242 26.1704 26.0076 26.6611 26.6961 26.6611Z" fill="#141414"/>
<path d="M34.7237 32.0005H36.5328V30.0303H37.961V28.4336H36.5328V21.4316H33.8668C31.9991 24.2441 30.5123 26.5952 29.5602 28.3457V30.0303H34.7237V32.0005ZM31.3106 28.3677C32.5411 26.1997 33.6397 24.4639 34.6505 22.9697H34.753V28.4775H31.3106V28.3677Z" fill="#141414"/>
<path d="M41.9896 32.0005H43.8793V21.4316H41.997L39.2357 23.3652V25.1816L41.8651 23.3359H41.9896V32.0005Z" fill="#141414"/>
<path d="M126.217 455L122.857 448.76H122.353V455H117.649V438.08H125.065C126.425 438.08 127.577 438.32 128.521 438.8C129.465 439.264 130.177 439.912 130.657 440.744C131.137 441.56 131.377 442.48 131.377 443.504C131.377 444.656 131.057 445.672 130.417 446.552C129.793 447.416 128.873 448.032 127.657 448.4L131.473 455H126.217ZM122.353 445.544H124.681C125.321 445.544 125.801 445.392 126.121 445.088C126.441 444.784 126.601 444.344 126.601 443.768C126.601 443.224 126.433 442.8 126.097 442.496C125.777 442.176 125.305 442.016 124.681 442.016H122.353V445.544ZM135.892 440.288C135.06 440.288 134.388 440.064 133.876 439.616C133.38 439.152 133.132 438.576 133.132 437.888C133.132 437.184 133.38 436.6 133.876 436.136C134.388 435.672 135.06 435.44 135.892 435.44C136.708 435.44 137.364 435.672 137.86 436.136C138.372 436.6 138.628 437.184 138.628 437.888C138.628 438.576 138.372 439.152 137.86 439.616C137.364 440.064 136.708 440.288 135.892 440.288ZM138.22 441.536V455H133.516V441.536H138.22ZM140.131 448.256C140.131 446.864 140.379 445.648 140.875 444.608C141.387 443.568 142.083 442.768 142.963 442.208C143.843 441.648 144.819 441.368 145.891 441.368C146.755 441.368 147.523 441.552 148.195 441.92C148.883 442.272 149.419 442.76 149.803 443.384V437.24H154.531V455H149.803V453.128C149.435 453.752 148.915 454.248 148.243 454.616C147.571 454.984 146.779 455.168 145.867 455.168C144.795 455.168 143.819 454.888 142.939 454.328C142.075 453.768 141.387 452.968 140.875 451.928C140.379 450.872 140.131 449.648 140.131 448.256ZM149.827 448.256C149.827 447.392 149.587 446.712 149.107 446.216C148.643 445.72 148.067 445.472 147.379 445.472C146.675 445.472 146.091 445.72 145.627 446.216C145.163 446.696 144.931 447.376 144.931 448.256C144.931 449.12 145.163 449.808 145.627 450.32C146.091 450.816 146.675 451.064 147.379 451.064C148.067 451.064 148.643 450.816 149.107 450.32C149.587 449.824 149.827 449.136 149.827 448.256ZM170.075 448.112C170.075 448.48 170.051 448.848 170.003 449.216H161.099C161.147 449.952 161.347 450.504 161.699 450.872C162.067 451.224 162.531 451.4 163.091 451.4C163.875 451.4 164.435 451.048 164.771 450.344H169.787C169.579 451.272 169.171 452.104 168.563 452.84C167.971 453.56 167.219 454.128 166.307 454.544C165.395 454.96 164.387 455.168 163.283 455.168C161.955 455.168 160.771 454.888 159.731 454.328C158.707 453.768 157.899 452.968 157.307 451.928C156.731 450.888 156.443 449.664 156.443 448.256C156.443 446.848 156.731 445.632 157.307 444.608C157.883 443.568 158.683 442.768 159.707 442.208C160.747 441.648 161.939 441.368 163.283 441.368C164.611 441.368 165.787 441.64 166.811 442.184C167.835 442.728 168.635 443.512 169.211 444.536C169.787 445.544 170.075 446.736 170.075 448.112ZM165.275 446.936C165.275 446.36 165.083 445.912 164.699 445.592C164.315 445.256 163.835 445.088 163.259 445.088C162.683 445.088 162.211 445.248 161.843 445.568C161.475 445.872 161.235 446.328 161.123 446.936H165.275ZM183.472 438.08V441.824H176.704V444.8H181.696V448.376H176.704V455H172V438.08H183.472ZM191.717 455.168C190.373 455.168 189.165 454.888 188.093 454.328C187.037 453.768 186.205 452.968 185.597 451.928C184.989 450.888 184.685 449.664 184.685 448.256C184.685 446.864 184.989 445.648 185.597 444.608C186.221 443.568 187.061 442.768 188.117 442.208C189.189 441.648 190.397 441.368 191.741 441.368C193.085 441.368 194.285 441.648 195.341 442.208C196.413 442.768 197.253 443.568 197.861 444.608C198.485 445.648 198.797 446.864 198.797 448.256C198.797 449.648 198.485 450.872 197.861 451.928C197.253 452.968 196.413 453.768 195.341 454.328C194.269 454.888 193.061 455.168 191.717 455.168ZM191.717 451.088C192.373 451.088 192.917 450.848 193.349 450.368C193.797 449.872 194.021 449.168 194.021 448.256C194.021 447.344 193.797 446.648 193.349 446.168C192.917 445.688 192.381 445.448 191.741 445.448C191.101 445.448 190.565 445.688 190.133 446.168C189.701 446.648 189.485 447.344 189.485 448.256C189.485 449.184 189.693 449.888 190.109 450.368C190.525 450.848 191.061 451.088 191.717 451.088ZM205.415 443.912C205.943 443.144 206.583 442.536 207.335 442.088C208.087 441.64 208.895 441.416 209.759 441.416V446.432H208.439C207.415 446.432 206.655 446.632 206.159 447.032C205.663 447.432 205.415 448.128 205.415 449.12V455H200.711V441.536H205.415V443.912ZM231.342 441.536L227.91 455H222.63L220.758 446.84L218.814 455H213.558L210.15 441.536H214.83L216.342 450.464L218.334 441.536H223.374L225.438 450.488L226.926 441.536H231.342ZM231.912 448.256C231.912 446.864 232.16 445.648 232.656 444.608C233.168 443.568 233.856 442.768 234.72 442.208C235.6 441.648 236.576 441.368 237.648 441.368C238.576 441.368 239.376 441.552 240.048 441.92C240.72 442.288 241.24 442.784 241.608 443.408V441.536H246.312V455H241.608V453.128C241.24 453.752 240.712 454.248 240.024 454.616C239.352 454.984 238.56 455.168 237.648 455.168C236.576 455.168 235.6 454.888 234.72 454.328C233.856 453.768 233.168 452.968 232.656 451.928C232.16 450.872 231.912 449.648 231.912 448.256ZM241.608 448.256C241.608 447.392 241.368 446.712 240.888 446.216C240.424 445.72 239.848 445.472 239.16 445.472C238.456 445.472 237.872 445.72 237.408 446.216C236.944 446.696 236.712 447.376 236.712 448.256C236.712 449.12 236.944 449.808 237.408 450.32C237.872 450.816 238.456 451.064 239.16 451.064C239.848 451.064 240.424 450.816 240.888 450.32C241.368 449.824 241.608 449.136 241.608 448.256ZM253.696 443.912C254.224 443.144 254.864 442.536 255.616 442.088C256.368 441.64 257.176 441.416 258.04 441.416V446.432H256.72C255.696 446.432 254.936 446.632 254.44 447.032C253.944 447.432 253.696 448.128 253.696 449.12V455H248.992V441.536H253.696V443.912ZM258.959 448.256C258.959 446.864 259.207 445.648 259.703 444.608C260.215 443.568 260.911 442.768 261.791 442.208C262.671 441.648 263.647 441.368 264.719 441.368C265.583 441.368 266.351 441.552 267.023 441.92C267.711 442.272 268.247 442.76 268.631 443.384V437.24H273.359V455H268.631V453.128C268.263 453.752 267.743 454.248 267.071 454.616C266.399 454.984 265.607 455.168 264.695 455.168C263.623 455.168 262.647 454.888 261.767 454.328C260.903 453.768 260.215 452.968 259.703 451.928C259.207 450.872 258.959 449.648 258.959 448.256ZM268.655 448.256C268.655 447.392 268.415 446.712 267.935 446.216C267.471 445.72 266.895 445.472 266.207 445.472C265.503 445.472 264.919 445.72 264.455 446.216C263.991 446.696 263.759 447.376 263.759 448.256C263.759 449.12 263.991 449.808 264.455 450.32C264.919 450.816 265.503 451.064 266.207 451.064C266.895 451.064 267.471 450.816 267.935 450.32C268.415 449.824 268.655 449.136 268.655 448.256Z" fill="#008955"/>
<rect x="130" y="839" width="134" height="5" rx="2.5" fill="#141414"/>
</g>
<defs>
<clipPath id="clip0_33_2540">
<rect width="393" height="852" fill="white"/>
</clipPath>
</defs>
</svg>
