<svg width="393" height="852" viewBox="0 0 393 852" fill="none" xmlns="http://www.w3.org/2000/svg">
<g clip-path="url(#clip0_33_2938)">
<rect width="393" height="852" fill="white"/>
<path opacity="0.35" d="M357.001 20.5029H373.667C374.864 20.5029 375.834 21.4733 375.834 22.6699V28.6699C375.834 29.8664 374.864 30.8359 373.667 30.8359H357.001C355.804 30.8359 354.834 29.8664 354.834 28.6699V22.6699L354.845 22.4482C354.956 21.3556 355.879 20.5029 357.001 20.5029Z" stroke="#141414"/>
<path opacity="0.4" d="M377.334 23.6699V27.6699C378.139 27.3311 378.662 26.5431 378.662 25.6699C378.662 24.7968 378.139 24.0087 377.334 23.6699Z" fill="#141414"/>
<path d="M356.334 23.3363C356.334 22.5999 356.931 22.0029 357.667 22.0029H373.001C373.737 22.0029 374.334 22.5999 374.334 23.3363V28.0029C374.334 28.7393 373.737 29.3363 373.001 29.3363H357.667C356.931 29.3363 356.334 28.7393 356.334 28.0029V23.3363Z" fill="#141414"/>
<path fill-rule="evenodd" clip-rule="evenodd" d="M341.664 22.2773C343.88 22.2774 346.011 23.1289 347.617 24.6557C347.738 24.7735 347.931 24.772 348.05 24.6523L349.206 23.4857C349.267 23.4249 349.3 23.3427 349.3 23.2571C349.299 23.1715 349.265 23.0897 349.204 23.0297C344.989 18.9901 338.339 18.9901 334.124 23.0297C334.063 23.0896 334.028 23.1715 334.027 23.257C334.027 23.3426 334.06 23.4249 334.121 23.4857L335.277 24.6523C335.396 24.7722 335.589 24.7737 335.71 24.6557C337.316 23.1288 339.448 22.2773 341.664 22.2773ZM341.665 26.073C342.882 26.0729 344.056 26.5255 344.959 27.3427C345.081 27.4587 345.273 27.4562 345.392 27.337L346.547 26.1704C346.608 26.1092 346.641 26.0261 346.64 25.9399C346.64 25.8536 346.604 25.7713 346.542 25.7114C343.794 23.155 339.538 23.155 336.79 25.7114C336.728 25.7713 336.692 25.8537 336.691 25.9399C336.691 26.0262 336.724 26.1092 336.785 26.1704L337.94 27.337C338.059 27.4562 338.251 27.4587 338.373 27.3427C339.275 26.526 340.448 26.0735 341.665 26.073ZM343.978 28.6268C343.98 28.7133 343.946 28.7967 343.884 28.8573L341.886 30.873C341.828 30.9323 341.748 30.9656 341.665 30.9656C341.582 30.9656 341.502 30.9323 341.443 30.873L339.445 28.8573C339.384 28.7967 339.35 28.7133 339.352 28.6268C339.353 28.5403 339.391 28.4583 339.455 28.4003C340.731 27.3215 342.599 27.3215 343.874 28.4003C343.939 28.4584 343.976 28.5403 343.978 28.6268Z" fill="#141414"/>
<path fill-rule="evenodd" clip-rule="evenodd" d="M328 20.3359H327C326.448 20.3359 326 20.7837 326 21.3359V30.0026C326 30.5549 326.448 31.0026 327 31.0026H328C328.552 31.0026 329 30.5549 329 30.0026V21.3359C329 20.7837 328.552 20.3359 328 20.3359ZM322.334 22.6693H323.334C323.886 22.6693 324.334 23.117 324.334 23.6693V30.0026C324.334 30.5549 323.886 31.0026 323.334 31.0026H322.334C321.782 31.0026 321.334 30.5549 321.334 30.0026V23.6693C321.334 23.117 321.782 22.6693 322.334 22.6693ZM318.666 25.0026H317.666C317.114 25.0026 316.666 25.4503 316.666 26.0026V30.0026C316.666 30.5548 317.114 31.0026 317.666 31.0026H318.666C319.218 31.0026 319.666 30.5548 319.666 30.0026V26.0026C319.666 25.4503 319.218 25.0026 318.666 25.0026ZM314 27.0026H313C312.448 27.0026 312 27.4503 312 28.0026V30.0026C312 30.5549 312.448 31.0026 313 31.0026H314C314.552 31.0026 315 30.5549 315 30.0026V28.0026C315 27.4503 314.552 27.0026 314 27.0026Z" fill="#141414"/>
<path d="M19.3203 32.2568C22.0083 32.2568 23.605 30.1548 23.605 26.5952C23.605 25.2549 23.3486 24.127 22.8579 23.2554C22.1475 21.9004 20.9243 21.168 19.3789 21.168C17.0791 21.168 15.4531 22.7134 15.4531 24.8813C15.4531 26.9175 16.918 28.397 18.9321 28.397C20.1699 28.397 21.1733 27.8184 21.6714 26.8149H21.6934C21.6934 26.8149 21.7227 26.8149 21.73 26.8149C21.7446 26.8149 21.7959 26.8149 21.7959 26.8149C21.7959 29.2319 20.8804 30.6748 19.335 30.6748C18.4268 30.6748 17.7236 30.1768 17.4819 29.3784H15.5996C15.9146 31.1143 17.3867 32.2568 19.3203 32.2568ZM19.3862 26.8955C18.1704 26.8955 17.3062 26.0312 17.3062 24.8228C17.3062 23.6436 18.2144 22.7427 19.3936 22.7427C20.5728 22.7427 21.481 23.6582 21.481 24.8521C21.481 26.0312 20.5947 26.8955 19.3862 26.8955Z" fill="#141414"/>
<path d="M26.6961 32.1543C27.3919 32.1543 27.868 31.6562 27.868 30.9971C27.868 30.3306 27.3919 29.8398 26.6961 29.8398C26.0076 29.8398 25.5242 30.3306 25.5242 30.9971C25.5242 31.6562 26.0076 32.1543 26.6961 32.1543ZM26.6961 26.6611C27.3919 26.6611 27.868 26.1704 27.868 25.5112C27.868 24.8447 27.3919 24.354 26.6961 24.354C26.0076 24.354 25.5242 24.8447 25.5242 25.5112C25.5242 26.1704 26.0076 26.6611 26.6961 26.6611Z" fill="#141414"/>
<path d="M34.7237 32.0005H36.5328V30.0303H37.961V28.4336H36.5328V21.4316H33.8668C31.9991 24.2441 30.5123 26.5952 29.5602 28.3457V30.0303H34.7237V32.0005ZM31.3106 28.3677C32.5411 26.1997 33.6397 24.4639 34.6505 22.9697H34.753V28.4775H31.3106V28.3677Z" fill="#141414"/>
<path d="M41.9896 32.0005H43.8793V21.4316H41.997L39.2357 23.3652V25.1816L41.8651 23.3359H41.9896V32.0005Z" fill="#141414"/>
<g opacity="0.5">
<path d="M77.6763 377.275H-283.462V330.657H77.6763V377.275Z" fill="#B9E5D1"/>
<path d="M67.281 416.754H21.5488V273.846H67.281V416.754Z" fill="#8AD4B5"/>
<path d="M32.2951 290.246H26.0588V284.01H32.2951V290.246Z" fill="#B9E5D1"/>
<path d="M47.533 290.246H41.2974V284.01H47.533V290.246Z" fill="#B9E5D1"/>
<path d="M62.7711 290.246H56.5354V284.01H62.7711V290.246Z" fill="#B9E5D1"/>
<path d="M32.2951 301.264H26.0588V295.027H32.2951V301.264Z" fill="#B9E5D1"/>
<path d="M47.533 301.264H41.2974V295.027H47.533V301.264Z" fill="#B9E5D1"/>
<path d="M62.7711 301.264H56.5354V295.027H62.7711V301.264Z" fill="#B9E5D1"/>
<path d="M32.2951 312.279H26.0588V306.042H32.2951V312.279Z" fill="#B9E5D1"/>
<path d="M47.533 312.279H41.2974V306.042H47.533V312.279Z" fill="#B9E5D1"/>
<path d="M62.7711 312.279H56.5354V306.042H62.7711V312.279Z" fill="#B9E5D1"/>
<path d="M32.2951 323.295H26.0588V317.058H32.2951V323.295Z" fill="#B9E5D1"/>
<path d="M47.533 323.295H41.2974V317.058H47.533V323.295Z" fill="#B9E5D1"/>
<path d="M62.7711 323.295H56.5354V317.058H62.7711V323.295Z" fill="#B9E5D1"/>
<path d="M32.2951 334.312H26.0588V328.074H32.2951V334.312Z" fill="#B9E5D1"/>
<path d="M47.533 334.312H41.2974V328.074H47.533V334.312Z" fill="#B9E5D1"/>
<path d="M62.7711 334.312H56.5354V328.074H62.7711V334.312Z" fill="#B9E5D1"/>
<path d="M32.2951 345.328H26.0588V339.091H32.2951V345.328Z" fill="#B9E5D1"/>
<path d="M47.533 345.328H41.2974V339.091H47.533V345.328Z" fill="#B9E5D1"/>
<path d="M62.7711 345.328H56.5354V339.091H62.7711V345.328Z" fill="#B9E5D1"/>
<path d="M32.2951 356.344H26.0588V350.107H32.2951V356.344Z" fill="#B9E5D1"/>
<path d="M47.533 356.344H41.2974V350.107H47.533V356.344Z" fill="#B9E5D1"/>
<path d="M62.7711 356.344H56.5354V350.107H62.7711V356.344Z" fill="#B9E5D1"/>
<path d="M32.2951 367.36H26.0588V361.123H32.2951V367.36Z" fill="#B9E5D1"/>
<path d="M47.533 367.36H41.2974V361.123H47.533V367.36Z" fill="#B9E5D1"/>
<path d="M62.7711 367.36H56.5354V361.123H62.7711V367.36Z" fill="#B9E5D1"/>
<path d="M32.2951 378.376H26.0588V372.14H32.2951V378.376Z" fill="#B9E5D1"/>
<path d="M47.533 378.376H41.2974V372.14H47.533V378.376Z" fill="#B9E5D1"/>
<path d="M62.7711 378.376H56.5354V372.14H62.7711V378.376Z" fill="#B9E5D1"/>
<path d="M56.1513 232.219C56.1513 233.843 54.8526 235.159 53.2515 235.159C51.6499 235.159 50.3523 233.843 50.3523 232.219C50.3523 230.595 51.6499 229.278 53.2515 229.278C54.8526 229.278 56.1513 230.595 56.1513 232.219V232.219Z" stroke="#B9E5D1" stroke-width="1.70287" stroke-miterlimit="10"/>
<path d="M59.2952 287.657H77.6049" stroke="#B9E5D1" stroke-width="1.33136" stroke-miterlimit="10"/>
<path d="M-39.2646 416.702H21.168C28.8819 416.702 35.1348 410.448 35.1348 402.733V241.875C35.1348 234.16 28.8819 227.906 21.168 227.906H-39.2646C-46.9785 227.906 -53.2319 234.16 -53.2319 241.875V402.733C-53.2319 410.448 -46.9785 416.702 -39.2646 416.702Z" fill="#008955"/>
<path d="M-48.432 416.702H12.0001C19.7139 416.702 25.9668 410.448 25.9668 402.733V241.875C25.9668 234.16 19.7139 227.906 12.0001 227.906H-48.432C-56.1464 227.906 -62.3999 234.16 -62.3999 241.875V402.733C-62.3999 410.448 -56.1464 416.702 -48.432 416.702Z" fill="#007848"/>
<path d="M-48.5156 412.47H12.0831C17.3937 412.47 21.6984 408.164 21.6984 402.853V242.639C21.6984 237.328 17.3937 233.022 12.0831 233.022H-48.5156C-53.8256 233.022 -58.1313 237.328 -58.1313 242.639V402.853C-58.1313 408.164 -53.8256 412.47 -48.5156 412.47Z" fill="white"/>
<path d="M17.3916 318.404H-53.7615V265.109H17.3916V318.404Z" fill="#E2F5ED"/>
<path d="M21.8689 269.21L-66.541 335.968" stroke="white" stroke-width="6.83467" stroke-miterlimit="10"/>
<path d="M42.9074 280.232L-45.5024 346.99" stroke="white" stroke-width="6.83467" stroke-miterlimit="10"/>
<path d="M0.42106 258.518L-77.7305 317.53" stroke="white" stroke-width="6.83467" stroke-miterlimit="10"/>
<path d="M5.85113 259.844C5.85113 253.059 -1.3091 247.948 -8.4844 251.657C-9.59924 252.233 -11.0154 253.625 -11.623 254.724C-13.5006 258.121 -13.3314 261.471 -11.982 264.119H-11.9923L-11.9157 264.257C-11.8812 264.322 -11.8446 264.386 -11.809 264.45L-3.58136 279.33L4.66081 264.425C4.68885 264.376 4.71688 264.326 4.74384 264.275L4.78211 264.207H4.77724C5.45973 262.901 5.85113 261.419 5.85113 259.844Z" fill="#008955"/>
<path d="M0.597227 259.744C0.597227 262.052 -1.27343 263.923 -3.58128 263.923C-5.88859 263.923 -7.75977 262.052 -7.75977 259.744C-7.75977 257.436 -5.88859 255.565 -3.58128 255.565C-1.27343 255.565 0.597227 257.436 0.597227 259.744Z" fill="white"/>
<path d="M32.7648 371.811H22.9965C13.4066 371.811 5.63232 381.874 5.63232 394.286C5.63232 406.698 13.4066 416.761 22.9965 416.761H32.7648C42.3552 416.761 50.1294 406.698 50.1294 394.286C50.1294 381.874 42.3552 371.811 32.7648 371.811Z" fill="black"/>
<path d="M-218.899 398.576V360.438C-218.899 354.998 -214.91 350.363 -209.524 349.614C-204.795 348.958 -198.742 348.385 -192.476 348.5C-192.476 348.5 -156.273 326.244 -142.997 326.244L-59.8265 325.816C-48.6938 325.664 -37.685 328.173 -27.7172 333.134L9.32323 351.568L58.5703 362.352C58.5703 362.352 68.7715 365.12 70.957 371.752C73.143 378.384 72.4147 385.671 72.4147 385.671H-35.7491C-35.7491 385.671 -40.6236 370.342 -56.2211 370.342C-71.8186 370.342 -76.0429 389.152 -75.0683 398.576H-156.79C-156.79 398.576 -156.465 370.627 -177.587 371.602C-198.709 372.577 -197.084 398.576 -197.084 398.576H-218.899Z" fill="#008955"/>
<path d="M-95.7597 332.894L-58.1409 352.869H5.81423L-37.2101 331.828C-40.8107 330.067 -44.766 329.152 -48.7736 329.152H-94.8282C-96.8988 329.152 -97.5883 331.923 -95.7597 332.894Z" fill="black"/>
<path d="M-48.8 356.077H10.3997" stroke="black" stroke-width="1.04803" stroke-miterlimit="10" stroke-linecap="round" stroke-linejoin="round"/>
<path d="M66.07 398.576H-30.5982C-33.4489 398.576 -35.76 396.265 -35.76 393.415L-35.7492 385.671H72.4146L72.3283 392.318C72.3283 395.774 69.5267 398.576 66.07 398.576Z" fill="#005932"/>
<path d="M40.9762 389.379H23.4277V384.069H40.9762V389.379Z" fill="white"/>
<path d="M2.61572 373.482H54.3394" stroke="black" stroke-width="1.04803" stroke-miterlimit="10" stroke-linecap="round" stroke-linejoin="round"/>
<path d="M12.0557 377.432H46.0502" stroke="black" stroke-width="1.04803" stroke-miterlimit="10" stroke-linecap="round" stroke-linejoin="round"/>
<path d="M12.0557 381.366H46.0502" stroke="black" stroke-width="1.04803" stroke-miterlimit="10" stroke-linecap="round" stroke-linejoin="round"/>
<path d="M4.77423 381.962H-17.8024C-19.7102 381.962 -21.2563 380.415 -21.2563 378.508V375.267C-21.2563 373.359 -19.7102 371.812 -17.8024 371.812H4.77423C6.68153 371.812 8.22762 373.359 8.22762 375.267V378.508C8.22762 380.415 6.68153 381.962 4.77423 381.962Z" fill="white"/>
<path d="M70.9907 371.812H53.867C51.9597 371.812 50.4131 373.359 50.4131 375.267V378.508C50.4131 380.415 51.9597 381.962 53.867 381.962H72.5304C72.6824 375.146 71.2215 372.229 70.9907 371.812Z" fill="white"/>
<path d="M-21.2563 378.507H8.22762" stroke="black" stroke-width="1.04803" stroke-miterlimit="10" stroke-linecap="round" stroke-linejoin="round"/>
<path d="M50.4131 378.507H72.4145" stroke="black" stroke-width="1.04803" stroke-miterlimit="10" stroke-linecap="round" stroke-linejoin="round"/>
<path d="M-285.279 416.761H79" stroke="black" stroke-width="1.30461" stroke-miterlimit="10" stroke-linecap="round" stroke-linejoin="round"/>
</g>
<path d="M126.217 455L122.857 448.76H122.353V455H117.649V438.08H125.065C126.425 438.08 127.577 438.32 128.521 438.8C129.465 439.264 130.177 439.912 130.657 440.744C131.137 441.56 131.377 442.48 131.377 443.504C131.377 444.656 131.057 445.672 130.417 446.552C129.793 447.416 128.873 448.032 127.657 448.4L131.473 455H126.217ZM122.353 445.544H124.681C125.321 445.544 125.801 445.392 126.121 445.088C126.441 444.784 126.601 444.344 126.601 443.768C126.601 443.224 126.433 442.8 126.097 442.496C125.777 442.176 125.305 442.016 124.681 442.016H122.353V445.544ZM135.892 440.288C135.06 440.288 134.388 440.064 133.876 439.616C133.38 439.152 133.132 438.576 133.132 437.888C133.132 437.184 133.38 436.6 133.876 436.136C134.388 435.672 135.06 435.44 135.892 435.44C136.708 435.44 137.364 435.672 137.86 436.136C138.372 436.6 138.628 437.184 138.628 437.888C138.628 438.576 138.372 439.152 137.86 439.616C137.364 440.064 136.708 440.288 135.892 440.288ZM138.22 441.536V455H133.516V441.536H138.22ZM140.131 448.256C140.131 446.864 140.379 445.648 140.875 444.608C141.387 443.568 142.083 442.768 142.963 442.208C143.843 441.648 144.819 441.368 145.891 441.368C146.755 441.368 147.523 441.552 148.195 441.92C148.883 442.272 149.419 442.76 149.803 443.384V437.24H154.531V455H149.803V453.128C149.435 453.752 148.915 454.248 148.243 454.616C147.571 454.984 146.779 455.168 145.867 455.168C144.795 455.168 143.819 454.888 142.939 454.328C142.075 453.768 141.387 452.968 140.875 451.928C140.379 450.872 140.131 449.648 140.131 448.256ZM149.827 448.256C149.827 447.392 149.587 446.712 149.107 446.216C148.643 445.72 148.067 445.472 147.379 445.472C146.675 445.472 146.091 445.72 145.627 446.216C145.163 446.696 144.931 447.376 144.931 448.256C144.931 449.12 145.163 449.808 145.627 450.32C146.091 450.816 146.675 451.064 147.379 451.064C148.067 451.064 148.643 450.816 149.107 450.32C149.587 449.824 149.827 449.136 149.827 448.256ZM170.075 448.112C170.075 448.48 170.051 448.848 170.003 449.216H161.099C161.147 449.952 161.347 450.504 161.699 450.872C162.067 451.224 162.531 451.4 163.091 451.4C163.875 451.4 164.435 451.048 164.771 450.344H169.787C169.579 451.272 169.171 452.104 168.563 452.84C167.971 453.56 167.219 454.128 166.307 454.544C165.395 454.96 164.387 455.168 163.283 455.168C161.955 455.168 160.771 454.888 159.731 454.328C158.707 453.768 157.899 452.968 157.307 451.928C156.731 450.888 156.443 449.664 156.443 448.256C156.443 446.848 156.731 445.632 157.307 444.608C157.883 443.568 158.683 442.768 159.707 442.208C160.747 441.648 161.939 441.368 163.283 441.368C164.611 441.368 165.787 441.64 166.811 442.184C167.835 442.728 168.635 443.512 169.211 444.536C169.787 445.544 170.075 446.736 170.075 448.112ZM165.275 446.936C165.275 446.36 165.083 445.912 164.699 445.592C164.315 445.256 163.835 445.088 163.259 445.088C162.683 445.088 162.211 445.248 161.843 445.568C161.475 445.872 161.235 446.328 161.123 446.936H165.275ZM183.472 438.08V441.824H176.704V444.8H181.696V448.376H176.704V455H172V438.08H183.472ZM191.717 455.168C190.373 455.168 189.165 454.888 188.093 454.328C187.037 453.768 186.205 452.968 185.597 451.928C184.989 450.888 184.685 449.664 184.685 448.256C184.685 446.864 184.989 445.648 185.597 444.608C186.221 443.568 187.061 442.768 188.117 442.208C189.189 441.648 190.397 441.368 191.741 441.368C193.085 441.368 194.285 441.648 195.341 442.208C196.413 442.768 197.253 443.568 197.861 444.608C198.485 445.648 198.797 446.864 198.797 448.256C198.797 449.648 198.485 450.872 197.861 451.928C197.253 452.968 196.413 453.768 195.341 454.328C194.269 454.888 193.061 455.168 191.717 455.168ZM191.717 451.088C192.373 451.088 192.917 450.848 193.349 450.368C193.797 449.872 194.021 449.168 194.021 448.256C194.021 447.344 193.797 446.648 193.349 446.168C192.917 445.688 192.381 445.448 191.741 445.448C191.101 445.448 190.565 445.688 190.133 446.168C189.701 446.648 189.485 447.344 189.485 448.256C189.485 449.184 189.693 449.888 190.109 450.368C190.525 450.848 191.061 451.088 191.717 451.088ZM205.415 443.912C205.943 443.144 206.583 442.536 207.335 442.088C208.087 441.64 208.895 441.416 209.759 441.416V446.432H208.439C207.415 446.432 206.655 446.632 206.159 447.032C205.663 447.432 205.415 448.128 205.415 449.12V455H200.711V441.536H205.415V443.912ZM231.342 441.536L227.91 455H222.63L220.758 446.84L218.814 455H213.558L210.15 441.536H214.83L216.342 450.464L218.334 441.536H223.374L225.438 450.488L226.926 441.536H231.342ZM231.912 448.256C231.912 446.864 232.16 445.648 232.656 444.608C233.168 443.568 233.856 442.768 234.72 442.208C235.6 441.648 236.576 441.368 237.648 441.368C238.576 441.368 239.376 441.552 240.048 441.92C240.72 442.288 241.24 442.784 241.608 443.408V441.536H246.312V455H241.608V453.128C241.24 453.752 240.712 454.248 240.024 454.616C239.352 454.984 238.56 455.168 237.648 455.168C236.576 455.168 235.6 454.888 234.72 454.328C233.856 453.768 233.168 452.968 232.656 451.928C232.16 450.872 231.912 449.648 231.912 448.256ZM241.608 448.256C241.608 447.392 241.368 446.712 240.888 446.216C240.424 445.72 239.848 445.472 239.16 445.472C238.456 445.472 237.872 445.72 237.408 446.216C236.944 446.696 236.712 447.376 236.712 448.256C236.712 449.12 236.944 449.808 237.408 450.32C237.872 450.816 238.456 451.064 239.16 451.064C239.848 451.064 240.424 450.816 240.888 450.32C241.368 449.824 241.608 449.136 241.608 448.256ZM253.696 443.912C254.224 443.144 254.864 442.536 255.616 442.088C256.368 441.64 257.176 441.416 258.04 441.416V446.432H256.72C255.696 446.432 254.936 446.632 254.44 447.032C253.944 447.432 253.696 448.128 253.696 449.12V455H248.992V441.536H253.696V443.912ZM258.959 448.256C258.959 446.864 259.207 445.648 259.703 444.608C260.215 443.568 260.911 442.768 261.791 442.208C262.671 441.648 263.647 441.368 264.719 441.368C265.583 441.368 266.351 441.552 267.023 441.92C267.711 442.272 268.247 442.76 268.631 443.384V437.24H273.359V455H268.631V453.128C268.263 453.752 267.743 454.248 267.071 454.616C266.399 454.984 265.607 455.168 264.695 455.168C263.623 455.168 262.647 454.888 261.767 454.328C260.903 453.768 260.215 452.968 259.703 451.928C259.207 450.872 258.959 449.648 258.959 448.256ZM268.655 448.256C268.655 447.392 268.415 446.712 267.935 446.216C267.471 445.72 266.895 445.472 266.207 445.472C265.503 445.472 264.919 445.72 264.455 446.216C263.991 446.696 263.759 447.376 263.759 448.256C263.759 449.12 263.991 449.808 264.455 450.32C264.919 450.816 265.503 451.064 266.207 451.064C266.895 451.064 267.471 450.816 267.935 450.32C268.415 449.824 268.655 449.136 268.655 448.256Z" fill="#008955"/>
<rect x="130" y="839" width="134" height="5" rx="2.5" fill="#141414"/>
<path d="M189.304 477.272V479.048H182.032V484.688H187.936V486.464H182.032V494H179.848V477.272H189.304ZM191.126 487.376C191.126 486.032 191.398 484.856 191.942 483.848C192.486 482.824 193.23 482.032 194.174 481.472C195.134 480.912 196.198 480.632 197.366 480.632C198.518 480.632 199.518 480.88 200.366 481.376C201.214 481.872 201.846 482.496 202.262 483.248V480.848H204.47V494H202.262V491.552C201.83 492.32 201.182 492.96 200.318 493.472C199.47 493.968 198.478 494.216 197.342 494.216C196.174 494.216 195.118 493.928 194.174 493.352C193.23 492.776 192.486 491.968 191.942 490.928C191.398 489.888 191.126 488.704 191.126 487.376ZM202.262 487.4C202.262 486.408 202.062 485.544 201.662 484.808C201.262 484.072 200.718 483.512 200.03 483.128C199.358 482.728 198.614 482.528 197.798 482.528C196.982 482.528 196.238 482.72 195.566 483.104C194.894 483.488 194.358 484.048 193.958 484.784C193.558 485.52 193.358 486.384 193.358 487.376C193.358 488.384 193.558 489.264 193.958 490.016C194.358 490.752 194.894 491.32 195.566 491.72C196.238 492.104 196.982 492.296 197.798 492.296C198.614 492.296 199.358 492.104 200.03 491.72C200.718 491.32 201.262 490.752 201.662 490.016C202.062 489.264 202.262 488.392 202.262 487.4ZM212.817 494.216C211.809 494.216 210.905 494.048 210.105 493.712C209.305 493.36 208.673 492.88 208.209 492.272C207.745 491.648 207.489 490.936 207.441 490.136H209.697C209.761 490.792 210.065 491.328 210.609 491.744C211.169 492.16 211.897 492.368 212.793 492.368C213.625 492.368 214.281 492.184 214.761 491.816C215.241 491.448 215.481 490.984 215.481 490.424C215.481 489.848 215.225 489.424 214.713 489.152C214.201 488.864 213.409 488.584 212.337 488.312C211.361 488.056 210.561 487.8 209.937 487.544C209.329 487.272 208.801 486.88 208.353 486.368C207.921 485.84 207.705 485.152 207.705 484.304C207.705 483.632 207.905 483.016 208.305 482.456C208.705 481.896 209.273 481.456 210.009 481.136C210.745 480.8 211.585 480.632 212.529 480.632C213.985 480.632 215.161 481 216.057 481.736C216.953 482.472 217.433 483.48 217.497 484.76H215.313C215.265 484.072 214.985 483.52 214.473 483.104C213.977 482.688 213.305 482.48 212.457 482.48C211.673 482.48 211.049 482.648 210.585 482.984C210.121 483.32 209.889 483.76 209.889 484.304C209.889 484.736 210.025 485.096 210.297 485.384C210.585 485.656 210.937 485.88 211.353 486.056C211.785 486.216 212.377 486.4 213.129 486.608C214.073 486.864 214.841 487.12 215.433 487.376C216.025 487.616 216.529 487.984 216.945 488.48C217.377 488.976 217.601 489.624 217.617 490.424C217.617 491.144 217.417 491.792 217.017 492.368C216.617 492.944 216.049 493.4 215.313 493.736C214.593 494.056 213.761 494.216 212.817 494.216ZM223.364 482.648V490.4C223.364 491.04 223.5 491.496 223.772 491.768C224.044 492.024 224.516 492.152 225.188 492.152H226.796V494H224.828C223.612 494 222.7 493.72 222.092 493.16C221.484 492.6 221.18 491.68 221.18 490.4V482.648H219.476V480.848H221.18V477.536H223.364V480.848H226.796V482.648H223.364ZM230.138 494.144C229.722 494.144 229.37 494 229.082 493.712C228.794 493.424 228.65 493.072 228.65 492.656C228.65 492.24 228.794 491.888 229.082 491.6C229.37 491.312 229.722 491.168 230.138 491.168C230.538 491.168 230.874 491.312 231.146 491.6C231.434 491.888 231.578 492.24 231.578 492.656C231.578 493.072 231.434 493.424 231.146 493.712C230.874 494 230.538 494.144 230.138 494.144Z" fill="black"/>
<path d="M168.656 521L164.672 514.16H162.032V521H159.848V504.272H165.248C166.512 504.272 167.576 504.488 168.44 504.92C169.32 505.352 169.976 505.936 170.408 506.672C170.84 507.408 171.056 508.248 171.056 509.192C171.056 510.344 170.72 511.36 170.048 512.24C169.392 513.12 168.4 513.704 167.072 513.992L171.272 521H168.656ZM162.032 512.408H165.248C166.432 512.408 167.32 512.12 167.912 511.544C168.504 510.952 168.8 510.168 168.8 509.192C168.8 508.2 168.504 507.432 167.912 506.888C167.336 506.344 166.448 506.072 165.248 506.072H162.032V512.408ZM186.45 513.92C186.45 514.336 186.426 514.776 186.378 515.24H175.866C175.946 516.536 176.386 517.552 177.186 518.288C178.002 519.008 178.986 519.368 180.138 519.368C181.082 519.368 181.866 519.152 182.49 518.72C183.13 518.272 183.578 517.68 183.834 516.944H186.186C185.834 518.208 185.13 519.24 184.074 520.04C183.018 520.824 181.706 521.216 180.138 521.216C178.89 521.216 177.77 520.936 176.778 520.376C175.802 519.816 175.034 519.024 174.474 518C173.914 516.96 173.634 515.76 173.634 514.4C173.634 513.04 173.906 511.848 174.45 510.824C174.994 509.8 175.754 509.016 176.73 508.472C177.722 507.912 178.858 507.632 180.138 507.632C181.386 507.632 182.49 507.904 183.45 508.448C184.41 508.992 185.146 509.744 185.658 510.704C186.186 511.648 186.45 512.72 186.45 513.92ZM184.194 513.464C184.194 512.632 184.01 511.92 183.642 511.328C183.274 510.72 182.77 510.264 182.13 509.96C181.506 509.64 180.81 509.48 180.042 509.48C178.938 509.48 177.994 509.832 177.21 510.536C176.442 511.24 176.002 512.216 175.89 513.464H184.194ZM191.516 503.24V521H189.332V503.24H191.516ZM196.367 505.712C195.951 505.712 195.599 505.568 195.311 505.28C195.023 504.992 194.879 504.64 194.879 504.224C194.879 503.808 195.023 503.456 195.311 503.168C195.599 502.88 195.951 502.736 196.367 502.736C196.767 502.736 197.103 502.88 197.375 503.168C197.663 503.456 197.807 503.808 197.807 504.224C197.807 504.64 197.663 504.992 197.375 505.28C197.103 505.568 196.767 505.712 196.367 505.712ZM197.423 507.848V521H195.239V507.848H197.423ZM200.329 514.376C200.329 513.032 200.601 511.856 201.145 510.848C201.689 509.824 202.433 509.032 203.377 508.472C204.337 507.912 205.401 507.632 206.569 507.632C207.721 507.632 208.721 507.88 209.569 508.376C210.417 508.872 211.049 509.496 211.465 510.248V507.848H213.673V521H211.465V518.552C211.033 519.32 210.385 519.96 209.521 520.472C208.673 520.968 207.681 521.216 206.545 521.216C205.377 521.216 204.321 520.928 203.377 520.352C202.433 519.776 201.689 518.968 201.145 517.928C200.601 516.888 200.329 515.704 200.329 514.376ZM211.465 514.4C211.465 513.408 211.265 512.544 210.865 511.808C210.465 511.072 209.921 510.512 209.233 510.128C208.561 509.728 207.817 509.528 207.001 509.528C206.185 509.528 205.441 509.72 204.769 510.104C204.097 510.488 203.561 511.048 203.161 511.784C202.761 512.52 202.561 513.384 202.561 514.376C202.561 515.384 202.761 516.264 203.161 517.016C203.561 517.752 204.097 518.32 204.769 518.72C205.441 519.104 206.185 519.296 207.001 519.296C207.817 519.296 208.561 519.104 209.233 518.72C209.921 518.32 210.465 517.752 210.865 517.016C211.265 516.264 211.465 515.392 211.465 514.4ZM219.548 510.296C219.996 509.512 220.652 508.872 221.516 508.376C222.38 507.88 223.364 507.632 224.468 507.632C225.652 507.632 226.716 507.912 227.66 508.472C228.604 509.032 229.348 509.824 229.892 510.848C230.436 511.856 230.708 513.032 230.708 514.376C230.708 515.704 230.436 516.888 229.892 517.928C229.348 518.968 228.596 519.776 227.636 520.352C226.692 520.928 225.636 521.216 224.468 521.216C223.332 521.216 222.332 520.968 221.468 520.472C220.62 519.976 219.98 519.344 219.548 518.576V521H217.364V503.24H219.548V510.296ZM228.476 514.376C228.476 513.384 228.276 512.52 227.876 511.784C227.476 511.048 226.932 510.488 226.244 510.104C225.572 509.72 224.828 509.528 224.012 509.528C223.212 509.528 222.468 509.728 221.78 510.128C221.108 510.512 220.564 511.08 220.148 511.832C219.748 512.568 219.548 513.424 219.548 514.4C219.548 515.392 219.748 516.264 220.148 517.016C220.564 517.752 221.108 518.32 221.78 518.72C222.468 519.104 223.212 519.296 224.012 519.296C224.828 519.296 225.572 519.104 226.244 518.72C226.932 518.32 227.476 517.752 227.876 517.016C228.276 516.264 228.476 515.384 228.476 514.376ZM235.766 503.24V521H233.582V503.24H235.766ZM251.489 513.92C251.489 514.336 251.465 514.776 251.417 515.24H240.905C240.985 516.536 241.425 517.552 242.225 518.288C243.041 519.008 244.025 519.368 245.177 519.368C246.121 519.368 246.905 519.152 247.529 518.72C248.169 518.272 248.617 517.68 248.873 516.944H251.225C250.873 518.208 250.169 519.24 249.113 520.04C248.057 520.824 246.745 521.216 245.177 521.216C243.929 521.216 242.809 520.936 241.817 520.376C240.841 519.816 240.073 519.024 239.513 518C238.953 516.96 238.673 515.76 238.673 514.4C238.673 513.04 238.945 511.848 239.489 510.824C240.033 509.8 240.793 509.016 241.769 508.472C242.761 507.912 243.897 507.632 245.177 507.632C246.425 507.632 247.529 507.904 248.489 508.448C249.449 508.992 250.185 509.744 250.697 510.704C251.225 511.648 251.489 512.72 251.489 513.92ZM249.233 513.464C249.233 512.632 249.049 511.92 248.681 511.328C248.313 510.72 247.809 510.264 247.169 509.96C246.545 509.64 245.849 509.48 245.081 509.48C243.977 509.48 243.033 509.832 242.249 510.536C241.481 511.24 241.041 512.216 240.929 513.464H249.233ZM255.067 521.144C254.651 521.144 254.299 521 254.011 520.712C253.723 520.424 253.579 520.072 253.579 519.656C253.579 519.24 253.723 518.888 254.011 518.6C254.299 518.312 254.651 518.168 255.067 518.168C255.467 518.168 255.803 518.312 256.075 518.6C256.363 518.888 256.507 519.24 256.507 519.656C256.507 520.072 256.363 520.424 256.075 520.712C255.803 521 255.467 521.144 255.067 521.144Z" fill="black"/>
<path d="M154.736 544.28H147.44L146.096 548H143.792L149.84 531.368H152.36L158.384 548H156.08L154.736 544.28ZM154.112 542.504L151.088 534.056L148.064 542.504H154.112ZM166.372 536.648H163.612V548H161.428V536.648H159.724V534.848H161.428V533.912C161.428 532.44 161.804 531.368 162.556 530.696C163.324 530.008 164.548 529.664 166.228 529.664V531.488C165.268 531.488 164.588 531.68 164.188 532.064C163.804 532.432 163.612 533.048 163.612 533.912V534.848H166.372V536.648ZM174.27 536.648H171.51V548H169.326V536.648H167.622V534.848H169.326V533.912C169.326 532.44 169.702 531.368 170.454 530.696C171.222 530.008 172.446 529.664 174.126 529.664V531.488C173.166 531.488 172.486 531.68 172.086 532.064C171.702 532.432 171.51 533.048 171.51 533.912V534.848H174.27V536.648ZM182.553 548.216C181.321 548.216 180.201 547.936 179.193 547.376C178.201 546.816 177.417 546.024 176.841 545C176.281 543.96 176.001 542.76 176.001 541.4C176.001 540.056 176.289 538.872 176.865 537.848C177.457 536.808 178.257 536.016 179.265 535.472C180.273 534.912 181.401 534.632 182.649 534.632C183.897 534.632 185.025 534.912 186.033 535.472C187.041 536.016 187.833 536.8 188.409 537.824C189.001 538.848 189.297 540.04 189.297 541.4C189.297 542.76 188.993 543.96 188.385 545C187.793 546.024 186.985 546.816 185.961 547.376C184.937 547.936 183.801 548.216 182.553 548.216ZM182.553 546.296C183.337 546.296 184.073 546.112 184.761 545.744C185.449 545.376 186.001 544.824 186.417 544.088C186.849 543.352 187.065 542.456 187.065 541.4C187.065 540.344 186.857 539.448 186.441 538.712C186.025 537.976 185.481 537.432 184.809 537.08C184.137 536.712 183.409 536.528 182.625 536.528C181.825 536.528 181.089 536.712 180.417 537.08C179.761 537.432 179.233 537.976 178.833 538.712C178.433 539.448 178.233 540.344 178.233 541.4C178.233 542.472 178.425 543.376 178.809 544.112C179.209 544.848 179.737 545.4 180.393 545.768C181.049 546.12 181.769 546.296 182.553 546.296ZM194.352 536.984C194.736 536.232 195.28 535.648 195.984 535.232C196.704 534.816 197.576 534.608 198.6 534.608V536.864H198.024C195.576 536.864 194.352 538.192 194.352 540.848V548H192.168V534.848H194.352V536.984ZM200.305 541.376C200.305 540.032 200.577 538.856 201.121 537.848C201.665 536.824 202.409 536.032 203.353 535.472C204.313 534.912 205.385 534.632 206.569 534.632C207.593 534.632 208.545 534.872 209.425 535.352C210.305 535.816 210.977 536.432 211.441 537.2V530.24H213.649V548H211.441V545.528C211.009 546.312 210.369 546.96 209.521 547.472C208.673 547.968 207.681 548.216 206.545 548.216C205.377 548.216 204.313 547.928 203.353 547.352C202.409 546.776 201.665 545.968 201.121 544.928C200.577 543.888 200.305 542.704 200.305 541.376ZM211.441 541.4C211.441 540.408 211.241 539.544 210.841 538.808C210.441 538.072 209.897 537.512 209.209 537.128C208.537 536.728 207.793 536.528 206.977 536.528C206.161 536.528 205.417 536.72 204.745 537.104C204.073 537.488 203.537 538.048 203.137 538.784C202.737 539.52 202.537 540.384 202.537 541.376C202.537 542.384 202.737 543.264 203.137 544.016C203.537 544.752 204.073 545.32 204.745 545.72C205.417 546.104 206.161 546.296 206.977 546.296C207.793 546.296 208.537 546.104 209.209 545.72C209.897 545.32 210.441 544.752 210.841 544.016C211.241 543.264 211.441 542.392 211.441 541.4ZM216.524 541.376C216.524 540.032 216.796 538.856 217.34 537.848C217.884 536.824 218.628 536.032 219.572 535.472C220.532 534.912 221.596 534.632 222.764 534.632C223.916 534.632 224.916 534.88 225.764 535.376C226.612 535.872 227.244 536.496 227.66 537.248V534.848H229.868V548H227.66V545.552C227.228 546.32 226.58 546.96 225.716 547.472C224.868 547.968 223.876 548.216 222.74 548.216C221.572 548.216 220.516 547.928 219.572 547.352C218.628 546.776 217.884 545.968 217.34 544.928C216.796 543.888 216.524 542.704 216.524 541.376ZM227.66 541.4C227.66 540.408 227.46 539.544 227.06 538.808C226.66 538.072 226.116 537.512 225.428 537.128C224.756 536.728 224.012 536.528 223.196 536.528C222.38 536.528 221.636 536.72 220.964 537.104C220.292 537.488 219.756 538.048 219.356 538.784C218.956 539.52 218.756 540.384 218.756 541.376C218.756 542.384 218.956 543.264 219.356 544.016C219.756 544.752 220.292 545.32 220.964 545.72C221.636 546.104 222.38 546.296 223.196 546.296C224.012 546.296 224.756 546.104 225.428 545.72C226.116 545.32 226.66 544.752 227.06 544.016C227.46 543.264 227.66 542.392 227.66 541.4ZM235.743 537.296C236.191 536.512 236.847 535.872 237.711 535.376C238.575 534.88 239.559 534.632 240.663 534.632C241.847 534.632 242.911 534.912 243.855 535.472C244.799 536.032 245.543 536.824 246.087 537.848C246.631 538.856 246.903 540.032 246.903 541.376C246.903 542.704 246.631 543.888 246.087 544.928C245.543 545.968 244.791 546.776 243.831 547.352C242.887 547.928 241.831 548.216 240.663 548.216C239.527 548.216 238.527 547.968 237.663 547.472C236.815 546.976 236.175 546.344 235.743 545.576V548H233.559V530.24H235.743V537.296ZM244.671 541.376C244.671 540.384 244.471 539.52 244.071 538.784C243.671 538.048 243.127 537.488 242.439 537.104C241.767 536.72 241.023 536.528 240.207 536.528C239.407 536.528 238.663 536.728 237.975 537.128C237.303 537.512 236.759 538.08 236.343 538.832C235.943 539.568 235.743 540.424 235.743 541.4C235.743 542.392 235.943 543.264 236.343 544.016C236.759 544.752 237.303 545.32 237.975 545.72C238.663 546.104 239.407 546.296 240.207 546.296C241.023 546.296 241.767 546.104 242.439 545.72C243.127 545.32 243.671 544.752 244.071 544.016C244.471 543.264 244.671 542.384 244.671 541.376ZM251.962 530.24V548H249.778V530.24H251.962ZM267.684 540.92C267.684 541.336 267.66 541.776 267.612 542.24H257.1C257.18 543.536 257.62 544.552 258.42 545.288C259.236 546.008 260.22 546.368 261.372 546.368C262.316 546.368 263.1 546.152 263.724 545.72C264.364 545.272 264.812 544.68 265.068 543.944H267.42C267.068 545.208 266.364 546.24 265.308 547.04C264.252 547.824 262.94 548.216 261.372 548.216C260.124 548.216 259.004 547.936 258.012 547.376C257.036 546.816 256.268 546.024 255.708 545C255.148 543.96 254.868 542.76 254.868 541.4C254.868 540.04 255.14 538.848 255.684 537.824C256.228 536.8 256.988 536.016 257.964 535.472C258.956 534.912 260.092 534.632 261.372 534.632C262.62 534.632 263.724 534.904 264.684 535.448C265.644 535.992 266.38 536.744 266.892 537.704C267.42 538.648 267.684 539.72 267.684 540.92ZM265.428 540.464C265.428 539.632 265.244 538.92 264.876 538.328C264.508 537.72 264.004 537.264 263.364 536.96C262.74 536.64 262.044 536.48 261.276 536.48C260.172 536.48 259.228 536.832 258.444 537.536C257.676 538.24 257.236 539.216 257.124 540.464H265.428ZM271.263 548.144C270.847 548.144 270.495 548 270.207 547.712C269.919 547.424 269.775 547.072 269.775 546.656C269.775 546.24 269.919 545.888 270.207 545.6C270.495 545.312 270.847 545.168 271.263 545.168C271.663 545.168 271.999 545.312 272.271 545.6C272.559 545.888 272.703 546.24 272.703 546.656C272.703 547.072 272.559 547.424 272.271 547.712C271.999 548 271.663 548.144 271.263 548.144Z" fill="black"/>
</g>
<defs>
<clipPath id="clip0_33_2938">
<rect width="393" height="852" fill="white"/>
</clipPath>
</defs>
</svg>
