<svg width="393" height="852" viewBox="0 0 393 852" fill="none" xmlns="http://www.w3.org/2000/svg">
<g clip-path="url(#clip0_28_3201)">
<rect width="393" height="852" fill="white"/>
<path opacity="0.35" d="M357.001 20.5029H373.667C374.864 20.5029 375.834 21.4733 375.834 22.6699V28.6699C375.834 29.8664 374.864 30.8359 373.667 30.8359H357.001C355.804 30.8359 354.834 29.8664 354.834 28.6699V22.6699L354.845 22.4482C354.956 21.3556 355.879 20.5029 357.001 20.5029Z" stroke="#141414"/>
<path opacity="0.4" d="M377.334 23.6699V27.6699C378.139 27.3311 378.662 26.5431 378.662 25.6699C378.662 24.7968 378.139 24.0087 377.334 23.6699Z" fill="#141414"/>
<path d="M356.334 23.3363C356.334 22.5999 356.931 22.0029 357.667 22.0029H373.001C373.737 22.0029 374.334 22.5999 374.334 23.3363V28.0029C374.334 28.7393 373.737 29.3363 373.001 29.3363H357.667C356.931 29.3363 356.334 28.7393 356.334 28.0029V23.3363Z" fill="#141414"/>
<path fill-rule="evenodd" clip-rule="evenodd" d="M341.664 22.2773C343.88 22.2774 346.011 23.1289 347.617 24.6557C347.738 24.7735 347.931 24.772 348.05 24.6523L349.206 23.4857C349.267 23.4249 349.3 23.3427 349.3 23.2571C349.299 23.1715 349.265 23.0897 349.204 23.0297C344.989 18.9901 338.339 18.9901 334.124 23.0297C334.063 23.0896 334.028 23.1715 334.027 23.257C334.027 23.3426 334.06 23.4249 334.121 23.4857L335.277 24.6523C335.396 24.7722 335.589 24.7737 335.71 24.6557C337.316 23.1288 339.448 22.2773 341.664 22.2773ZM341.665 26.073C342.882 26.0729 344.056 26.5255 344.959 27.3427C345.081 27.4587 345.273 27.4562 345.392 27.337L346.547 26.1704C346.608 26.1092 346.641 26.0261 346.64 25.9399C346.64 25.8536 346.604 25.7713 346.542 25.7114C343.794 23.155 339.538 23.155 336.79 25.7114C336.728 25.7713 336.692 25.8537 336.691 25.9399C336.691 26.0262 336.724 26.1092 336.785 26.1704L337.94 27.337C338.059 27.4562 338.251 27.4587 338.373 27.3427C339.275 26.526 340.448 26.0735 341.665 26.073ZM343.978 28.6268C343.98 28.7133 343.946 28.7967 343.884 28.8573L341.886 30.873C341.828 30.9323 341.748 30.9656 341.665 30.9656C341.582 30.9656 341.502 30.9323 341.443 30.873L339.445 28.8573C339.384 28.7967 339.35 28.7133 339.352 28.6268C339.353 28.5403 339.391 28.4583 339.455 28.4003C340.731 27.3215 342.599 27.3215 343.874 28.4003C343.939 28.4584 343.976 28.5403 343.978 28.6268Z" fill="#141414"/>
<path fill-rule="evenodd" clip-rule="evenodd" d="M328 20.3359H327C326.448 20.3359 326 20.7837 326 21.3359V30.0026C326 30.5549 326.448 31.0026 327 31.0026H328C328.552 31.0026 329 30.5549 329 30.0026V21.3359C329 20.7837 328.552 20.3359 328 20.3359ZM322.334 22.6693H323.334C323.886 22.6693 324.334 23.117 324.334 23.6693V30.0026C324.334 30.5549 323.886 31.0026 323.334 31.0026H322.334C321.782 31.0026 321.334 30.5549 321.334 30.0026V23.6693C321.334 23.117 321.782 22.6693 322.334 22.6693ZM318.666 25.0026H317.666C317.114 25.0026 316.666 25.4503 316.666 26.0026V30.0026C316.666 30.5548 317.114 31.0026 317.666 31.0026H318.666C319.218 31.0026 319.666 30.5548 319.666 30.0026V26.0026C319.666 25.4503 319.218 25.0026 318.666 25.0026ZM314 27.0026H313C312.448 27.0026 312 27.4503 312 28.0026V30.0026C312 30.5549 312.448 31.0026 313 31.0026H314C314.552 31.0026 315 30.5549 315 30.0026V28.0026C315 27.4503 314.552 27.0026 314 27.0026Z" fill="#141414"/>
<path d="M19.3203 32.2568C22.0083 32.2568 23.605 30.1548 23.605 26.5952C23.605 25.2549 23.3486 24.127 22.8579 23.2554C22.1475 21.9004 20.9243 21.168 19.3789 21.168C17.0791 21.168 15.4531 22.7134 15.4531 24.8813C15.4531 26.9175 16.918 28.397 18.9321 28.397C20.1699 28.397 21.1733 27.8184 21.6714 26.8149H21.6934C21.6934 26.8149 21.7227 26.8149 21.73 26.8149C21.7446 26.8149 21.7959 26.8149 21.7959 26.8149C21.7959 29.2319 20.8804 30.6748 19.335 30.6748C18.4268 30.6748 17.7236 30.1768 17.4819 29.3784H15.5996C15.9146 31.1143 17.3867 32.2568 19.3203 32.2568ZM19.3862 26.8955C18.1704 26.8955 17.3062 26.0312 17.3062 24.8228C17.3062 23.6436 18.2144 22.7427 19.3936 22.7427C20.5728 22.7427 21.481 23.6582 21.481 24.8521C21.481 26.0312 20.5947 26.8955 19.3862 26.8955Z" fill="#141414"/>
<path d="M26.6961 32.1543C27.3919 32.1543 27.868 31.6562 27.868 30.9971C27.868 30.3306 27.3919 29.8398 26.6961 29.8398C26.0076 29.8398 25.5242 30.3306 25.5242 30.9971C25.5242 31.6562 26.0076 32.1543 26.6961 32.1543ZM26.6961 26.6611C27.3919 26.6611 27.868 26.1704 27.868 25.5112C27.868 24.8447 27.3919 24.354 26.6961 24.354C26.0076 24.354 25.5242 24.8447 25.5242 25.5112C25.5242 26.1704 26.0076 26.6611 26.6961 26.6611Z" fill="#141414"/>
<path d="M34.7237 32.0005H36.5328V30.0303H37.961V28.4336H36.5328V21.4316H33.8668C31.9991 24.2441 30.5123 26.5952 29.5602 28.3457V30.0303H34.7237V32.0005ZM31.3106 28.3677C32.5411 26.1997 33.6397 24.4639 34.6505 22.9697H34.753V28.4775H31.3106V28.3677Z" fill="#141414"/>
<path d="M41.9896 32.0005H43.8793V21.4316H41.997L39.2357 23.3652V25.1816L41.8651 23.3359H41.9896V32.0005Z" fill="#141414"/>
<path d="M16.2167 455L12.8567 448.76H12.3527V455H7.64869V438.08H15.0647C16.4247 438.08 17.5767 438.32 18.5207 438.8C19.4647 439.264 20.1767 439.912 20.6567 440.744C21.1367 441.56 21.3767 442.48 21.3767 443.504C21.3767 444.656 21.0567 445.672 20.4167 446.552C19.7927 447.416 18.8727 448.032 17.6567 448.4L21.4727 455H16.2167ZM12.3527 445.544H14.6807C15.3207 445.544 15.8007 445.392 16.1207 445.088C16.4407 444.784 16.6007 444.344 16.6007 443.768C16.6007 443.224 16.4327 442.8 16.0967 442.496C15.7767 442.176 15.3047 442.016 14.6807 442.016H12.3527V445.544ZM25.8919 440.288C25.0599 440.288 24.3879 440.064 23.8759 439.616C23.3799 439.152 23.1319 438.576 23.1319 437.888C23.1319 437.184 23.3799 436.6 23.8759 436.136C24.3879 435.672 25.0599 435.44 25.8919 435.44C26.7079 435.44 27.3639 435.672 27.8599 436.136C28.3719 436.6 28.6279 437.184 28.6279 437.888C28.6279 438.576 28.3719 439.152 27.8599 439.616C27.3639 440.064 26.7079 440.288 25.8919 440.288ZM28.2199 441.536V455H23.5159V441.536H28.2199ZM30.1307 448.256C30.1307 446.864 30.3787 445.648 30.8747 444.608C31.3867 443.568 32.0827 442.768 32.9627 442.208C33.8427 441.648 34.8187 441.368 35.8907 441.368C36.7547 441.368 37.5227 441.552 38.1947 441.92C38.8827 442.272 39.4187 442.76 39.8027 443.384V437.24H44.5307V455H39.8027V453.128C39.4347 453.752 38.9147 454.248 38.2427 454.616C37.5707 454.984 36.7787 455.168 35.8667 455.168C34.7947 455.168 33.8187 454.888 32.9387 454.328C32.0747 453.768 31.3867 452.968 30.8747 451.928C30.3787 450.872 30.1307 449.648 30.1307 448.256ZM39.8267 448.256C39.8267 447.392 39.5867 446.712 39.1067 446.216C38.6427 445.72 38.0667 445.472 37.3787 445.472C36.6747 445.472 36.0907 445.72 35.6267 446.216C35.1627 446.696 34.9307 447.376 34.9307 448.256C34.9307 449.12 35.1627 449.808 35.6267 450.32C36.0907 450.816 36.6747 451.064 37.3787 451.064C38.0667 451.064 38.6427 450.816 39.1067 450.32C39.5867 449.824 39.8267 449.136 39.8267 448.256ZM60.0752 448.112C60.0752 448.48 60.0512 448.848 60.0032 449.216H51.0992C51.1472 449.952 51.3472 450.504 51.6992 450.872C52.0672 451.224 52.5312 451.4 53.0912 451.4C53.8752 451.4 54.4352 451.048 54.7712 450.344H59.7872C59.5792 451.272 59.1712 452.104 58.5632 452.84C57.9712 453.56 57.2192 454.128 56.3072 454.544C55.3952 454.96 54.3872 455.168 53.2832 455.168C51.9552 455.168 50.7712 454.888 49.7312 454.328C48.7072 453.768 47.8992 452.968 47.3072 451.928C46.7312 450.888 46.4432 449.664 46.4432 448.256C46.4432 446.848 46.7312 445.632 47.3072 444.608C47.8832 443.568 48.6832 442.768 49.7072 442.208C50.7472 441.648 51.9392 441.368 53.2832 441.368C54.6112 441.368 55.7872 441.64 56.8112 442.184C57.8352 442.728 58.6352 443.512 59.2112 444.536C59.7872 445.544 60.0752 446.736 60.0752 448.112ZM55.2752 446.936C55.2752 446.36 55.0832 445.912 54.6992 445.592C54.3152 445.256 53.8352 445.088 53.2592 445.088C52.6832 445.088 52.2112 445.248 51.8432 445.568C51.4752 445.872 51.2352 446.328 51.1232 446.936H55.2752ZM73.4723 438.08V441.824H66.7043V444.8H71.6963V448.376H66.7043V455H62.0003V438.08H73.4723ZM81.7174 455.168C80.3734 455.168 79.1654 454.888 78.0934 454.328C77.0374 453.768 76.2054 452.968 75.5974 451.928C74.9894 450.888 74.6854 449.664 74.6854 448.256C74.6854 446.864 74.9894 445.648 75.5974 444.608C76.2214 443.568 77.0614 442.768 78.1174 442.208C79.1894 441.648 80.3974 441.368 81.7414 441.368C83.0854 441.368 84.2854 441.648 85.3414 442.208C86.4134 442.768 87.2534 443.568 87.8614 444.608C88.4854 445.648 88.7974 446.864 88.7974 448.256C88.7974 449.648 88.4854 450.872 87.8614 451.928C87.2534 452.968 86.4134 453.768 85.3414 454.328C84.2694 454.888 83.0614 455.168 81.7174 455.168ZM81.7174 451.088C82.3734 451.088 82.9174 450.848 83.3494 450.368C83.7974 449.872 84.0214 449.168 84.0214 448.256C84.0214 447.344 83.7974 446.648 83.3494 446.168C82.9174 445.688 82.3814 445.448 81.7414 445.448C81.1014 445.448 80.5654 445.688 80.1334 446.168C79.7014 446.648 79.4854 447.344 79.4854 448.256C79.4854 449.184 79.6934 449.888 80.1094 450.368C80.5254 450.848 81.0614 451.088 81.7174 451.088ZM95.4152 443.912C95.9432 443.144 96.5832 442.536 97.3352 442.088C98.0872 441.64 98.8952 441.416 99.7592 441.416V446.432H98.4392C97.4152 446.432 96.6552 446.632 96.1592 447.032C95.6632 447.432 95.4152 448.128 95.4152 449.12V455H90.7112V441.536H95.4152V443.912ZM121.342 441.536L117.91 455H112.63L110.758 446.84L108.814 455H103.558L100.15 441.536H104.83L106.342 450.464L108.334 441.536H113.374L115.438 450.488L116.926 441.536H121.342ZM121.912 448.256C121.912 446.864 122.16 445.648 122.656 444.608C123.168 443.568 123.856 442.768 124.72 442.208C125.6 441.648 126.576 441.368 127.648 441.368C128.576 441.368 129.376 441.552 130.048 441.92C130.72 442.288 131.24 442.784 131.608 443.408V441.536H136.312V455H131.608V453.128C131.24 453.752 130.712 454.248 130.024 454.616C129.352 454.984 128.56 455.168 127.648 455.168C126.576 455.168 125.6 454.888 124.72 454.328C123.856 453.768 123.168 452.968 122.656 451.928C122.16 450.872 121.912 449.648 121.912 448.256ZM131.608 448.256C131.608 447.392 131.368 446.712 130.888 446.216C130.424 445.72 129.848 445.472 129.16 445.472C128.456 445.472 127.872 445.72 127.408 446.216C126.944 446.696 126.712 447.376 126.712 448.256C126.712 449.12 126.944 449.808 127.408 450.32C127.872 450.816 128.456 451.064 129.16 451.064C129.848 451.064 130.424 450.816 130.888 450.32C131.368 449.824 131.608 449.136 131.608 448.256ZM143.696 443.912C144.224 443.144 144.864 442.536 145.616 442.088C146.368 441.64 147.176 441.416 148.04 441.416V446.432H146.72C145.696 446.432 144.936 446.632 144.44 447.032C143.944 447.432 143.696 448.128 143.696 449.12V455H138.992V441.536H143.696V443.912ZM148.959 448.256C148.959 446.864 149.207 445.648 149.703 444.608C150.215 443.568 150.911 442.768 151.791 442.208C152.671 441.648 153.647 441.368 154.719 441.368C155.583 441.368 156.351 441.552 157.023 441.92C157.711 442.272 158.247 442.76 158.631 443.384V437.24H163.359V455H158.631V453.128C158.263 453.752 157.743 454.248 157.071 454.616C156.399 454.984 155.607 455.168 154.695 455.168C153.623 455.168 152.647 454.888 151.767 454.328C150.903 453.768 150.215 452.968 149.703 451.928C149.207 450.872 148.959 449.648 148.959 448.256ZM158.655 448.256C158.655 447.392 158.415 446.712 157.935 446.216C157.471 445.72 156.895 445.472 156.207 445.472C155.503 445.472 154.919 445.72 154.455 446.216C153.991 446.696 153.759 447.376 153.759 448.256C153.759 449.12 153.991 449.808 154.455 450.32C154.919 450.816 155.503 451.064 156.207 451.064C156.895 451.064 157.471 450.816 157.935 450.32C158.415 449.824 158.655 449.136 158.655 448.256Z" fill="#008955"/>
<rect x="130" y="839" width="134" height="5" rx="2.5" fill="#141414"/>
</g>
<defs>
<clipPath id="clip0_28_3201">
<rect width="393" height="852" fill="white"/>
</clipPath>
</defs>
</svg>
