<svg width="393" height="852" viewBox="0 0 393 852" fill="none" xmlns="http://www.w3.org/2000/svg">
<g clip-path="url(#clip0_78_3546)">
<rect width="393" height="852" fill="white"/>
<g opacity="0.4">
<path d="M-11 74.4043V181.58L22.3071 95.8838L-11 74.4043Z" fill="#E0DBD5"/>
<path d="M-11 0.111328V48.3849L30.4468 75.0682L59.5437 0.111328H-11Z" fill="#E0DBD5"/>
<path d="M70.2095 0.111328L-11 208.928V217.785L72.4549 0.111328H70.2095Z" fill="#E0DBD5"/>
<path d="M144.589 0.111328C144.776 1.77212 144.87 3.32218 144.87 4.76153C144.87 8.30455 144.496 11.1832 143.56 13.7298C141.782 17.8264 141.689 18.8229 130.836 43.0704C128.965 47.2777 128.31 51.0422 128.31 54.6959C128.216 64.4392 133.83 73.2967 137.759 78.1684L154.226 39.9702L187.065 0.111328H144.589Z" fill="#E0DBD5"/>
<path d="M97.5288 0.110719L60.76 96.4364L115.212 130.317L134.298 86.1395C129.807 81.2679 121.199 70.0853 121.012 54.6953C121.012 49.7129 122.041 44.3984 124.38 39.0839C135.233 14.7257 135.14 14.3935 137.011 9.85401C137.104 9.74329 137.666 7.30747 137.572 4.65021C137.572 3.21086 137.479 1.55007 137.198 0H97.5288V0.110719Z" fill="#E0DBD5"/>
<path d="M324.784 307.023L276.881 250.889L246.381 360.944L360.991 357.511L324.784 307.023Z" fill="#E0DBD5"/>
<path d="M6.12109 239.817L47.1001 260.743L98.1835 139.062L54.7719 112.047L6.12109 239.817Z" fill="#E0DBD5"/>
<path d="M151.419 476.647C154.787 443.985 158.623 408.776 161.898 377.664L145.151 378.107L137.666 472.108L151.419 476.647Z" fill="#E0DBD5"/>
<path d="M141.034 331.827L145.057 272.371L135.514 254.877L125.503 260.856L-11 358.289V368.475L138.882 364.046L140.473 340.684L111.282 328.173L113.715 320.091L141.034 331.827Z" fill="#E0DBD5"/>
<path d="M3.12746 247.568L-11 284.77V326.954L38.0251 297.503L44.1064 268.494L3.12746 247.568Z" fill="#E0DBD5"/>
<path d="M330.118 301.155L334.515 307.355L356.408 250.556C354.162 249.006 351.823 247.235 349.297 245.353C337.696 236.274 324.504 224.316 318.142 210.476C314.306 202.061 306.354 185.786 297.559 167.96L277.818 181.468L274.356 173.939L294.097 160.542C292.226 156.777 290.355 152.902 288.484 149.138L233.564 188.222L268.93 229.631L292.413 201.84L297.559 207.93L274.169 235.609L286.425 249.892L303.453 230.959L308.412 237.159L291.571 255.871L330.118 301.155Z" fill="#E0DBD5"/>
<path d="M372.125 107.286L362.863 95.9922L294.658 144.487C296.529 148.362 298.494 152.238 300.365 156.113L372.125 107.286Z" fill="#E0DBD5"/>
<path d="M267.9 90.9004C270.988 97.1006 279.221 113.487 288.483 132.309L354.162 85.5858L313.277 36.2051L267.9 90.9004Z" fill="#E0DBD5"/>
<path d="M171.534 288.646L171.627 288.314C171.627 288.314 171.627 288.314 171.721 287.982C171.721 287.649 171.814 287.096 171.908 286.432C172.001 285.103 172.189 282.999 172.189 280.563C172.189 274.363 171.253 265.616 167.604 257.977C166.107 254.766 163.02 248.566 159.09 240.594L142.062 250.891L152.541 270.045L146.273 363.824L163.488 363.271C168.072 320.533 171.534 288.867 171.534 288.867V288.646Z" fill="#E0DBD5"/>
<path d="M304.108 25.1339L289.419 38.9738L250.124 0.111328H197.169L160.214 45.174L143.279 84.2579L224.582 177.816L282.308 136.739C273.888 119.799 266.403 104.852 262.755 97.4335L223.834 144.157L218.688 138.178L308.224 30.1162L304.108 25.1339Z" fill="#E0DBD5"/>
<path d="M370.909 250.338L386.908 207.601L381.388 206.383L365.764 247.017C366.606 247.57 367.354 248.013 368.103 248.456C369.132 249.231 370.067 249.785 370.909 250.338Z" fill="#E0DBD5"/>
<path d="M402.999 144.819L377.27 113.707L303.92 163.641C312.714 181.467 320.573 197.743 324.503 206.379C330.584 219.887 347.051 233.837 359.401 242.695L374.464 203.722L347.893 185.01L351.635 177.592L377.551 195.861L392.988 155.891L399.538 159.434L384.568 198.297L389.994 199.514L402.999 164.749V144.819Z" fill="#E0DBD5"/>
<path d="M403.001 185.898L391.867 215.46L403.001 221.329V185.898Z" fill="#E0DBD5"/>
<path d="M368.009 258.199C366.605 257.313 364.828 256.206 362.77 254.877L339.754 314.665L344.432 321.198L368.009 258.199Z" fill="#E0DBD5"/>
<path d="M272.952 500.228L281.372 451.401L262.567 448.855L253.024 486.721V486.831L246.1 484.396V484.174L257.14 439.444H257.327L266.964 401.356L266.403 374.784L265.841 374.673L260.976 374.784L258.544 399.917L249.375 436.676L242.451 434.24L251.433 398.145L253.678 374.894L199.414 376.444L191.742 485.392C211.203 489.267 235.715 493.917 259.105 497.682C263.596 498.457 268.274 499.343 272.952 500.228Z" fill="#E0DBD5"/>
<path d="M192.118 376.778L176.493 377.221C175.651 385.414 174.716 394.051 173.78 402.797C171.067 428.041 168.26 454.835 165.641 480.079C170.599 481.187 177.055 482.515 184.633 484.065L192.118 376.778Z" fill="#E0DBD5"/>
<path d="M119.702 248.343L151.512 225.646C146.74 216.124 141.501 205.717 136.449 195.641C125.689 174.162 115.585 154.232 112.31 147.921L104.638 143.16L53.7422 264.066L75.1673 275.027L119.702 248.343Z" fill="#E0DBD5"/>
<path d="M225.893 592.789L220.186 633.312L267.433 639.402L272.205 610.393L226.454 592.9L225.893 592.789Z" fill="#E0DBD5"/>
<path d="M270.426 650.588L265.842 681.7L282.87 691.443L302.143 642.284L306.54 644.72L287.267 693.879L302.985 702.958L321.416 654.684L325.813 657.009L307.289 705.394L336.011 721.891L338.818 629.33L278.472 602.425L270.426 650.588Z" fill="#E0DBD5"/>
<path d="M218.128 182.356L139.818 92.2305L121.668 134.304L122.697 134.968L123.726 137.072C123.726 137.182 148.426 185.788 165.454 219.89L218.128 182.356Z" fill="#E0DBD5"/>
<path d="M361.086 452.728L383.259 460.7L361.179 452.175L361.086 452.728Z" fill="#E0DBD5"/>
<path d="M326 5.20316C343.308 26.9041 362.02 46.6121 380.732 66.763L380.826 66.6523L327.029 2.5459C326.936 2.98878 326.842 3.32093 326.748 3.65309C326.561 4.20669 326.281 4.76028 326 5.20316Z" fill="#E0DBD5"/>
<path d="M165.827 655.238L163.488 715.469L175.745 675.721L213.73 697.865L219.53 663.099L167.137 646.602L165.827 655.238Z" fill="#E0DBD5"/>
<path d="M381.201 389.068L403.001 397.594V370.578L383.073 371.242L364.08 441.66L381.201 389.068Z" fill="#E0DBD5"/>
<path d="M402.999 538.871V513.184L398.321 511.412L402.999 494.362V476.868L358.839 460.924L347.238 503.994L340.315 501.337L340.689 499.898L354.068 450.185H354.161L375.399 371.353L348.361 372.128L320.106 492.369L313.089 490.044L340.782 372.46L302.797 373.567L294.751 430.587L287.641 429.148L295.406 373.788L273.7 374.453L274.262 402.575L264.719 440.552L290.073 444.095L280.156 501.669C326.187 511.302 380.358 528.685 402.999 538.871Z" fill="#E0DBD5"/>
<path d="M146.461 813.897L161.898 822.644V822.533L162.085 822.201C164.424 817.219 167.044 813.344 169.851 810.243L148.893 801.939L146.461 813.897Z" fill="#E0DBD5"/>
<path d="M238.711 361.167L271.082 244.247L227.016 192.763L171.535 232.179C175.465 240.04 178.552 246.351 180.143 249.672C185.475 260.966 186.505 272.591 186.505 280.563C186.505 286.21 185.943 290.085 185.756 291.303C185.663 292.299 185.101 296.949 184.353 304.368L203.813 313.336L200.351 362.163L238.711 361.167Z" fill="#E0DBD5"/>
<path d="M403.001 230.627L388.967 223.319L349.578 328.392L370.348 357.29L390.37 356.625L390.838 338.246L398.323 314.109L403.001 316.102V230.627Z" fill="#E0DBD5"/>
<path d="M46.6328 292.298L66.8416 280.119L50.843 272.036L46.6328 292.298Z" fill="#E0DBD5"/>
<path d="M178.084 362.939L193.147 362.496L196.234 319.094L183.51 313.226C182.107 325.848 180.236 343.12 178.084 362.939Z" fill="#E0DBD5"/>
<path d="M403.001 658.006L343.59 631.544L338.164 811.241L347.146 815.227L370.161 737.281L376.991 740.16L353.976 818.106L363.612 822.313L403.001 681.368V658.006Z" fill="#E0DBD5"/>
<path d="M322.258 852.536L382.604 877.559L393.737 847.554L334.514 821.867L322.258 852.536Z" fill="#E0DBD5"/>
<path d="M403 851.653L400.567 850.546L389.527 880.44L403 886.087V851.653Z" fill="#E0DBD5"/>
<path d="M249.094 843.682L245.352 856.414L305.042 882.323L315.615 855.861L305.51 851.543L300.271 864.497L249.094 843.682Z" fill="#E0DBD5"/>
<path d="M152.635 784.999L160.962 753.776L159.371 753.223L152.635 784.999Z" fill="#E0DBD5"/>
<path d="M269.958 736.615L257.983 730.193L241.891 771.492L259.76 779.131L269.958 736.615Z" fill="#E0DBD5"/>
<path d="M176.96 743.813L191.929 691.553L178.457 683.692L164.049 730.194L162.926 729.641L162.645 738.166L161.148 744.92L163.207 745.584L165.078 738.72L176.96 743.813Z" fill="#E0DBD5"/>
<path d="M160.494 831.389L145.244 822.753L140.379 877.67L169.102 894.167L178.177 871.802L182.574 874.237L173.499 896.603L220.279 923.507L239.271 859.733L216.63 849.879L218.314 844.565L240.955 854.419L244.698 841.797L222.243 832.607L206.993 876.673L198.947 909.889L194.269 908.339L201.567 878.113C183.697 874.459 172.938 869.698 166.388 864.494C159.559 859.069 157.407 852.869 157.5 848.218C157.5 844.897 158.436 842.572 158.904 841.575L160.494 831.389Z" fill="#E0DBD5"/>
<path d="M105.201 499.567C74.981 493.145 46.9132 479.637 17.0678 471.998C7.71186 469.562 -1.64407 467.458 -11 465.354V525.032C4.62441 531.232 17.7227 542.083 17.7227 542.083C32.0373 589.471 13.3254 611.282 -11 618.258V706.833L102.675 723.552L102.487 725.323C109.692 706.058 114.089 694.432 114.089 694.432C114.089 694.432 115.399 690.889 117.55 684.136C119.702 677.492 122.696 667.749 125.877 655.902C132.239 632.208 139.35 599.878 142.437 565.445C143.747 551.273 145.712 531.675 147.957 509.31C133.736 505.988 119.515 502.556 105.201 499.567Z" fill="#E0DBD5"/>
<path d="M48.3175 724.104L46.0721 797.29H45.043L72.9236 804.819C83.4023 776.585 92.8518 751.12 100.056 731.855L48.3175 724.104Z" fill="#E0DBD5"/>
<path d="M176.212 584.599L167.885 640.955L227.856 659.777L261.351 679.042L265.748 649.591L266.496 645.051L214.571 638.408L221.12 592.017L204.092 589.249L196.42 631.654L191.649 630.436L199.321 588.363L176.212 584.599Z" fill="#E0DBD5"/>
<path d="M-11 382.757V424.276L130.555 469.893L137.853 378.438L-11 382.757Z" fill="#E0DBD5"/>
<path d="M83.1207 0.111328L-11 245.465V256.98L86.8631 0.111328H83.1207Z" fill="#E0DBD5"/>
<path d="M-11 433.134V452.51C4.81153 456.163 20.7166 459.374 36.341 463.914C64.6895 472.107 91.541 484.397 120.357 490.376C129.994 492.369 139.631 494.583 149.267 496.687C149.641 492.922 150.016 489.047 150.483 485.172L-11 433.134Z" fill="#E0DBD5"/>
<path d="M130.182 945.1L130.369 937.904L72.1748 902.252L74.4202 897.159L130.836 931.703L140.567 820.541L88.1734 806.369C83.4019 819.323 78.3497 832.831 73.2039 846.782C62.5382 875.569 51.4982 905.795 41.0195 934.471L56.3633 945.211H130.182V945.1Z" fill="#E0DBD5"/>
<path d="M317.675 850.656L331.802 815.225L321.604 811.461L307.57 846.337L317.675 850.656Z" fill="#E0DBD5"/>
<path d="M259.48 724.656L271.456 731.188L281.093 696.755L265 687.454L259.48 724.656Z" fill="#E0DBD5"/>
<path d="M224.208 664.535L218.221 700.519L254.99 722.109L260.51 684.908L226.173 665.2L224.208 664.535Z" fill="#E0DBD5"/>
<path d="M163.3 843.681L163.02 844.124C163.02 844.124 163.02 844.124 162.926 844.235C162.833 844.456 162.739 844.678 162.646 845.01C162.365 845.785 162.178 846.782 162.178 848.11C162.271 850.878 163.113 854.864 169.008 859.736C174.715 864.275 185.006 869.147 203.063 872.69L207.928 858.739L206.993 860.621L168.353 843.46L171.721 816.112C169.943 818.327 168.166 821.095 166.575 824.416L163.3 843.681Z" fill="#E0DBD5"/>
<path d="M253.68 727.647L217.192 706.389L208.771 757.43L237.307 769.609L253.68 727.647Z" fill="#E0DBD5"/>
<path d="M212.794 703.732L196.234 694.1L181.451 745.805L204.186 755.438L212.794 703.732Z" fill="#E0DBD5"/>
<path d="M334.515 771.824L274.45 739.051L264.252 781.013L277.444 786.66L333.486 806.811L334.515 771.824Z" fill="#E0DBD5"/>
<path d="M335.824 726.982L335.45 727.979L305.511 710.817L295.406 744.255L334.701 765.623L335.824 726.982Z" fill="#E0DBD5"/>
<path d="M275.854 733.515L291.01 741.819L301.208 708.271L285.49 699.303L275.854 733.515Z" fill="#E0DBD5"/>
<path d="M49.9071 867.041C56.7369 848.551 63.4732 830.172 69.9288 812.789L-11 790.866V859.623L22.12 875.345L19.4068 883.317L-11 868.812V879.552L36.341 903.91C39.8963 894.278 43.4515 884.535 47.0068 874.902L9.39593 852.315L12.6705 844.676L49.9071 867.041Z" fill="#E0DBD5"/>
<path d="M189.31 517.722C180.328 516.172 171.346 514.289 162.365 512.407C160.119 534.219 158.248 553.373 156.938 567.213C150.295 639.291 127.56 700.741 127.373 701.183C127.373 701.183 123.444 711.591 116.988 728.974L156.564 743.146L157.78 737.278L160.961 654.46L179.486 527.576L184.257 528.572L176.96 578.839L200.35 582.714L200.443 581.939L206.057 530.565L210.828 531.34L205.215 582.825L205.121 583.6L221.868 586.368L228.698 538.205L233.47 539.091L226.733 587.143L227.575 587.253L273.139 604.636L282.588 547.505L287.36 548.612L279.407 596.554L339.098 623.237L344.992 558.356C324.784 552.266 305.043 544.516 284.834 537.873C253.398 527.686 221.4 523.368 189.31 517.722Z" fill="#E0DBD5"/>
<path d="M403 572.308C392.147 569.872 381.295 567.436 370.442 565.111C363.425 563.672 356.501 561.79 349.672 559.797L343.777 625.011V625.343L403 651.805V572.308Z" fill="#E0DBD5"/>
<path d="M403 708.713L370.441 825.3L397.199 836.926L403 817.882V708.713Z" fill="#E0DBD5"/>
<path d="M403 548.059C402.533 547.837 402.065 547.616 401.597 547.394C377.365 536.212 307.196 513.957 258.171 506.207C222.15 500.449 183.417 492.478 164.798 488.603C164.424 492.478 164.05 496.242 163.582 500.007C180.61 503.771 197.638 507.425 214.759 510.193C243.388 514.732 272.204 519.382 299.992 528.904C330.118 539.201 359.402 550.384 390.37 557.027C394.58 557.913 398.79 558.909 403 559.795V548.059Z" fill="#E0DBD5"/>
<path d="M348.922 0.111328H348.267L346.021 4.98297L391.398 59.1247L402.999 51.0422V37.4237L388.404 46.8348L348.922 0.111328Z" fill="#E0DBD5"/>
<path d="M-11 715.469V782.011L38.8671 795.519L41.1125 723.108L-11 715.469Z" fill="#E0DBD5"/>
<path d="M111.094 744.807C105.481 759.976 98.6508 778.244 91.166 798.395L141.875 812.124L154.786 751.672L113.994 737.057C113.059 739.492 112.123 742.039 111.094 744.807Z" fill="#E0DBD5"/>
<path d="M250.125 0.111328L289.42 38.9738L304.109 25.1339L283.339 0.111328H250.125Z" fill="#DCD8BA"/>
<path d="M348.922 0.111328L388.404 46.8348L402.999 37.4237V3.10075L401.128 0.111328H348.922Z" fill="#CCC2B8"/>
<path d="M264.064 781.897L277.443 786.658L264.252 781.012L264.064 781.897Z" fill="#CCC2B8"/>
<path d="M148.986 801.938L169.944 810.242C176.68 802.935 184.539 800.499 191.369 800.61C201.847 800.61 210.361 805.703 211.858 806.588L250.124 822.532L257.609 788.541L160.962 753.775L152.542 784.887L148.986 801.938Z" fill="#CCC2B8"/>
<path d="M249.096 843.68L300.273 864.495L305.512 851.541L253.212 829.84L249.096 843.68Z" fill="#CCC2B8"/>
<path d="M237.306 769.609L208.77 757.43L208.021 761.748L236.37 771.934L237.306 769.609Z" fill="#CCC2B8"/>
<path d="M307.57 846.337L321.604 811.46L262.287 790.202L254.709 824.414L307.57 846.337Z" fill="#CCC2B8"/>
<path d="M259.761 779.13L241.891 771.49L241.049 773.594L259.48 780.237L259.761 779.13Z" fill="#CCC2B8"/>
<path d="M176.96 743.81L165.078 738.717L163.207 745.581L175.183 749.899L176.96 743.81Z" fill="#CCC2B8"/>
<path d="M248.721 827.959L226.735 818.77L226.828 818.88L222.057 832.72L244.511 841.799L248.721 827.959Z" fill="#CCC2B8"/>
<path d="M206.9 860.732L207.836 858.849L222.337 816.998L209.987 811.905L209.8 811.683C209.8 811.683 207.742 810.354 204.374 809.026C201.006 807.586 196.328 806.258 191.369 806.258C184.82 806.369 177.803 808.472 171.722 816.223L168.354 843.57L206.9 860.732Z" fill="#CCC2B8"/>
<path d="M204.187 755.435L181.452 745.803L179.861 751.56L203.438 760.086L204.187 755.435Z" fill="#CCC2B8"/>
<path d="M403.001 397.593L381.201 389.067L364.08 441.659L361.18 452.177L383.26 460.703L403.001 467.899V397.593Z" fill="#B4CD9B"/>
<path d="M17.7227 541.97C17.7227 541.97 4.53085 531.119 -11 524.919V618.145C13.3254 611.28 32.0373 589.468 17.7227 541.97Z" fill="#B4CD9B"/>
<path d="M120.451 490.486C91.5412 484.507 64.7832 472.107 36.4348 464.024C20.7168 459.485 4.90528 456.274 -10.9062 452.62V465.353C-1.55032 467.456 7.80561 469.56 17.1615 471.996C47.007 479.746 75.0748 493.143 105.294 499.565C119.609 502.665 133.83 505.987 148.145 509.308C148.519 505.212 148.987 501.115 149.454 496.797C139.631 494.583 130.088 492.479 120.451 490.486Z" fill="#8BBBB9"/>
<path d="M403 93.448L389.434 77.0615L373.436 88.4656L403 124.339V93.448Z" fill="#8095B2"/>
<path d="M326 5.20441C326.375 4.76153 326.655 4.20794 326.749 3.76506C326.842 3.32219 326.936 2.99003 327.029 2.65787L324.971 0.111328H300.271L364.734 78.0576L380.639 66.7643C361.927 46.7241 343.215 26.9054 326 5.20441Z" fill="#8BBBB9"/>
<path d="M403 559.906C398.789 559.02 394.579 558.023 390.369 557.138C359.401 550.494 330.21 539.312 299.991 529.015C272.204 519.493 243.387 514.843 214.758 510.303C197.543 507.535 180.516 503.992 163.581 500.117C163.114 504.325 162.739 508.532 162.271 512.518C171.253 514.511 180.235 516.282 189.217 517.832C221.307 523.368 253.398 527.797 284.741 538.094C304.949 544.737 324.69 552.377 344.899 558.577L344.993 558.023L349.764 558.577L349.671 560.016C356.501 562.009 363.424 563.781 370.441 565.331C381.294 567.656 392.147 570.092 403 572.528V559.906Z" fill="#8BBBB9"/>
<path d="M72.4549 0.111328L-11 217.785V245.465L83.1207 0.111328H72.4549Z" fill="white"/>
<path d="M346.022 4.98297L348.268 0.111328H324.972L327.03 2.54715L380.733 66.6536L380.639 66.7643L364.734 78.0576L300.272 0.111328H283.338L304.108 25.1339L308.224 30.1162L218.688 138.178L223.834 144.157L262.755 97.4335C266.403 104.741 273.888 119.799 282.308 136.739L224.582 177.816L143.279 84.2579L160.214 45.174L197.169 0.111328H187.065L154.226 40.081L137.759 78.2791C133.83 73.4074 128.123 64.5499 128.31 54.8066C128.31 51.1529 128.965 47.3884 130.836 43.1811C141.689 18.9336 141.782 17.9371 143.56 13.8405C144.589 11.294 144.87 8.41527 144.87 4.87225C144.87 3.32219 144.776 1.77212 144.589 0.222047H137.292C137.572 1.77212 137.666 3.4329 137.666 4.87225C137.666 7.4188 137.198 9.85462 137.104 10.0761C135.233 14.5048 135.327 14.9477 124.474 39.3059C122.041 44.6204 121.106 49.935 121.106 54.9173C121.293 70.3073 129.9 81.4899 134.391 86.3616L115.305 130.539L60.76 96.437L97.5288 0.111328H86.9566L-11 256.98V284.77L3.12746 247.569L44.1064 268.495L38.0251 297.392L-11 326.954V358.177L125.503 260.744L135.42 254.766L144.963 272.259L141.034 331.715L113.715 320.09L111.282 328.172L140.473 340.684L138.882 364.045L-11 368.474V382.757L137.853 378.328L130.555 469.782L-11 424.277V433.134L150.483 485.172C150.109 489.047 149.641 492.923 149.267 496.687C148.799 500.894 148.425 505.102 147.957 509.198C145.712 531.453 143.747 551.161 142.437 565.333C139.256 599.767 132.146 632.207 125.877 655.79C122.696 667.637 119.702 677.27 117.551 684.024C115.399 690.667 114.089 694.321 114.089 694.321C114.089 694.321 109.692 706.057 102.487 725.211L102.675 723.44L-11 706.832V715.468L41.1125 723.108L38.9607 795.518L-11 782.01V790.757L70.0224 812.79C63.5668 830.173 56.8305 848.553 50.0007 867.043L12.7641 844.788L9.48949 852.428L47.0068 874.904C43.4515 884.536 39.8963 894.28 36.341 903.912L-11 879.554V888.854L5.18576 897.158L-4.91864 926.942L1.81763 930.153L11.922 900.701L33.5342 911.884C29.4176 923.177 25.301 934.36 21.3715 945.21H37.1831C37.5573 944.325 37.838 943.328 38.2122 942.442L42.2353 945.21H56.3627L41.019 934.471C51.4976 905.794 62.6312 875.568 73.2034 846.781C78.3492 832.83 83.4014 819.323 88.1729 806.369L140.566 820.541L130.836 931.813L74.4197 897.269L72.1742 902.362L130.368 938.014L130.181 945.21H135.046L135.14 941.003L142.063 945.21H152.542L135.327 934.692L139.818 883.761L218.595 929.045L213.823 945.1H218.969L222.992 931.481L246.569 945.1H257.609L224.582 926.056L243.668 861.728L302.985 887.415L281.279 944.989H286.612L294.939 922.956L298.494 925.06L331.801 944.878H342.654L300.553 920.077L296.904 917.863L307.663 889.408L369.693 912.659L357.624 945.1H365.576L376.616 915.206L390.837 920.52C389.34 928.049 387.188 936.353 384.569 944.989H392.241C394.486 937.349 396.357 929.931 397.761 923.067L403 925.06V919.081L378.581 909.891L387.563 885.643L403 892.065V885.976L389.527 880.329L400.567 850.435L403 851.542V817.773L397.199 836.816L370.348 825.191L403 708.714V681.367L363.612 822.312L353.975 818.105L376.991 740.159L370.161 737.391L347.239 815.226L338.257 811.351L343.683 631.543L403.094 658.116V652.026L343.871 625.564V625.232L349.765 560.018L349.858 558.579L345.087 558.025L344.993 558.579L339.099 623.46L279.408 596.777L287.361 548.836L282.589 547.729L273.14 604.86L227.576 587.366L226.734 587.255L233.471 539.203L228.699 538.317L221.869 586.48L205.122 583.602L205.216 582.937L210.829 531.453L206.058 530.678L200.444 582.051L200.351 582.826L176.961 578.951L184.258 528.685L179.487 527.688L160.962 654.573L157.781 737.391L156.565 743.259L116.989 729.087C123.445 711.814 127.374 701.296 127.374 701.296C127.561 700.853 150.296 639.293 156.939 567.326C158.249 553.486 160.12 534.331 162.365 512.52C162.74 508.423 163.207 504.327 163.675 500.119C164.049 496.355 164.424 492.59 164.892 488.715C183.51 492.701 222.337 500.673 258.264 506.32C307.289 514.07 377.458 536.324 401.69 547.507C402.158 547.729 402.626 547.95 403.094 548.171V538.982C380.452 528.796 326.281 511.413 280.25 501.78L290.261 444.095L264.906 440.552L274.449 402.576L273.888 374.453L295.594 373.789L287.828 429.148L294.939 430.588L302.985 373.567L340.97 372.46L313.277 490.155L320.294 492.48L348.548 372.239L375.587 371.464L354.349 450.296H354.256L340.877 500.009L340.502 501.448L347.426 504.105L359.027 461.035L403.187 476.979V468.011L383.446 460.925L361.273 452.953L361.46 452.399L364.266 441.881L383.259 371.353L403.187 370.799V356.516L397.854 356.627L398.322 340.13L399.819 335.258L403.187 336.033V327.287L402.252 327.065L403.187 324.186V316.325L398.509 314.332L391.024 338.58L390.37 356.627L370.348 357.181L349.671 328.283L389.06 223.211L403.094 230.518V221.107L392.054 215.349L403.094 185.787V164.64L390.089 199.406L384.662 198.188L399.632 159.326L393.083 155.783L377.645 195.752L351.73 177.483L347.987 184.902L374.558 203.613L359.495 242.697C347.145 233.84 330.679 219.778 324.597 206.381C320.668 197.856 312.715 181.469 304.014 163.644L377.365 113.709L403 144.821V124.338L373.435 88.4653L389.434 77.0612L402.906 93.3369V72.9646L400.1 69.5323L402.906 67.5393V51.0422L391.305 59.1247L346.022 4.98297ZM72.9227 804.708L45.042 797.179H46.0712L48.3166 724.104L100.055 731.744C92.8508 751.12 83.4014 776.474 72.9227 804.708ZM240.768 854.421L218.127 844.567L216.443 849.881L239.084 859.735L220.092 923.509L173.312 896.605L182.387 874.239L177.99 871.804L168.915 894.169L140.192 877.672L145.057 822.755L160.307 831.391L158.623 841.577C158.155 842.574 157.22 845.01 157.22 848.22C157.126 852.871 159.278 859.182 166.108 864.496C172.657 869.7 183.323 874.572 201.286 878.115L193.988 908.341L198.666 909.891L206.713 876.675L221.963 832.609L226.734 818.769L226.547 818.658L248.534 827.848L244.417 841.688L240.768 854.421ZM162.178 848.22C162.178 846.892 162.459 845.895 162.646 845.12C162.74 844.788 162.833 844.456 162.927 844.345C163.02 844.235 163.02 844.235 163.02 844.235L163.301 843.792L166.576 824.637C168.166 821.316 169.944 818.548 171.721 816.333C177.803 808.583 184.82 806.479 191.369 806.369C196.327 806.369 201.005 807.697 204.374 809.137C207.742 810.465 209.8 811.904 209.8 811.794L209.987 811.905L222.337 816.998L207.835 858.849L202.97 872.8C185.007 869.257 174.622 864.385 168.915 859.846C163.114 855.085 162.178 850.988 162.178 848.22ZM305.043 882.322L245.353 856.414L249.095 843.681L253.212 829.841L305.418 851.542L315.616 855.749L305.043 882.322ZM208.771 757.431L217.191 706.389L253.586 727.758L237.306 769.61L236.371 771.935L208.022 761.749L208.771 757.431ZM204.186 755.438L203.438 760.088L179.861 751.563L181.545 745.694L196.327 693.989L212.794 703.621L204.186 755.438ZM295.407 744.255L305.511 710.818L335.45 727.979L335.824 726.983L334.702 765.513L295.407 744.255ZM334.515 771.824L333.485 806.811L277.537 786.661L264.158 781.9L264.345 781.125L274.449 739.162L334.515 771.824ZM291.009 741.819L275.853 733.515L285.49 699.192L301.114 708.161L291.009 741.819ZM271.456 731.19L259.574 724.658L265.094 687.456L281.186 696.757L271.456 731.19ZM254.989 722.111L218.22 700.521L224.208 664.537L226.266 665.202L260.603 684.91L254.989 722.111ZM241.891 771.492L257.983 730.083L269.959 736.615L259.667 779.021L259.386 780.128L240.955 773.485L241.891 771.492ZM262.287 790.204L321.603 811.572L331.801 815.226L317.674 850.656L307.569 846.449L254.708 824.416L262.287 790.204ZM371.658 907.344L309.721 884.094L320.294 857.632L380.733 882.765L371.658 907.344ZM393.738 847.556L382.604 877.561L322.258 852.428L334.421 821.758L393.738 847.556ZM278.473 602.424L338.818 629.329L336.012 721.89L307.289 705.393L325.814 657.008L321.416 654.683L302.985 702.957L287.267 693.878L306.54 644.608L302.143 642.172L282.87 691.331L265.842 681.588L270.426 650.587L278.473 602.424ZM225.892 592.791L226.547 592.902L272.298 610.396L267.433 639.515L220.185 633.425L225.892 592.791ZM176.212 584.598L199.415 588.473L191.743 630.547L196.421 631.764L204.186 589.248L221.121 592.127L214.572 638.518L266.497 645.272L265.748 649.812L261.351 679.263L227.857 659.998L167.885 641.065L176.212 584.598ZM165.827 655.237L167.137 646.601L219.53 663.098L213.729 697.864L175.838 675.609L163.582 715.357L165.827 655.237ZM162.646 738.166L163.02 729.64L164.143 730.083L178.551 683.581L191.93 691.442L176.961 743.701L175.183 749.791L163.207 745.473L161.149 744.698L162.646 738.166ZM159.372 753.223L160.962 753.777L257.609 788.543L250.124 822.534L211.858 806.59C210.361 805.704 201.847 800.611 191.369 800.611C184.445 800.5 176.68 802.936 169.944 810.244C167.137 813.344 164.424 817.219 162.178 822.201L161.991 822.534V822.644L146.554 813.897L149.08 801.94L152.729 785L159.372 753.223ZM154.787 751.563L141.876 812.015L91.1668 798.397C98.6515 778.246 105.481 759.977 111.095 744.809C112.124 742.041 113.06 739.494 113.995 736.948L154.787 751.563ZM267.9 90.9011L313.277 36.2058L354.162 85.5865L288.483 132.31C279.127 113.488 270.988 97.1013 267.9 90.9011ZM227.015 192.652L271.081 244.136L238.71 361.056L200.444 362.163L203.906 313.336L184.445 304.368C185.287 296.949 185.755 292.299 185.849 291.303C186.036 290.085 186.597 286.099 186.597 280.563C186.597 272.481 185.568 260.966 180.235 249.672C178.645 246.351 175.557 240.04 171.628 232.179L227.015 192.652ZM196.234 319.093L193.146 362.495L178.083 362.938C180.235 343.119 182.106 325.847 183.51 313.225L196.234 319.093ZM139.818 92.2297L218.127 182.355L165.453 219.889C148.425 185.787 123.725 137.071 123.725 137.071L122.696 134.967L121.667 134.303L139.818 92.2297ZM6.12136 239.818L54.7722 112.159L98.1837 139.175L47.1003 260.744L6.12136 239.818ZM46.6325 292.299L50.9363 271.927L66.8414 280.12L46.6325 292.299ZM119.702 248.344L75.1681 275.138L53.743 264.177L104.639 143.161L112.311 147.921C115.492 154.232 125.597 174.162 136.45 195.641C141.502 205.717 146.741 216.124 151.513 225.646L119.702 248.344ZM151.419 476.647L137.666 472.218L145.151 378.217L161.898 377.775C158.529 408.776 154.787 443.985 151.419 476.647ZM163.395 363.381L146.18 363.935L152.448 270.155L141.969 251.001L158.997 240.704C162.927 248.565 166.014 254.876 167.511 258.087C171.16 265.837 172.096 274.474 172.096 280.674C172.096 283.11 172.002 285.213 171.815 286.542C171.721 287.206 171.721 287.76 171.628 288.092C171.628 288.424 171.534 288.424 171.534 288.424L171.441 288.756V289.088C171.534 288.978 167.979 320.643 163.395 363.381ZM165.64 480.079C168.26 454.835 171.066 428.041 173.78 402.797C174.715 394.05 175.651 385.525 176.493 377.221L192.117 376.778L184.539 484.065C177.054 482.515 170.599 481.186 165.64 480.079ZM257.422 439.445H257.235L246.195 484.176V484.397L253.118 486.833V486.722L262.661 448.856L281.466 451.403L273.046 500.23C268.275 499.344 263.597 498.458 259.199 497.794C235.903 494.14 211.297 489.379 191.837 485.504L199.508 376.557L253.773 375.007L251.527 398.258L242.546 434.352L249.469 436.788L258.638 400.029L261.07 374.896L265.936 374.785L266.497 374.896L267.058 401.468L257.422 439.445ZM360.992 357.513L246.382 360.945L276.788 251.001L324.784 307.136L360.992 357.513ZM381.481 206.27L387.001 207.488L370.909 250.337C370.067 249.783 369.132 249.23 368.009 248.565C367.26 248.122 366.512 247.569 365.67 247.126L381.481 206.27ZM362.77 254.766C364.828 256.094 366.605 257.312 368.009 258.087L344.432 320.976L339.754 314.443L362.77 254.766ZM318.235 210.367C324.597 224.096 337.789 236.165 349.391 245.244C351.823 247.126 354.256 248.897 356.501 250.447L334.608 307.246L330.211 301.046L291.384 255.873L308.224 237.161L303.266 230.961L286.238 249.894L273.982 235.611L297.372 207.931L292.226 201.842L268.742 229.632L233.377 188.223L288.296 149.139C290.167 152.904 292.039 156.779 293.91 160.543L274.356 173.94L278.005 181.359L297.746 167.851C306.447 185.677 314.399 201.952 318.235 210.367ZM300.365 156.225C298.494 152.35 296.53 148.475 294.658 144.6L362.863 96.1049L372.125 107.398L300.365 156.225Z" fill="white"/>
<path d="M59.5437 0.111328L30.4468 75.0682L-11 48.3849V74.4039L22.3071 95.8834L-11 181.58V208.928L70.2095 0.111328H59.5437Z" fill="white"/>
</g>
<path opacity="0.35" d="M357.001 20.5029H373.667C374.864 20.5029 375.834 21.4733 375.834 22.6699V28.6699C375.834 29.8664 374.864 30.8359 373.667 30.8359H357.001C355.804 30.8359 354.834 29.8664 354.834 28.6699V22.6699L354.845 22.4482C354.956 21.3556 355.879 20.5029 357.001 20.5029Z" stroke="#414141"/>
<path opacity="0.4" d="M377.334 23.6699V27.6699C378.139 27.3311 378.662 26.5431 378.662 25.6699C378.662 24.7968 378.139 24.0087 377.334 23.6699Z" fill="#414141"/>
<path d="M356.334 23.3363C356.334 22.5999 356.931 22.0029 357.667 22.0029H373.001C373.737 22.0029 374.334 22.5999 374.334 23.3363V28.0029C374.334 28.7393 373.737 29.3363 373.001 29.3363H357.667C356.931 29.3363 356.334 28.7393 356.334 28.0029V23.3363Z" fill="#414141"/>
<path fill-rule="evenodd" clip-rule="evenodd" d="M341.664 22.2773C343.88 22.2774 346.011 23.1289 347.617 24.6557C347.738 24.7735 347.931 24.772 348.05 24.6523L349.206 23.4857C349.267 23.4249 349.3 23.3427 349.3 23.2571C349.299 23.1715 349.265 23.0897 349.204 23.0297C344.989 18.9901 338.339 18.9901 334.124 23.0297C334.063 23.0896 334.028 23.1715 334.027 23.257C334.027 23.3426 334.06 23.4249 334.121 23.4857L335.277 24.6523C335.396 24.7722 335.589 24.7737 335.71 24.6557C337.316 23.1288 339.448 22.2773 341.664 22.2773ZM341.665 26.073C342.882 26.0729 344.056 26.5255 344.959 27.3427C345.081 27.4587 345.273 27.4562 345.392 27.337L346.547 26.1704C346.608 26.1092 346.641 26.0261 346.64 25.9399C346.64 25.8536 346.604 25.7713 346.542 25.7114C343.794 23.155 339.538 23.155 336.79 25.7114C336.728 25.7713 336.692 25.8537 336.691 25.9399C336.691 26.0262 336.724 26.1092 336.785 26.1704L337.94 27.337C338.059 27.4562 338.251 27.4587 338.373 27.3427C339.275 26.526 340.448 26.0735 341.665 26.073ZM343.978 28.6268C343.98 28.7133 343.946 28.7967 343.884 28.8573L341.886 30.873C341.828 30.9323 341.748 30.9656 341.665 30.9656C341.582 30.9656 341.502 30.9323 341.443 30.873L339.445 28.8573C339.384 28.7967 339.35 28.7133 339.352 28.6268C339.353 28.5403 339.391 28.4583 339.455 28.4003C340.731 27.3215 342.599 27.3215 343.874 28.4003C343.939 28.4584 343.976 28.5403 343.978 28.6268Z" fill="#414141"/>
<path fill-rule="evenodd" clip-rule="evenodd" d="M328 20.3359H327C326.448 20.3359 326 20.7837 326 21.3359V30.0026C326 30.5549 326.448 31.0026 327 31.0026H328C328.552 31.0026 329 30.5549 329 30.0026V21.3359C329 20.7837 328.552 20.3359 328 20.3359ZM322.334 22.6693H323.334C323.886 22.6693 324.334 23.117 324.334 23.6693V30.0026C324.334 30.5549 323.886 31.0026 323.334 31.0026H322.334C321.782 31.0026 321.334 30.5549 321.334 30.0026V23.6693C321.334 23.117 321.782 22.6693 322.334 22.6693ZM318.666 25.0026H317.666C317.114 25.0026 316.666 25.4503 316.666 26.0026V30.0026C316.666 30.5548 317.114 31.0026 317.666 31.0026H318.666C319.218 31.0026 319.666 30.5548 319.666 30.0026V26.0026C319.666 25.4503 319.218 25.0026 318.666 25.0026ZM314 27.0026H313C312.448 27.0026 312 27.4503 312 28.0026V30.0026C312 30.5549 312.448 31.0026 313 31.0026H314C314.552 31.0026 315 30.5549 315 30.0026V28.0026C315 27.4503 314.552 27.0026 314 27.0026Z" fill="#414141"/>
<path d="M19.3203 32.2568C22.0083 32.2568 23.605 30.1548 23.605 26.5952C23.605 25.2549 23.3486 24.127 22.8579 23.2554C22.1475 21.9004 20.9243 21.168 19.3789 21.168C17.0791 21.168 15.4531 22.7134 15.4531 24.8813C15.4531 26.9175 16.918 28.397 18.9321 28.397C20.1699 28.397 21.1733 27.8184 21.6714 26.8149H21.6934C21.6934 26.8149 21.7227 26.8149 21.73 26.8149C21.7446 26.8149 21.7959 26.8149 21.7959 26.8149C21.7959 29.2319 20.8804 30.6748 19.335 30.6748C18.4268 30.6748 17.7236 30.1768 17.4819 29.3784H15.5996C15.9146 31.1143 17.3867 32.2568 19.3203 32.2568ZM19.3862 26.8955C18.1704 26.8955 17.3062 26.0312 17.3062 24.8228C17.3062 23.6436 18.2144 22.7427 19.3936 22.7427C20.5728 22.7427 21.481 23.6582 21.481 24.8521C21.481 26.0312 20.5947 26.8955 19.3862 26.8955Z" fill="#414141"/>
<path d="M26.6961 32.1543C27.3919 32.1543 27.868 31.6562 27.868 30.9971C27.868 30.3306 27.3919 29.8398 26.6961 29.8398C26.0076 29.8398 25.5242 30.3306 25.5242 30.9971C25.5242 31.6562 26.0076 32.1543 26.6961 32.1543ZM26.6961 26.6611C27.3919 26.6611 27.868 26.1704 27.868 25.5112C27.868 24.8447 27.3919 24.354 26.6961 24.354C26.0076 24.354 25.5242 24.8447 25.5242 25.5112C25.5242 26.1704 26.0076 26.6611 26.6961 26.6611Z" fill="#414141"/>
<path d="M34.7237 32.0005H36.5328V30.0303H37.961V28.4336H36.5328V21.4316H33.8668C31.9991 24.2441 30.5123 26.5952 29.5602 28.3457V30.0303H34.7237V32.0005ZM31.3106 28.3677C32.5411 26.1997 33.6397 24.4639 34.6505 22.9697H34.753V28.4775H31.3106V28.3677Z" fill="#414141"/>
<path d="M41.9896 32.0005H43.8793V21.4316H41.997L39.2357 23.3652V25.1816L41.8651 23.3359H41.9896V32.0005Z" fill="#414141"/>
<rect x="15" y="60" width="34" height="34" rx="4" fill="#8AD4B5"/>
<path d="M24.8 71.5996H39.2" stroke="#414141" stroke-width="2" stroke-linecap="round" stroke-linejoin="round"/>
<path d="M24.8 77H39.2" stroke="#414141" stroke-width="2" stroke-linecap="round" stroke-linejoin="round"/>
<path d="M24.8 82.3994H39.2" stroke="#414141" stroke-width="2" stroke-linecap="round" stroke-linejoin="round"/>
<rect x="344" y="60" width="34" height="34" rx="4" fill="white"/>
<path d="M359.127 82.0996C358.994 82.3759 358.922 82.6826 358.922 82.9996C358.922 83.7422 359.318 84.4283 359.961 84.7996C360.604 85.1709 361.396 85.1709 362.039 84.7996C362.682 84.4283 363.079 83.7422 363.079 82.9996C363.079 82.6826 363.006 82.3759 362.874 82.0996H359.127Z" fill="#C2CCDE" fill-opacity="0.25"/>
<path d="M360.888 70.0996C359.615 70.0996 358.394 70.6053 357.494 71.5055L357.306 71.6937C356.406 72.5939 355.9 73.8148 355.9 75.0878V75.9693C355.9 77.5895 355.256 79.1434 354.111 80.2891C353.912 80.488 353.8 80.7578 353.8 81.0391C353.8 81.6248 354.275 82.0996 354.861 82.0996H367.139C367.725 82.0996 368.2 81.6248 368.2 81.0391C368.2 80.7578 368.088 80.488 367.889 80.2891C366.744 79.1434 366.1 77.5895 366.1 75.9693V75.0878C366.1 73.8148 365.594 72.5939 364.694 71.6937L364.506 71.5055C363.606 70.6053 362.385 70.0996 361.112 70.0996H360.888Z" fill="#C2CCDE" fill-opacity="0.25"/>
<path d="M361.6 70.1245V69.1996C361.6 68.8682 361.331 68.5996 361 68.5996C360.669 68.5996 360.4 68.8682 360.4 69.1996V70.1245C360.562 70.108 360.724 70.0996 360.888 70.0996H361.112C361.276 70.0996 361.439 70.108 361.6 70.1245Z" fill="#C2CCDE" fill-opacity="0.25"/>
<path d="M360.888 70.0996C359.615 70.0996 358.394 70.6053 357.494 71.5055L357.306 71.6937C356.406 72.5939 355.9 73.8148 355.9 75.0878V75.9693C355.9 77.5895 355.256 79.1434 354.111 80.2891C353.912 80.488 353.8 80.7578 353.8 81.0391C353.8 81.6248 354.275 82.0996 354.861 82.0996H367.139C367.725 82.0996 368.2 81.6248 368.2 81.0391C368.2 80.7578 368.088 80.488 367.889 80.2891C366.744 79.1434 366.1 77.5895 366.1 75.9693V75.0878C366.1 73.8148 365.594 72.5939 364.694 71.6937L364.506 71.5055C363.606 70.6053 362.385 70.0996 361.112 70.0996M360.888 70.0996H361.112M360.888 70.0996C360.724 70.0996 360.562 70.108 360.4 70.1245V69.1996C360.4 68.8682 360.669 68.5996 361 68.5996C361.331 68.5996 361.6 68.8682 361.6 69.1996V70.1245C361.439 70.108 361.276 70.0996 361.112 70.0996M358.922 82.9996C358.922 82.6826 358.994 82.3759 359.127 82.0996H362.874C363.006 82.3759 363.079 82.6826 363.079 82.9996C363.079 83.7422 362.682 84.4283 362.039 84.7996C361.396 85.1709 360.604 85.1709 359.961 84.7996C359.318 84.4283 358.922 83.7422 358.922 82.9996Z" stroke="#414141" stroke-linecap="round" stroke-linejoin="round"/>
<circle opacity="0.1" cx="196" cy="319" r="112" fill="#08B783"/>
<circle opacity="0.15" cx="196" cy="319" r="77.1391" fill="#08B783"/>
<circle opacity="0.25" cx="196" cy="319" r="36.3444" fill="#08B783"/>
<circle opacity="0.5" cx="196" cy="319" r="14.0927" fill="#08B783"/>
<path fill-rule="evenodd" clip-rule="evenodd" d="M196 312.718C198.458 312.718 200.45 314.71 200.45 317.168V317.436C200.45 318.42 200.143 319.378 199.572 320.179L196.009 325.166C196.005 325.172 195.996 325.172 195.991 325.166L192.429 320.179C191.857 319.378 191.55 318.42 191.55 317.436V317.168C191.55 314.71 193.542 312.718 196 312.718ZM197.955 316.749C197.819 316.154 197.42 315.653 196.87 315.388C196.32 315.124 195.68 315.124 195.13 315.388C194.581 315.653 194.181 316.154 194.046 316.749C193.91 317.343 194.052 317.968 194.433 318.445C194.813 318.922 195.39 319.199 196 319.199C196.61 319.199 197.187 318.922 197.568 318.445C197.948 317.968 198.09 317.343 197.955 316.749Z" fill="#414141"/>
<path d="M199.572 320.179L200.792 321.051V321.051L199.572 320.179ZM196.009 325.166L194.788 324.295L194.788 324.295L196.009 325.166ZM195.991 325.166L197.212 324.295L197.212 324.295L195.991 325.166ZM192.429 320.179L191.208 321.051H191.208L192.429 320.179ZM196.87 315.388L196.219 316.74L196.87 315.388ZM197.955 316.749L199.417 316.415V316.415L197.955 316.749ZM195.13 315.388L195.781 316.74V316.74L195.13 315.388ZM194.046 316.749L195.508 317.082L194.046 316.749ZM194.433 318.445L193.26 319.38L193.26 319.38L194.433 318.445ZM201.95 317.168C201.95 313.882 199.286 311.218 196 311.218V314.218C197.63 314.218 198.95 315.539 198.95 317.168H201.95ZM201.95 317.436V317.168H198.95V317.436H201.95ZM200.792 321.051C201.546 319.996 201.95 318.732 201.95 317.436H198.95C198.95 318.107 198.741 318.761 198.351 319.307L200.792 321.051ZM197.23 326.038L200.792 321.051L198.351 319.307L194.788 324.295L197.23 326.038ZM194.771 326.038C195.373 326.882 196.627 326.882 197.23 326.038L194.788 324.295C195.382 323.463 196.618 323.463 197.212 324.295L194.771 326.038ZM191.208 321.051L194.771 326.038L197.212 324.295L193.649 319.307L191.208 321.051ZM190.05 317.436C190.05 318.732 190.455 319.996 191.208 321.051L193.649 319.307C193.259 318.761 193.05 318.107 193.05 317.436H190.05ZM190.05 317.168V317.436H193.05V317.168H190.05ZM196 311.218C192.714 311.218 190.05 313.882 190.05 317.168H193.05C193.05 315.539 194.371 314.218 196 314.218V311.218ZM196.219 316.74C196.358 316.806 196.458 316.933 196.492 317.082L199.417 316.415C199.18 315.375 198.482 314.5 197.521 314.037L196.219 316.74ZM195.781 316.74C195.92 316.673 196.081 316.673 196.219 316.74L197.521 314.037C196.56 313.574 195.44 313.574 194.479 314.037L195.781 316.74ZM195.508 317.082C195.542 316.933 195.643 316.806 195.781 316.74L194.479 314.037C193.518 314.5 192.821 315.375 192.583 316.415L195.508 317.082ZM195.605 317.509C195.51 317.389 195.474 317.232 195.508 317.082L192.583 316.415C192.346 317.455 192.595 318.546 193.26 319.38L195.605 317.509ZM196 317.699C195.847 317.699 195.701 317.629 195.605 317.509L193.26 319.38C193.925 320.214 194.934 320.699 196 320.699V317.699ZM196.395 317.509C196.299 317.629 196.154 317.699 196 317.699V320.699C197.067 320.699 198.075 320.214 198.74 319.38L196.395 317.509ZM196.492 317.082C196.526 317.232 196.491 317.389 196.395 317.509L198.74 319.38C199.405 318.546 199.654 317.455 199.417 316.415L196.492 317.082Z" fill="#414141"/>
<rect x="14.5" y="627.5" width="363" height="140" rx="7.5" fill="#B9E5D1" stroke="#08B783"/>
<rect x="15" y="558" width="363" height="54" rx="8" fill="#008955"/>
<path d="M181.004 584.788C181.601 584.895 182.108 585.209 182.524 585.732C182.94 586.255 183.148 586.847 183.148 587.508C183.148 588.073 182.998 588.585 182.7 589.044C182.412 589.492 181.99 589.849 181.436 590.116C180.881 590.372 180.236 590.5 179.5 590.5H175.052V579.38H179.292C180.049 579.38 180.7 579.508 181.244 579.764C181.788 580.02 182.198 580.367 182.476 580.804C182.753 581.231 182.892 581.711 182.892 582.244C182.892 582.884 182.721 583.417 182.38 583.844C182.038 584.271 181.58 584.585 181.004 584.788ZM176.876 584.052H179.132C179.729 584.052 180.193 583.919 180.524 583.652C180.865 583.375 181.036 582.98 181.036 582.468C181.036 581.967 180.865 581.577 180.524 581.3C180.193 581.012 179.729 580.868 179.132 580.868H176.876V584.052ZM179.34 589.012C179.958 589.012 180.444 588.863 180.796 588.564C181.148 588.265 181.324 587.849 181.324 587.316C181.324 586.772 181.137 586.34 180.764 586.02C180.39 585.7 179.894 585.54 179.276 585.54H176.876V589.012H179.34ZM190.202 590.612C189.167 590.612 188.212 590.372 187.338 589.892C186.474 589.401 185.786 588.724 185.274 587.86C184.772 586.985 184.522 586.004 184.522 584.916C184.522 583.828 184.772 582.852 185.274 581.988C185.786 581.124 186.474 580.452 187.338 579.972C188.212 579.481 189.167 579.236 190.202 579.236C191.247 579.236 192.202 579.481 193.066 579.972C193.94 580.452 194.628 581.124 195.13 581.988C195.631 582.852 195.882 583.828 195.882 584.916C195.882 586.004 195.631 586.985 195.13 587.86C194.628 588.724 193.94 589.401 193.066 589.892C192.202 590.372 191.247 590.612 190.202 590.612ZM190.202 589.028C190.938 589.028 191.594 588.863 192.17 588.532C192.746 588.191 193.194 587.711 193.514 587.092C193.844 586.463 194.01 585.737 194.01 584.916C194.01 584.095 193.844 583.375 193.514 582.756C193.194 582.137 192.746 581.663 192.17 581.332C191.594 581.001 190.938 580.836 190.202 580.836C189.466 580.836 188.81 581.001 188.234 581.332C187.658 581.663 187.204 582.137 186.874 582.756C186.554 583.375 186.394 584.095 186.394 584.916C186.394 585.737 186.554 586.463 186.874 587.092C187.204 587.711 187.658 588.191 188.234 588.532C188.81 588.863 189.466 589.028 190.202 589.028ZM202.749 590.612C201.714 590.612 200.759 590.372 199.885 589.892C199.021 589.401 198.333 588.724 197.821 587.86C197.319 586.985 197.069 586.004 197.069 584.916C197.069 583.828 197.319 582.852 197.821 581.988C198.333 581.124 199.021 580.452 199.885 579.972C200.759 579.481 201.714 579.236 202.749 579.236C203.794 579.236 204.749 579.481 205.613 579.972C206.487 580.452 207.175 581.124 207.677 581.988C208.178 582.852 208.429 583.828 208.429 584.916C208.429 586.004 208.178 586.985 207.677 587.86C207.175 588.724 206.487 589.401 205.613 589.892C204.749 590.372 203.794 590.612 202.749 590.612ZM202.749 589.028C203.485 589.028 204.141 588.863 204.717 588.532C205.293 588.191 205.741 587.711 206.061 587.092C206.391 586.463 206.557 585.737 206.557 584.916C206.557 584.095 206.391 583.375 206.061 582.756C205.741 582.137 205.293 581.663 204.717 581.332C204.141 581.001 203.485 580.836 202.749 580.836C202.013 580.836 201.357 581.001 200.781 581.332C200.205 581.663 199.751 582.137 199.421 582.756C199.101 583.375 198.941 584.095 198.941 584.916C198.941 585.737 199.101 586.463 199.421 587.092C199.751 587.711 200.205 588.191 200.781 588.532C201.357 588.863 202.013 589.028 202.749 589.028ZM216.351 590.5L212.047 585.524V590.5H210.223V579.38H212.047V584.452L216.367 579.38H218.655L213.823 584.948L218.735 590.5H216.351Z" fill="white"/>
<rect x="28.5" y="640.5" width="335" height="53" rx="7.5" fill="#E2F5ED" stroke="#8AD4B5"/>
<path d="M57.036 675.325L53.2175 671.505C52.8663 671.154 52.8663 670.585 53.2176 670.233C53.5689 669.882 54.1385 669.882 54.4898 670.233L58.3083 674.053C58.6595 674.404 58.6595 674.974 58.3082 675.325C57.9569 675.676 57.3873 675.676 57.036 675.325Z" fill="#C2CCDE" fill-opacity="0.25"/>
<path d="M42.679 663.721C43.2075 661.748 44.7482 660.208 46.7207 659.679C48.6931 659.151 50.7977 659.715 52.2417 661.159C53.6856 662.603 54.2496 664.707 53.721 666.68C53.1925 668.652 51.6518 670.193 49.6794 670.721C47.7069 671.25 45.6023 670.686 44.1584 669.242C42.7144 667.798 42.1505 665.693 42.679 663.721Z" fill="#C2CCDE" fill-opacity="0.25"/>
<path d="M52.2335 669.25L53.2173 670.234M53.2175 671.505L57.036 675.325C57.3873 675.676 57.9569 675.676 58.3082 675.325C58.6595 674.974 58.6595 674.404 58.3083 674.053L54.4898 670.233C54.1385 669.882 53.5689 669.882 53.2176 670.233C52.8663 670.585 52.8663 671.154 53.2175 671.505ZM44.1584 669.242C42.7144 667.798 42.1505 665.693 42.679 663.721C43.2075 661.748 44.7482 660.208 46.7207 659.679C48.6931 659.151 50.7977 659.715 52.2417 661.159C53.6856 662.603 54.2496 664.707 53.721 666.68C53.1925 668.652 51.6518 670.193 49.6794 670.721C47.7069 671.25 45.6023 670.686 44.1584 669.242Z" stroke="#414141" stroke-linecap="round" stroke-linejoin="round"/>
<path d="M335.212 662.242C334.424 663.03 333.982 664.098 333.982 665.212C333.982 666.326 334.424 667.394 335.212 668.182L341.576 674.546C341.81 674.78 342.19 674.78 342.424 674.546L348.788 668.182C349.576 667.394 350.018 666.326 350.018 665.212C350.018 664.098 349.576 663.03 348.788 662.242C348.001 661.454 346.932 661.012 345.818 661.012C344.705 661.012 343.636 661.454 342.849 662.242L342.207 662.883C342.093 662.998 341.907 662.998 341.793 662.883L341.152 662.242C340.364 661.454 339.296 661.012 338.182 661.012C337.068 661.012 335.999 661.454 335.212 662.242Z" fill="#C2CCDE" fill-opacity="0.25" stroke="#B8B8B8" stroke-linecap="round" stroke-linejoin="round"/>
<path d="M87.68 660.88L84.384 672H82.32L79.984 663.584L77.504 672L75.456 672.016L72.304 660.88H74.24L76.544 669.936L79.04 660.88H81.088L83.408 669.888L85.728 660.88H87.68ZM93.7444 663.04C94.4164 663.04 95.0137 663.184 95.5364 663.472C96.0697 663.76 96.4857 664.187 96.7844 664.752C97.0937 665.317 97.2484 666 97.2484 666.8V672H95.4404V667.072C95.4404 666.283 95.243 665.68 94.8484 665.264C94.4537 664.837 93.915 664.624 93.2324 664.624C92.5497 664.624 92.0057 664.837 91.6004 665.264C91.2057 665.68 91.0084 666.283 91.0084 667.072V672H89.1844V660.16H91.0084V664.208C91.3177 663.835 91.707 663.547 92.1764 663.344C92.6564 663.141 93.179 663.04 93.7444 663.04ZM107.655 667.376C107.655 667.707 107.634 668.005 107.591 668.272H100.855C100.908 668.976 101.17 669.541 101.639 669.968C102.108 670.395 102.684 670.608 103.367 670.608C104.348 670.608 105.042 670.197 105.447 669.376H107.415C107.148 670.187 106.663 670.853 105.959 671.376C105.266 671.888 104.402 672.144 103.367 672.144C102.524 672.144 101.767 671.957 101.095 671.584C100.434 671.2 99.911 670.667 99.527 669.984C99.1537 669.291 98.967 668.491 98.967 667.584C98.967 666.677 99.1483 665.883 99.511 665.2C99.8843 664.507 100.402 663.973 101.063 663.6C101.735 663.227 102.503 663.04 103.367 663.04C104.199 663.04 104.94 663.221 105.591 663.584C106.242 663.947 106.748 664.459 107.111 665.12C107.474 665.771 107.655 666.523 107.655 667.376ZM105.751 666.8C105.74 666.128 105.5 665.589 105.031 665.184C104.562 664.779 103.98 664.576 103.287 664.576C102.658 664.576 102.119 664.779 101.671 665.184C101.223 665.579 100.956 666.117 100.871 666.8H105.751ZM111.274 664.464C111.541 664.016 111.893 663.669 112.33 663.424C112.778 663.168 113.306 663.04 113.914 663.04V664.928H113.45C112.735 664.928 112.191 665.109 111.818 665.472C111.455 665.835 111.274 666.464 111.274 667.36V672H109.45V663.184H111.274V664.464ZM123.671 667.376C123.671 667.707 123.649 668.005 123.607 668.272H116.871C116.924 668.976 117.185 669.541 117.655 669.968C118.124 670.395 118.7 670.608 119.383 670.608C120.364 670.608 121.057 670.197 121.463 669.376H123.431C123.164 670.187 122.679 670.853 121.975 671.376C121.281 671.888 120.417 672.144 119.383 672.144C118.54 672.144 117.783 671.957 117.111 671.584C116.449 671.2 115.927 670.667 115.543 669.984C115.169 669.291 114.983 668.491 114.983 667.584C114.983 666.677 115.164 665.883 115.527 665.2C115.9 664.507 116.417 663.973 117.079 663.6C117.751 663.227 118.519 663.04 119.383 663.04C120.215 663.04 120.956 663.221 121.607 663.584C122.257 663.947 122.764 664.459 123.127 665.12C123.489 665.771 123.671 666.523 123.671 667.376ZM121.767 666.8C121.756 666.128 121.516 665.589 121.047 665.184C120.577 664.779 119.996 664.576 119.303 664.576C118.673 664.576 118.135 664.779 117.687 665.184C117.239 665.579 116.972 666.117 116.887 666.8H121.767ZM141.462 663.184L138.726 672H136.806L135.03 665.488L133.254 672H131.334L128.582 663.184H130.438L132.278 670.272L134.15 663.184H136.054L137.846 670.24L139.67 663.184H141.462ZM146.649 672.144C145.817 672.144 145.065 671.957 144.393 671.584C143.721 671.2 143.193 670.667 142.809 669.984C142.425 669.291 142.233 668.491 142.233 667.584C142.233 666.688 142.43 665.893 142.825 665.2C143.22 664.507 143.758 663.973 144.441 663.6C145.124 663.227 145.886 663.04 146.729 663.04C147.572 663.04 148.334 663.227 149.017 663.6C149.7 663.973 150.238 664.507 150.633 665.2C151.028 665.893 151.225 666.688 151.225 667.584C151.225 668.48 151.022 669.275 150.617 669.968C150.212 670.661 149.657 671.2 148.953 671.584C148.26 671.957 147.492 672.144 146.649 672.144ZM146.649 670.56C147.118 670.56 147.556 670.448 147.961 670.224C148.377 670 148.713 669.664 148.969 669.216C149.225 668.768 149.353 668.224 149.353 667.584C149.353 666.944 149.23 666.405 148.985 665.968C148.74 665.52 148.414 665.184 148.009 664.96C147.604 664.736 147.166 664.624 146.697 664.624C146.228 664.624 145.79 664.736 145.385 664.96C144.99 665.184 144.676 665.52 144.441 665.968C144.206 666.405 144.089 666.944 144.089 667.584C144.089 668.533 144.329 669.269 144.809 669.792C145.3 670.304 145.913 670.56 146.649 670.56ZM161.012 663.184V672H159.188V670.96C158.9 671.323 158.521 671.611 158.052 671.824C157.593 672.027 157.103 672.128 156.58 672.128C155.887 672.128 155.263 671.984 154.708 671.696C154.164 671.408 153.732 670.981 153.412 670.416C153.103 669.851 152.948 669.168 152.948 668.368V663.184H154.756V668.096C154.756 668.885 154.953 669.493 155.348 669.92C155.743 670.336 156.281 670.544 156.964 670.544C157.647 670.544 158.185 670.336 158.58 669.92C158.985 669.493 159.188 668.885 159.188 668.096V663.184H161.012ZM165.243 660.16V672H163.419V660.16H165.243ZM167.03 667.552C167.03 666.667 167.211 665.883 167.574 665.2C167.947 664.517 168.448 663.989 169.078 663.616C169.718 663.232 170.427 663.04 171.206 663.04C171.782 663.04 172.347 663.168 172.902 663.424C173.467 663.669 173.915 664 174.246 664.416V660.16H176.086V672H174.246V670.672C173.947 671.099 173.531 671.451 172.998 671.728C172.475 672.005 171.872 672.144 171.19 672.144C170.422 672.144 169.718 671.952 169.078 671.568C168.448 671.173 167.947 670.629 167.574 669.936C167.211 669.232 167.03 668.437 167.03 667.552ZM174.246 667.584C174.246 666.976 174.118 666.448 173.862 666C173.616 665.552 173.291 665.211 172.886 664.976C172.48 664.741 172.043 664.624 171.574 664.624C171.104 664.624 170.667 664.741 170.262 664.976C169.856 665.2 169.526 665.536 169.27 665.984C169.024 666.421 168.902 666.944 168.902 667.552C168.902 668.16 169.024 668.693 169.27 669.152C169.526 669.611 169.856 669.963 170.262 670.208C170.678 670.443 171.115 670.56 171.574 670.56C172.043 670.56 172.48 670.443 172.886 670.208C173.291 669.973 173.616 669.632 173.862 669.184C174.118 668.725 174.246 668.192 174.246 667.584ZM190.574 663.184L185.166 676.144H183.278L185.07 671.856L181.598 663.184H183.63L186.11 669.904L188.686 663.184H190.574ZM195.774 672.144C194.942 672.144 194.19 671.957 193.518 671.584C192.846 671.2 192.318 670.667 191.934 669.984C191.55 669.291 191.358 668.491 191.358 667.584C191.358 666.688 191.555 665.893 191.95 665.2C192.345 664.507 192.883 663.973 193.566 663.6C194.249 663.227 195.011 663.04 195.854 663.04C196.697 663.04 197.459 663.227 198.142 663.6C198.825 663.973 199.363 664.507 199.758 665.2C200.153 665.893 200.35 666.688 200.35 667.584C200.35 668.48 200.147 669.275 199.742 669.968C199.337 670.661 198.782 671.2 198.078 671.584C197.385 671.957 196.617 672.144 195.774 672.144ZM195.774 670.56C196.243 670.56 196.681 670.448 197.086 670.224C197.502 670 197.838 669.664 198.094 669.216C198.35 668.768 198.478 668.224 198.478 667.584C198.478 666.944 198.355 666.405 198.11 665.968C197.865 665.52 197.539 665.184 197.134 664.96C196.729 664.736 196.291 664.624 195.822 664.624C195.353 664.624 194.915 664.736 194.51 664.96C194.115 665.184 193.801 665.52 193.566 665.968C193.331 666.405 193.214 666.944 193.214 667.584C193.214 668.533 193.454 669.269 193.934 669.792C194.425 670.304 195.038 670.56 195.774 670.56ZM210.137 663.184V672H208.313V670.96C208.025 671.323 207.646 671.611 207.177 671.824C206.718 672.027 206.228 672.128 205.705 672.128C205.012 672.128 204.388 671.984 203.833 671.696C203.289 671.408 202.857 670.981 202.537 670.416C202.228 669.851 202.073 669.168 202.073 668.368V663.184H203.881V668.096C203.881 668.885 204.078 669.493 204.473 669.92C204.868 670.336 205.406 670.544 206.089 670.544C206.772 670.544 207.31 670.336 207.705 669.92C208.11 669.493 208.313 668.885 208.313 668.096V663.184H210.137ZM220.252 663.04C220.935 663.04 221.537 663.179 222.06 663.456C222.593 663.723 223.009 664.059 223.308 664.464V663.184H225.148V672.144C225.148 672.955 224.977 673.675 224.636 674.304C224.295 674.944 223.799 675.445 223.148 675.808C222.508 676.171 221.74 676.352 220.844 676.352C219.649 676.352 218.657 676.069 217.868 675.504C217.079 674.949 216.631 674.192 216.524 673.232H218.332C218.471 673.691 218.764 674.059 219.212 674.336C219.671 674.624 220.215 674.768 220.844 674.768C221.58 674.768 222.172 674.544 222.62 674.096C223.079 673.648 223.308 672.997 223.308 672.144V670.672C222.999 671.088 222.577 671.44 222.044 671.728C221.521 672.005 220.924 672.144 220.252 672.144C219.484 672.144 218.78 671.952 218.14 671.568C217.511 671.173 217.009 670.629 216.636 669.936C216.273 669.232 216.092 668.437 216.092 667.552C216.092 666.667 216.273 665.883 216.636 665.2C217.009 664.517 217.511 663.989 218.14 663.616C218.78 663.232 219.484 663.04 220.252 663.04ZM223.308 667.584C223.308 666.976 223.18 666.448 222.924 666C222.679 665.552 222.353 665.211 221.948 664.976C221.543 664.741 221.105 664.624 220.636 664.624C220.167 664.624 219.729 664.741 219.324 664.976C218.919 665.2 218.588 665.536 218.332 665.984C218.087 666.421 217.964 666.944 217.964 667.552C217.964 668.16 218.087 668.693 218.332 669.152C218.588 669.611 218.919 669.963 219.324 670.208C219.74 670.443 220.177 670.56 220.636 670.56C221.105 670.56 221.543 670.443 221.948 670.208C222.353 669.973 222.679 669.632 222.924 669.184C223.18 668.725 223.308 668.192 223.308 667.584ZM231.368 672.144C230.536 672.144 229.784 671.957 229.112 671.584C228.44 671.2 227.912 670.667 227.528 669.984C227.144 669.291 226.952 668.491 226.952 667.584C226.952 666.688 227.149 665.893 227.544 665.2C227.938 664.507 228.477 663.973 229.16 663.6C229.842 663.227 230.605 663.04 231.448 663.04C232.29 663.04 233.053 663.227 233.736 663.6C234.418 663.973 234.957 664.507 235.352 665.2C235.746 665.893 235.944 666.688 235.944 667.584C235.944 668.48 235.741 669.275 235.336 669.968C234.93 670.661 234.376 671.2 233.672 671.584C232.978 671.957 232.21 672.144 231.368 672.144ZM231.368 670.56C231.837 670.56 232.274 670.448 232.68 670.224C233.096 670 233.432 669.664 233.688 669.216C233.944 668.768 234.072 668.224 234.072 667.584C234.072 666.944 233.949 666.405 233.704 665.968C233.458 665.52 233.133 665.184 232.728 664.96C232.322 664.736 231.885 664.624 231.416 664.624C230.946 664.624 230.509 664.736 230.104 664.96C229.709 665.184 229.394 665.52 229.16 665.968C228.925 666.405 228.808 666.944 228.808 667.584C228.808 668.533 229.048 669.269 229.528 669.792C230.018 670.304 230.632 670.56 231.368 670.56ZM240.739 660.72C241.827 660.72 242.696 661.019 243.347 661.616C244.008 662.213 244.339 663.029 244.339 664.064C244.339 665.141 243.998 665.952 243.315 666.496C242.632 667.04 241.726 667.312 240.595 667.312L240.531 668.576H238.947L238.867 666.064H239.395C240.43 666.064 241.219 665.925 241.763 665.648C242.318 665.371 242.595 664.843 242.595 664.064C242.595 663.499 242.43 663.056 242.099 662.736C241.779 662.416 241.331 662.256 240.755 662.256C240.179 662.256 239.726 662.411 239.395 662.72C239.064 663.029 238.899 663.461 238.899 664.016H237.187C237.187 663.376 237.331 662.805 237.619 662.304C237.907 661.803 238.318 661.413 238.851 661.136C239.395 660.859 240.024 660.72 240.739 660.72ZM239.715 672.112C239.384 672.112 239.107 672 238.883 671.776C238.659 671.552 238.547 671.275 238.547 670.944C238.547 670.613 238.659 670.336 238.883 670.112C239.107 669.888 239.384 669.776 239.715 669.776C240.035 669.776 240.307 669.888 240.531 670.112C240.755 670.336 240.867 670.613 240.867 670.944C240.867 671.275 240.755 671.552 240.531 671.776C240.307 672 240.035 672.112 239.715 672.112Z" fill="#A0A0A0"/>
<rect x="28.5" y="709.5" width="335" height="47" rx="7.5" fill="#E2F5ED" stroke="#8AD4B5"/>
<rect x="196" y="709" width="168" height="48" rx="8" fill="#008955"/>
<path d="M80.8371 726.88V728.368H77.8771V738H76.0531V728.368H73.0771V726.88H80.8371ZM84.5084 730.464C84.775 730.016 85.127 729.669 85.5644 729.424C86.0124 729.168 86.5404 729.04 87.1484 729.04V730.928H86.6844C85.9697 730.928 85.4257 731.109 85.0524 731.472C84.6897 731.835 84.5084 732.464 84.5084 733.36V738H82.6844V729.184H84.5084V730.464ZM88.217 733.552C88.217 732.667 88.3983 731.883 88.761 731.2C89.1343 730.517 89.6357 729.989 90.265 729.616C90.905 729.232 91.609 729.04 92.377 729.04C93.0703 729.04 93.673 729.179 94.185 729.456C94.7077 729.723 95.1237 730.059 95.433 730.464V729.184H97.273V738H95.433V736.688C95.1237 737.104 94.7023 737.451 94.169 737.728C93.6357 738.005 93.0277 738.144 92.345 738.144C91.5877 738.144 90.8943 737.952 90.265 737.568C89.6357 737.173 89.1343 736.629 88.761 735.936C88.3983 735.232 88.217 734.437 88.217 733.552ZM95.433 733.584C95.433 732.976 95.305 732.448 95.049 732C94.8037 731.552 94.4783 731.211 94.073 730.976C93.6677 730.741 93.2303 730.624 92.761 730.624C92.2917 730.624 91.8543 730.741 91.449 730.976C91.0437 731.2 90.713 731.536 90.457 731.984C90.2117 732.421 90.089 732.944 90.089 733.552C90.089 734.16 90.2117 734.693 90.457 735.152C90.713 735.611 91.0437 735.963 91.449 736.208C91.865 736.443 92.3023 736.56 92.761 736.56C93.2303 736.56 93.6677 736.443 94.073 736.208C94.4783 735.973 94.8037 735.632 95.049 735.184C95.305 734.725 95.433 734.192 95.433 733.584ZM104.117 729.04C104.81 729.04 105.429 729.184 105.973 729.472C106.527 729.76 106.959 730.187 107.269 730.752C107.578 731.317 107.733 732 107.733 732.8V738H105.925V733.072C105.925 732.283 105.727 731.68 105.333 731.264C104.938 730.837 104.399 730.624 103.717 730.624C103.034 730.624 102.49 730.837 102.085 731.264C101.69 731.68 101.493 732.283 101.493 733.072V738H99.6688V729.184H101.493V730.192C101.791 729.829 102.17 729.547 102.629 729.344C103.098 729.141 103.594 729.04 104.117 729.04ZM113.259 738.144C112.566 738.144 111.942 738.021 111.387 737.776C110.843 737.52 110.411 737.179 110.091 736.752C109.771 736.315 109.601 735.829 109.579 735.296H111.467C111.499 735.669 111.675 735.984 111.995 736.24C112.326 736.485 112.737 736.608 113.227 736.608C113.739 736.608 114.134 736.512 114.411 736.32C114.699 736.117 114.843 735.861 114.843 735.552C114.843 735.221 114.683 734.976 114.363 734.816C114.054 734.656 113.558 734.48 112.875 734.288C112.214 734.107 111.675 733.931 111.259 733.76C110.843 733.589 110.481 733.328 110.171 732.976C109.873 732.624 109.723 732.16 109.723 731.584C109.723 731.115 109.862 730.688 110.139 730.304C110.417 729.909 110.811 729.6 111.323 729.376C111.846 729.152 112.443 729.04 113.115 729.04C114.118 729.04 114.923 729.296 115.531 729.808C116.15 730.309 116.481 730.997 116.523 731.872H114.699C114.667 731.477 114.507 731.163 114.219 730.928C113.931 730.693 113.542 730.576 113.051 730.576C112.571 730.576 112.203 730.667 111.947 730.848C111.691 731.029 111.563 731.269 111.563 731.568C111.563 731.803 111.649 732 111.819 732.16C111.99 732.32 112.198 732.448 112.443 732.544C112.689 732.629 113.051 732.741 113.531 732.88C114.171 733.051 114.694 733.227 115.099 733.408C115.515 733.579 115.873 733.835 116.171 734.176C116.47 734.517 116.625 734.971 116.635 735.536C116.635 736.037 116.497 736.485 116.219 736.88C115.942 737.275 115.547 737.584 115.035 737.808C114.534 738.032 113.942 738.144 113.259 738.144ZM120.43 730.48C120.74 730.075 121.161 729.733 121.694 729.456C122.228 729.179 122.83 729.04 123.502 729.04C124.27 729.04 124.969 729.232 125.598 729.616C126.238 729.989 126.74 730.517 127.102 731.2C127.465 731.883 127.646 732.667 127.646 733.552C127.646 734.437 127.465 735.232 127.102 735.936C126.74 736.629 126.238 737.173 125.598 737.568C124.969 737.952 124.27 738.144 123.502 738.144C122.83 738.144 122.233 738.011 121.71 737.744C121.188 737.467 120.761 737.125 120.43 736.72V742.192H118.606V729.184H120.43V730.48ZM125.79 733.552C125.79 732.944 125.662 732.421 125.406 731.984C125.161 731.536 124.83 731.2 124.414 730.976C124.009 730.741 123.572 730.624 123.102 730.624C122.644 730.624 122.206 730.741 121.79 730.976C121.385 731.211 121.054 731.552 120.798 732C120.553 732.448 120.43 732.976 120.43 733.584C120.43 734.192 120.553 734.725 120.798 735.184C121.054 735.632 121.385 735.973 121.79 736.208C122.206 736.443 122.644 736.56 123.102 736.56C123.572 736.56 124.009 736.443 124.414 736.208C124.83 735.963 125.161 735.611 125.406 735.152C125.662 734.693 125.79 734.16 125.79 733.552ZM133.274 738.144C132.442 738.144 131.69 737.957 131.018 737.584C130.346 737.2 129.818 736.667 129.434 735.984C129.05 735.291 128.858 734.491 128.858 733.584C128.858 732.688 129.055 731.893 129.45 731.2C129.845 730.507 130.383 729.973 131.066 729.6C131.749 729.227 132.511 729.04 133.354 729.04C134.197 729.04 134.959 729.227 135.642 729.6C136.325 729.973 136.863 730.507 137.258 731.2C137.653 731.893 137.85 732.688 137.85 733.584C137.85 734.48 137.647 735.275 137.242 735.968C136.837 736.661 136.282 737.2 135.578 737.584C134.885 737.957 134.117 738.144 133.274 738.144ZM133.274 736.56C133.743 736.56 134.181 736.448 134.586 736.224C135.002 736 135.338 735.664 135.594 735.216C135.85 734.768 135.978 734.224 135.978 733.584C135.978 732.944 135.855 732.405 135.61 731.968C135.365 731.52 135.039 731.184 134.634 730.96C134.229 730.736 133.791 730.624 133.322 730.624C132.853 730.624 132.415 730.736 132.01 730.96C131.615 731.184 131.301 731.52 131.066 731.968C130.831 732.405 130.714 732.944 130.714 733.584C130.714 734.533 130.954 735.269 131.434 735.792C131.925 736.304 132.538 736.56 133.274 736.56ZM141.477 730.464C141.744 730.016 142.096 729.669 142.533 729.424C142.981 729.168 143.509 729.04 144.117 729.04V730.928H143.653C142.938 730.928 142.394 731.109 142.021 731.472C141.658 731.835 141.477 732.464 141.477 733.36V738H139.653V729.184H141.477V730.464ZM147.922 730.672V735.552C147.922 735.883 147.996 736.123 148.146 736.272C148.306 736.411 148.572 736.48 148.946 736.48H150.066V738H148.626C147.804 738 147.175 737.808 146.738 737.424C146.3 737.04 146.082 736.416 146.082 735.552V730.672H145.042V729.184H146.082V726.992H147.922V729.184H150.066V730.672H147.922Z" fill="black"/>
<path d="M253.289 730.192C253.289 730.757 253.155 731.291 252.889 731.792C252.622 732.293 252.195 732.704 251.609 733.024C251.022 733.333 250.27 733.488 249.353 733.488H247.337V738H245.513V726.88H249.353C250.206 726.88 250.926 727.029 251.513 727.328C252.11 727.616 252.553 728.011 252.841 728.512C253.139 729.013 253.289 729.573 253.289 730.192ZM249.353 732C250.046 732 250.563 731.845 250.905 731.536C251.246 731.216 251.417 730.768 251.417 730.192C251.417 728.976 250.729 728.368 249.353 728.368H247.337V732H249.353ZM254.42 733.552C254.42 732.667 254.601 731.883 254.964 731.2C255.337 730.517 255.839 729.989 256.468 729.616C257.108 729.232 257.812 729.04 258.58 729.04C259.273 729.04 259.876 729.179 260.388 729.456C260.911 729.723 261.327 730.059 261.636 730.464V729.184H263.476V738H261.636V736.688C261.327 737.104 260.905 737.451 260.372 737.728C259.839 738.005 259.231 738.144 258.548 738.144C257.791 738.144 257.097 737.952 256.468 737.568C255.839 737.173 255.337 736.629 254.964 735.936C254.601 735.232 254.42 734.437 254.42 733.552ZM261.636 733.584C261.636 732.976 261.508 732.448 261.252 732C261.007 731.552 260.681 731.211 260.276 730.976C259.871 730.741 259.433 730.624 258.964 730.624C258.495 730.624 258.057 730.741 257.652 730.976C257.247 731.2 256.916 731.536 256.66 731.984C256.415 732.421 256.292 732.944 256.292 733.552C256.292 734.16 256.415 734.693 256.66 735.152C256.916 735.611 257.247 735.963 257.652 736.208C258.068 736.443 258.505 736.56 258.964 736.56C259.433 736.56 259.871 736.443 260.276 736.208C260.681 735.973 261.007 735.632 261.252 735.184C261.508 734.725 261.636 734.192 261.636 733.584ZM265.264 733.584C265.264 732.677 265.445 731.883 265.808 731.2C266.181 730.507 266.693 729.973 267.344 729.6C267.995 729.227 268.741 729.04 269.584 729.04C270.651 729.04 271.531 729.296 272.224 729.808C272.928 730.309 273.403 731.029 273.648 731.968H271.68C271.52 731.531 271.264 731.189 270.912 730.944C270.56 730.699 270.117 730.576 269.584 730.576C268.837 730.576 268.24 730.843 267.792 731.376C267.355 731.899 267.136 732.635 267.136 733.584C267.136 734.533 267.355 735.275 267.792 735.808C268.24 736.341 268.837 736.608 269.584 736.608C270.64 736.608 271.339 736.144 271.68 735.216H273.648C273.392 736.112 272.912 736.827 272.208 737.36C271.504 737.883 270.629 738.144 269.584 738.144C268.741 738.144 267.995 737.957 267.344 737.584C266.693 737.2 266.181 736.667 265.808 735.984C265.445 735.291 265.264 734.491 265.264 733.584ZM278.954 733.6L283.018 738H280.554L277.29 734.208V738H275.466V726.16H277.29V733.04L280.49 729.184H283.018L278.954 733.6ZM283.717 733.552C283.717 732.667 283.898 731.883 284.261 731.2C284.634 730.517 285.136 729.989 285.765 729.616C286.405 729.232 287.109 729.04 287.877 729.04C288.57 729.04 289.173 729.179 289.685 729.456C290.208 729.723 290.624 730.059 290.933 730.464V729.184H292.773V738H290.933V736.688C290.624 737.104 290.202 737.451 289.669 737.728C289.136 738.005 288.528 738.144 287.845 738.144C287.088 738.144 286.394 737.952 285.765 737.568C285.136 737.173 284.634 736.629 284.261 735.936C283.898 735.232 283.717 734.437 283.717 733.552ZM290.933 733.584C290.933 732.976 290.805 732.448 290.549 732C290.304 731.552 289.978 731.211 289.573 730.976C289.168 730.741 288.73 730.624 288.261 730.624C287.792 730.624 287.354 730.741 286.949 730.976C286.544 731.2 286.213 731.536 285.957 731.984C285.712 732.421 285.589 732.944 285.589 733.552C285.589 734.16 285.712 734.693 285.957 735.152C286.213 735.611 286.544 735.963 286.949 736.208C287.365 736.443 287.802 736.56 288.261 736.56C288.73 736.56 289.168 736.443 289.573 736.208C289.978 735.973 290.304 735.632 290.549 735.184C290.805 734.725 290.933 734.192 290.933 733.584ZM298.721 729.04C299.403 729.04 300.006 729.179 300.529 729.456C301.062 729.723 301.478 730.059 301.777 730.464V729.184H303.617V738.144C303.617 738.955 303.446 739.675 303.105 740.304C302.763 740.944 302.267 741.445 301.617 741.808C300.977 742.171 300.209 742.352 299.313 742.352C298.118 742.352 297.126 742.069 296.337 741.504C295.547 740.949 295.099 740.192 294.993 739.232H296.801C296.939 739.691 297.233 740.059 297.681 740.336C298.139 740.624 298.683 740.768 299.313 740.768C300.049 740.768 300.641 740.544 301.089 740.096C301.547 739.648 301.777 738.997 301.777 738.144V736.672C301.467 737.088 301.046 737.44 300.513 737.728C299.99 738.005 299.393 738.144 298.721 738.144C297.953 738.144 297.249 737.952 296.609 737.568C295.979 737.173 295.478 736.629 295.105 735.936C294.742 735.232 294.561 734.437 294.561 733.552C294.561 732.667 294.742 731.883 295.105 731.2C295.478 730.517 295.979 729.989 296.609 729.616C297.249 729.232 297.953 729.04 298.721 729.04ZM301.777 733.584C301.777 732.976 301.649 732.448 301.393 732C301.147 731.552 300.822 731.211 300.417 730.976C300.011 730.741 299.574 730.624 299.105 730.624C298.635 730.624 298.198 730.741 297.793 730.976C297.387 731.2 297.057 731.536 296.801 731.984C296.555 732.421 296.433 732.944 296.433 733.552C296.433 734.16 296.555 734.693 296.801 735.152C297.057 735.611 297.387 735.963 297.793 736.208C298.209 736.443 298.646 736.56 299.105 736.56C299.574 736.56 300.011 736.443 300.417 736.208C300.822 735.973 301.147 735.632 301.393 735.184C301.649 734.725 301.777 734.192 301.777 733.584ZM314.093 733.376C314.093 733.707 314.071 734.005 314.029 734.272H307.293C307.346 734.976 307.607 735.541 308.077 735.968C308.546 736.395 309.122 736.608 309.805 736.608C310.786 736.608 311.479 736.197 311.885 735.376H313.852C313.586 736.187 313.101 736.853 312.397 737.376C311.703 737.888 310.839 738.144 309.805 738.144C308.962 738.144 308.205 737.957 307.533 737.584C306.871 737.2 306.349 736.667 305.965 735.984C305.591 735.291 305.405 734.491 305.405 733.584C305.405 732.677 305.586 731.883 305.949 731.2C306.322 730.507 306.839 729.973 307.501 729.6C308.173 729.227 308.941 729.04 309.805 729.04C310.637 729.04 311.378 729.221 312.029 729.584C312.679 729.947 313.186 730.459 313.549 731.12C313.911 731.771 314.093 732.523 314.093 733.376ZM312.189 732.8C312.178 732.128 311.938 731.589 311.469 731.184C310.999 730.779 310.418 730.576 309.725 730.576C309.095 730.576 308.557 730.779 308.109 731.184C307.661 731.579 307.394 732.117 307.309 732.8H312.189Z" fill="white"/>
<rect x="-9" y="788" width="403" height="87" rx="34" fill="#EBEBEB"/>
<path fill-rule="evenodd" clip-rule="evenodd" d="M42 802.4L48 807.2H47C47.5523 807.2 48 807.648 48 808.2V814.6C48 815.153 47.5523 815.6 47 815.6H37C36.4477 815.6 36 815.153 36 814.6V808.2C36 807.648 36.4477 807.2 37 807.2H36L42 802.4ZM43.8 812V808.4H40.2V812H43.8Z" fill="#08B783"/>
<path d="M50.25 809L49.35 808.28L42 802.4L34.65 808.28L33.75 809" stroke="#08B783" stroke-width="3" stroke-linecap="round" stroke-linejoin="round"/>
<path fill-rule="evenodd" clip-rule="evenodd" d="M46.8751 806.3H48.6001V802.7H42.6001V802.88L46.8751 806.3Z" fill="#08B783"/>
<path d="M48.6001 806.3V807.3C49.1524 807.3 49.6001 806.852 49.6001 806.3H48.6001ZM46.8751 806.3L46.2504 807.081C46.4277 807.223 46.648 807.3 46.8751 807.3V806.3ZM48.6001 802.7H49.6001C49.6001 802.148 49.1524 801.7 48.6001 801.7V802.7ZM42.6001 802.7V801.7C42.0478 801.7 41.6001 802.148 41.6001 802.7H42.6001ZM42.6001 802.88H41.6001C41.6001 803.184 41.7382 803.471 41.9754 803.661L42.6001 802.88ZM48.6001 805.3H46.8751V807.3H48.6001V805.3ZM47.6001 802.7V806.3H49.6001V802.7H47.6001ZM42.6001 803.7H48.6001V801.7H42.6001V803.7ZM43.6001 802.88V802.7H41.6001V802.88H43.6001ZM41.9754 803.661L46.2504 807.081L47.4998 805.519L43.2248 802.099L41.9754 803.661Z" fill="#08B783"/>
<path d="M31.56 825.66V834H30.192V830.352H26.268V834H24.9V825.66H26.268V829.236H30.192V825.66H31.56ZM36.2289 834.108C35.6049 834.108 35.0409 833.968 34.5369 833.688C34.0329 833.4 33.6369 833 33.3489 832.488C33.0609 831.968 32.9169 831.368 32.9169 830.688C32.9169 830.016 33.0649 829.42 33.3609 828.9C33.6569 828.38 34.0609 827.98 34.5729 827.7C35.0849 827.42 35.6569 827.28 36.2889 827.28C36.9209 827.28 37.4929 827.42 38.0049 827.7C38.5169 827.98 38.9209 828.38 39.2169 828.9C39.5129 829.42 39.6609 830.016 39.6609 830.688C39.6609 831.36 39.5089 831.956 39.2049 832.476C38.9009 832.996 38.4849 833.4 37.9569 833.688C37.4369 833.968 36.8609 834.108 36.2289 834.108ZM36.2289 832.92C36.5809 832.92 36.9089 832.836 37.2129 832.668C37.5249 832.5 37.7769 832.248 37.9689 831.912C38.1609 831.576 38.2569 831.168 38.2569 830.688C38.2569 830.208 38.1649 829.804 37.9809 829.476C37.7969 829.14 37.5529 828.888 37.2489 828.72C36.9449 828.552 36.6169 828.468 36.2649 828.468C35.9129 828.468 35.5849 828.552 35.2809 828.72C34.9849 828.888 34.7489 829.14 34.5729 829.476C34.3969 829.804 34.3089 830.208 34.3089 830.688C34.3089 831.4 34.4889 831.952 34.8489 832.344C35.2169 832.728 35.6769 832.92 36.2289 832.92ZM49.0173 827.28C49.5373 827.28 50.0013 827.388 50.4093 827.604C50.8253 827.82 51.1493 828.14 51.3813 828.564C51.6213 828.988 51.7413 829.5 51.7413 830.1V834H50.3853V830.304C50.3853 829.712 50.2373 829.26 49.9413 828.948C49.6453 828.628 49.2413 828.468 48.7293 828.468C48.2173 828.468 47.8093 828.628 47.5053 828.948C47.2093 829.26 47.0613 829.712 47.0613 830.304V834H45.7053V830.304C45.7053 829.712 45.5573 829.26 45.2613 828.948C44.9653 828.628 44.5613 828.468 44.0493 828.468C43.5373 828.468 43.1293 828.628 42.8253 828.948C42.5293 829.26 42.3813 829.712 42.3813 830.304V834H41.0133V827.388H42.3813V828.144C42.6053 827.872 42.8893 827.66 43.2333 827.508C43.5773 827.356 43.9453 827.28 44.3373 827.28C44.8653 827.28 45.3373 827.392 45.7533 827.616C46.1693 827.84 46.4893 828.164 46.7133 828.588C46.9133 828.188 47.2253 827.872 47.6493 827.64C48.0733 827.4 48.5293 827.28 49.0173 827.28ZM59.542 830.532C59.542 830.78 59.526 831.004 59.494 831.204H54.442C54.482 831.732 54.678 832.156 55.03 832.476C55.382 832.796 55.814 832.956 56.326 832.956C57.062 832.956 57.582 832.648 57.886 832.032H59.362C59.162 832.64 58.798 833.14 58.27 833.532C57.75 833.916 57.102 834.108 56.326 834.108C55.694 834.108 55.126 833.968 54.622 833.688C54.126 833.4 53.734 833 53.446 832.488C53.166 831.968 53.026 831.368 53.026 830.688C53.026 830.008 53.162 829.412 53.434 828.9C53.714 828.38 54.102 827.98 54.598 827.7C55.102 827.42 55.678 827.28 56.326 827.28C56.95 827.28 57.506 827.416 57.994 827.688C58.482 827.96 58.862 828.344 59.134 828.84C59.406 829.328 59.542 829.892 59.542 830.532ZM58.114 830.1C58.106 829.596 57.926 829.192 57.574 828.888C57.222 828.584 56.786 828.432 56.266 828.432C55.794 828.432 55.39 828.584 55.054 828.888C54.718 829.184 54.518 829.588 54.454 830.1H58.114Z" fill="#08B783"/>
<path d="M112.212 803.242C111.424 804.03 110.982 805.098 110.982 806.212C110.982 807.326 111.424 808.394 112.212 809.182L118.576 815.546C118.81 815.78 119.19 815.78 119.424 815.546L125.788 809.182C126.576 808.394 127.018 807.326 127.018 806.212C127.018 805.098 126.576 804.03 125.788 803.242C125.001 802.454 123.932 802.012 122.818 802.012C121.705 802.012 120.636 802.454 119.849 803.242L119.207 803.883C119.093 803.998 118.907 803.998 118.793 803.883L118.152 803.242C117.364 802.454 116.296 802.012 115.182 802.012C114.068 802.012 112.999 802.454 112.212 803.242Z" fill="#C2CCDE" fill-opacity="0.25" stroke="#414141" stroke-linecap="round" stroke-linejoin="round"/>
<path d="M96.808 825.66V826.776H93.268V829.236H96.028V830.352H93.268V834H91.9V825.66H96.808ZM97.6198 830.664C97.6198 830 97.7558 829.412 98.0278 828.9C98.3078 828.388 98.6838 827.992 99.1558 827.712C99.6358 827.424 100.164 827.28 100.74 827.28C101.26 827.28 101.712 827.384 102.096 827.592C102.488 827.792 102.8 828.044 103.032 828.348V827.388H104.412V834H103.032V833.016C102.8 833.328 102.484 833.588 102.084 833.796C101.684 834.004 101.228 834.108 100.716 834.108C100.148 834.108 99.6278 833.964 99.1558 833.676C98.6838 833.38 98.3078 832.972 98.0278 832.452C97.7558 831.924 97.6198 831.328 97.6198 830.664ZM103.032 830.688C103.032 830.232 102.936 829.836 102.744 829.5C102.56 829.164 102.316 828.908 102.012 828.732C101.708 828.556 101.38 828.468 101.028 828.468C100.676 828.468 100.348 828.556 100.044 828.732C99.7398 828.9 99.4918 829.152 99.2998 829.488C99.1158 829.816 99.0238 830.208 99.0238 830.664C99.0238 831.12 99.1158 831.52 99.2998 831.864C99.4918 832.208 99.7398 832.472 100.044 832.656C100.356 832.832 100.684 832.92 101.028 832.92C101.38 832.92 101.708 832.832 102.012 832.656C102.316 832.48 102.56 832.224 102.744 831.888C102.936 831.544 103.032 831.144 103.032 830.688ZM108.765 832.776L110.637 827.388H112.089L109.569 834H107.937L105.429 827.388H106.893L108.765 832.776ZM115.991 834.108C115.367 834.108 114.803 833.968 114.299 833.688C113.795 833.4 113.399 833 113.111 832.488C112.823 831.968 112.679 831.368 112.679 830.688C112.679 830.016 112.827 829.42 113.123 828.9C113.419 828.38 113.823 827.98 114.335 827.7C114.847 827.42 115.419 827.28 116.051 827.28C116.683 827.28 117.255 827.42 117.767 827.7C118.279 827.98 118.683 828.38 118.979 828.9C119.275 829.42 119.423 830.016 119.423 830.688C119.423 831.36 119.271 831.956 118.967 832.476C118.663 832.996 118.247 833.4 117.719 833.688C117.199 833.968 116.623 834.108 115.991 834.108ZM115.991 832.92C116.343 832.92 116.671 832.836 116.975 832.668C117.287 832.5 117.539 832.248 117.731 831.912C117.923 831.576 118.019 831.168 118.019 830.688C118.019 830.208 117.927 829.804 117.743 829.476C117.559 829.14 117.315 828.888 117.011 828.72C116.707 828.552 116.379 828.468 116.027 828.468C115.675 828.468 115.347 828.552 115.043 828.72C114.747 828.888 114.511 829.14 114.335 829.476C114.159 829.804 114.071 830.208 114.071 830.688C114.071 831.4 114.251 831.952 114.611 832.344C114.979 832.728 115.439 832.92 115.991 832.92ZM126.763 827.388V834H125.395V833.22C125.179 833.492 124.895 833.708 124.543 833.868C124.199 834.02 123.831 834.096 123.439 834.096C122.919 834.096 122.451 833.988 122.035 833.772C121.627 833.556 121.303 833.236 121.063 832.812C120.831 832.388 120.715 831.876 120.715 831.276V827.388H122.071V831.072C122.071 831.664 122.219 832.12 122.515 832.44C122.811 832.752 123.215 832.908 123.727 832.908C124.239 832.908 124.643 832.752 124.939 832.44C125.243 832.12 125.395 831.664 125.395 831.072V827.388H126.763ZM129.936 828.348C130.136 828.012 130.4 827.752 130.728 827.568C131.064 827.376 131.46 827.28 131.916 827.28V828.696H131.568C131.032 828.696 130.624 828.832 130.344 829.104C130.072 829.376 129.936 829.848 129.936 830.52V834H128.568V827.388H129.936V828.348ZM133.869 826.512C133.621 826.512 133.413 826.428 133.245 826.26C133.077 826.092 132.993 825.884 132.993 825.636C132.993 825.388 133.077 825.18 133.245 825.012C133.413 824.844 133.621 824.76 133.869 824.76C134.109 824.76 134.313 824.844 134.481 825.012C134.649 825.18 134.733 825.388 134.733 825.636C134.733 825.884 134.649 826.092 134.481 826.26C134.313 826.428 134.109 826.512 133.869 826.512ZM134.541 827.388V834H133.173V827.388H134.541ZM137.934 828.504V832.164C137.934 832.412 137.99 832.592 138.102 832.704C138.222 832.808 138.422 832.86 138.702 832.86H139.542V834H138.462C137.846 834 137.374 833.856 137.046 833.568C136.718 833.28 136.554 832.812 136.554 832.164V828.504H135.774V827.388H136.554V825.744H137.934V827.388H139.542V828.504H137.934ZM146.862 830.532C146.862 830.78 146.846 831.004 146.814 831.204H141.762C141.802 831.732 141.998 832.156 142.35 832.476C142.702 832.796 143.134 832.956 143.646 832.956C144.382 832.956 144.902 832.648 145.206 832.032H146.682C146.482 832.64 146.118 833.14 145.59 833.532C145.07 833.916 144.422 834.108 143.646 834.108C143.014 834.108 142.446 833.968 141.942 833.688C141.446 833.4 141.054 833 140.766 832.488C140.486 831.968 140.346 831.368 140.346 830.688C140.346 830.008 140.482 829.412 140.754 828.9C141.034 828.38 141.422 827.98 141.918 827.7C142.422 827.42 142.998 827.28 143.646 827.28C144.27 827.28 144.826 827.416 145.314 827.688C145.802 827.96 146.182 828.344 146.454 828.84C146.726 829.328 146.862 829.892 146.862 830.532ZM145.434 830.1C145.426 829.596 145.246 829.192 144.894 828.888C144.542 828.584 144.106 828.432 143.586 828.432C143.114 828.432 142.71 828.584 142.374 828.888C142.038 829.184 141.838 829.588 141.774 830.1H145.434Z" fill="#414141"/>
<path d="M352 818H340C339.337 818 338.8 817.463 338.8 816.8C338.8 814.815 340.031 813.039 341.89 812.342L342.259 812.204C344.671 811.3 347.329 811.3 349.741 812.204L350.11 812.342C351.969 813.039 353.2 814.815 353.2 816.8C353.2 817.463 352.663 818 352 818Z" fill="#C2CCDE" fill-opacity="0.25"/>
<path d="M344.17 808.66C345.319 809.25 346.681 809.25 347.83 808.66C348.898 808.111 349.664 807.111 349.916 805.937L349.983 805.623C350.24 804.421 349.965 803.168 349.229 802.183L349.122 802.039C348.386 801.055 347.229 800.476 346 800.476C344.771 800.476 343.614 801.055 342.878 802.039L342.771 802.183C342.035 803.168 341.76 804.421 342.017 805.623L342.085 805.937C342.336 807.111 343.102 808.111 344.17 808.66Z" fill="#C2CCDE" fill-opacity="0.25"/>
<path d="M352 818H340C339.337 818 338.8 817.463 338.8 816.8C338.8 814.815 340.031 813.039 341.89 812.342L342.259 812.204C344.671 811.3 347.329 811.3 349.741 812.204L350.11 812.342C351.969 813.039 353.2 814.815 353.2 816.8C353.2 817.463 352.663 818 352 818Z" stroke="#414141" stroke-linecap="round" stroke-linejoin="round"/>
<path d="M344.17 808.66C345.319 809.25 346.681 809.25 347.83 808.66C348.898 808.111 349.664 807.111 349.916 805.937L349.983 805.623C350.24 804.421 349.965 803.168 349.229 802.183L349.122 802.039C348.386 801.055 347.229 800.476 346 800.476C344.771 800.476 343.614 801.055 342.878 802.039L342.771 802.183C342.035 803.168 341.76 804.421 342.017 805.623L342.085 805.937C342.336 807.111 343.102 808.111 344.17 808.66Z" stroke="#414141" stroke-linecap="round" stroke-linejoin="round"/>
<path d="M333.732 828.144C333.732 828.568 333.632 828.968 333.432 829.344C333.232 829.72 332.912 830.028 332.472 830.268C332.032 830.5 331.468 830.616 330.78 830.616H329.268V834H327.9V825.66H330.78C331.42 825.66 331.96 825.772 332.4 825.996C332.848 826.212 333.18 826.508 333.396 826.884C333.62 827.26 333.732 827.68 333.732 828.144ZM330.78 829.5C331.3 829.5 331.688 829.384 331.944 829.152C332.2 828.912 332.328 828.576 332.328 828.144C332.328 827.232 331.812 826.776 330.78 826.776H329.268V829.5H330.78ZM336.405 828.348C336.605 828.012 336.869 827.752 337.197 827.568C337.533 827.376 337.929 827.28 338.385 827.28V828.696H338.037C337.501 828.696 337.093 828.832 336.813 829.104C336.541 829.376 336.405 829.848 336.405 830.52V834H335.037V827.388H336.405V828.348ZM342.51 834.108C341.886 834.108 341.322 833.968 340.818 833.688C340.314 833.4 339.918 833 339.63 832.488C339.342 831.968 339.198 831.368 339.198 830.688C339.198 830.016 339.346 829.42 339.642 828.9C339.938 828.38 340.342 827.98 340.854 827.7C341.366 827.42 341.938 827.28 342.57 827.28C343.202 827.28 343.774 827.42 344.286 827.7C344.798 827.98 345.202 828.38 345.498 828.9C345.794 829.42 345.942 830.016 345.942 830.688C345.942 831.36 345.79 831.956 345.486 832.476C345.182 832.996 344.766 833.4 344.238 833.688C343.718 833.968 343.142 834.108 342.51 834.108ZM342.51 832.92C342.862 832.92 343.19 832.836 343.494 832.668C343.806 832.5 344.058 832.248 344.25 831.912C344.442 831.576 344.538 831.168 344.538 830.688C344.538 830.208 344.446 829.804 344.262 829.476C344.078 829.14 343.834 828.888 343.53 828.72C343.226 828.552 342.898 828.468 342.546 828.468C342.194 828.468 341.866 828.552 341.562 828.72C341.266 828.888 341.03 829.14 340.854 829.476C340.678 829.804 340.59 830.208 340.59 830.688C340.59 831.4 340.77 831.952 341.13 832.344C341.498 832.728 341.958 832.92 342.51 832.92ZM350.067 828.504H348.843V834H347.463V828.504H346.683V827.388H347.463V826.92C347.463 826.16 347.663 825.608 348.063 825.264C348.471 824.912 349.107 824.736 349.971 824.736V825.876C349.555 825.876 349.263 825.956 349.095 826.116C348.927 826.268 348.843 826.536 348.843 826.92V827.388H350.067V828.504ZM351.975 826.512C351.727 826.512 351.519 826.428 351.351 826.26C351.183 826.092 351.099 825.884 351.099 825.636C351.099 825.388 351.183 825.18 351.351 825.012C351.519 824.844 351.727 824.76 351.975 824.76C352.215 824.76 352.419 824.844 352.587 825.012C352.755 825.18 352.839 825.388 352.839 825.636C352.839 825.884 352.755 826.092 352.587 826.26C352.419 826.428 352.215 826.512 351.975 826.512ZM352.647 827.388V834H351.279V827.388H352.647ZM355.811 825.12V834H354.443V825.12H355.811ZM363.667 830.532C363.667 830.78 363.651 831.004 363.619 831.204H358.567C358.607 831.732 358.803 832.156 359.155 832.476C359.507 832.796 359.939 832.956 360.451 832.956C361.187 832.956 361.707 832.648 362.011 832.032H363.487C363.287 832.64 362.923 833.14 362.395 833.532C361.875 833.916 361.227 834.108 360.451 834.108C359.819 834.108 359.251 833.968 358.747 833.688C358.251 833.4 357.859 833 357.571 832.488C357.291 831.968 357.151 831.368 357.151 830.688C357.151 830.008 357.287 829.412 357.559 828.9C357.839 828.38 358.227 827.98 358.723 827.7C359.227 827.42 359.803 827.28 360.451 827.28C361.075 827.28 361.631 827.416 362.119 827.688C362.607 827.96 362.987 828.344 363.259 828.84C363.531 829.328 363.667 829.892 363.667 830.532ZM362.239 830.1C362.231 829.596 362.051 829.192 361.699 828.888C361.347 828.584 360.911 828.432 360.391 828.432C359.919 828.432 359.515 828.584 359.179 828.888C358.843 829.184 358.643 829.588 358.579 830.1H362.239Z" fill="#414141"/>
<path d="M286.028 803.714C287.103 803.21 288.423 803.402 289.31 804.289C290.198 805.177 290.39 806.497 289.886 807.572C291.002 807.975 291.8 809.044 291.8 810.3C291.8 811.555 291.002 812.624 289.886 813.028C290.39 814.102 290.198 815.423 289.31 816.31C288.423 817.198 287.103 817.39 286.028 816.886C285.625 818.002 284.555 818.8 283.3 818.8C282.045 818.8 280.976 818.002 280.572 816.886C279.497 817.39 278.177 817.198 277.29 816.31C276.402 815.423 276.21 814.102 276.714 813.028C275.598 812.624 274.8 811.555 274.8 810.3C274.8 809.044 275.598 807.975 276.714 807.572C276.21 806.497 276.402 805.177 277.29 804.289C278.177 803.402 279.497 803.21 280.572 803.714C280.976 802.597 282.045 801.8 283.3 801.8C284.555 801.8 285.625 802.597 286.028 803.714Z" fill="#C2CCDE" fill-opacity="0.25"/>
<path d="M280.155 808.95C279.743 808.537 279.743 807.868 280.155 807.455C280.568 807.042 281.237 807.042 281.65 807.455C282.063 807.868 282.063 808.537 281.65 808.95C281.237 809.362 280.568 809.362 280.155 808.95Z" fill="#C2CCDE" fill-opacity="0.25"/>
<path d="M284.34 813.135C283.928 812.722 283.928 812.053 284.34 811.64C284.753 811.227 285.422 811.227 285.835 811.64C286.248 812.053 286.248 812.722 285.835 813.135C285.422 813.547 284.753 813.547 284.34 813.135Z" fill="#C2CCDE" fill-opacity="0.25"/>
<path d="M286.208 806.932L279.632 813.508M289.31 804.289C288.423 803.402 287.103 803.21 286.028 803.714C285.625 802.597 284.555 801.8 283.3 801.8C282.045 801.8 280.976 802.597 280.572 803.714C279.497 803.21 278.177 803.402 277.29 804.289C276.402 805.177 276.21 806.497 276.714 807.572C275.598 807.975 274.8 809.044 274.8 810.3C274.8 811.555 275.598 812.624 276.714 813.028C276.21 814.102 276.402 815.423 277.29 816.31C278.177 817.198 279.497 817.39 280.572 816.886C280.976 818.002 282.045 818.8 283.3 818.8C284.555 818.8 285.625 818.002 286.028 816.886C287.103 817.39 288.423 817.198 289.31 816.31C290.198 815.423 290.39 814.102 289.886 813.028C291.002 812.624 291.8 811.555 291.8 810.3C291.8 809.044 291.002 807.975 289.886 807.572C290.39 806.497 290.198 805.177 289.31 804.289ZM281.65 808.95C281.237 809.362 280.568 809.362 280.155 808.95C279.743 808.537 279.743 807.868 280.155 807.455C280.568 807.042 281.237 807.042 281.65 807.455C282.063 807.868 282.063 808.537 281.65 808.95ZM285.835 813.135C285.422 813.547 284.753 813.547 284.34 813.135C283.928 812.722 283.928 812.053 284.34 811.64C284.753 811.227 285.422 811.227 285.835 811.64C286.248 812.053 286.248 812.722 285.835 813.135Z" stroke="#414141" stroke-linecap="round" stroke-linejoin="round"/>
<path d="M272.704 835.084C271.928 835.084 271.212 834.904 270.556 834.544C269.908 834.176 269.392 833.668 269.008 833.02C268.632 832.364 268.444 831.628 268.444 830.812C268.444 829.996 268.632 829.264 269.008 828.616C269.392 827.968 269.908 827.464 270.556 827.104C271.212 826.736 271.928 826.552 272.704 826.552C273.488 826.552 274.204 826.736 274.852 827.104C275.508 827.464 276.024 827.968 276.4 828.616C276.776 829.264 276.964 829.996 276.964 830.812C276.964 831.628 276.776 832.364 276.4 833.02C276.024 833.668 275.508 834.176 274.852 834.544C274.204 834.904 273.488 835.084 272.704 835.084ZM272.704 833.896C273.256 833.896 273.748 833.772 274.18 833.524C274.612 833.268 274.948 832.908 275.188 832.444C275.436 831.972 275.56 831.428 275.56 830.812C275.56 830.196 275.436 829.656 275.188 829.192C274.948 828.728 274.612 828.372 274.18 828.124C273.748 827.876 273.256 827.752 272.704 827.752C272.152 827.752 271.66 827.876 271.228 828.124C270.796 828.372 270.456 828.728 270.208 829.192C269.968 829.656 269.848 830.196 269.848 830.812C269.848 831.428 269.968 831.972 270.208 832.444C270.456 832.908 270.796 833.268 271.228 833.524C271.66 833.772 272.152 833.896 272.704 833.896ZM281.082 829.504H279.858V835H278.478V829.504H277.698V828.388H278.478V827.92C278.478 827.16 278.678 826.608 279.078 826.264C279.486 825.912 280.122 825.736 280.986 825.736V826.876C280.57 826.876 280.278 826.956 280.11 827.116C279.942 827.268 279.858 827.536 279.858 827.92V828.388H281.082V829.504ZM285.067 829.504H283.843V835H282.463V829.504H281.683V828.388H282.463V827.92C282.463 827.16 282.663 826.608 283.063 826.264C283.471 825.912 284.107 825.736 284.971 825.736V826.876C284.555 826.876 284.263 826.956 284.095 827.116C283.927 827.268 283.843 827.536 283.843 827.92V828.388H285.067V829.504ZM292.339 831.532C292.339 831.78 292.323 832.004 292.291 832.204H287.239C287.279 832.732 287.475 833.156 287.827 833.476C288.179 833.796 288.611 833.956 289.123 833.956C289.859 833.956 290.379 833.648 290.683 833.032H292.159C291.959 833.64 291.595 834.14 291.067 834.532C290.547 834.916 289.899 835.108 289.123 835.108C288.491 835.108 287.923 834.968 287.419 834.688C286.923 834.4 286.531 834 286.243 833.488C285.963 832.968 285.823 832.368 285.823 831.688C285.823 831.008 285.959 830.412 286.231 829.9C286.511 829.38 286.899 828.98 287.395 828.7C287.899 828.42 288.475 828.28 289.123 828.28C289.747 828.28 290.303 828.416 290.791 828.688C291.279 828.96 291.659 829.344 291.931 829.84C292.203 830.328 292.339 830.892 292.339 831.532ZM290.911 831.1C290.903 830.596 290.723 830.192 290.371 829.888C290.019 829.584 289.583 829.432 289.063 829.432C288.591 829.432 288.187 829.584 287.851 829.888C287.515 830.184 287.315 830.588 287.251 831.1H290.911ZM295.053 829.348C295.253 829.012 295.517 828.752 295.845 828.568C296.181 828.376 296.577 828.28 297.033 828.28V829.696H296.685C296.149 829.696 295.741 829.832 295.461 830.104C295.189 830.376 295.053 830.848 295.053 831.52V835H293.685V828.388H295.053V829.348Z" fill="#414141"/>
<rect width="34" height="28" transform="translate(187 795)" fill="#EBEBEB"/>
<path d="M192.1 802.7V815.3C192.1 816.459 193.242 817.4 194.65 817.4H213.35C214.758 817.4 215.9 816.459 215.9 815.3V805.5C215.9 804.34 214.758 803.4 213.35 803.4H212.5V802.7C212.5 801.54 211.358 800.6 209.95 800.6H194.65C193.242 800.6 192.1 801.54 192.1 802.7Z" fill="#EBEBEB"/>
<path d="M209.1 810.05C209.1 809.276 209.861 808.65 210.8 808.65C211.739 808.65 212.5 809.276 212.5 810.05C212.5 810.823 211.739 811.45 210.8 811.45C209.861 811.45 209.1 810.823 209.1 810.05Z" fill="#EBEBEB"/>
<path d="M212.5 803.4V802.7C212.5 801.54 211.358 800.6 209.95 800.6H194.65C193.242 800.6 192.1 801.54 192.1 802.7V815.3C192.1 816.459 193.242 817.4 194.65 817.4H213.35C214.758 817.4 215.9 816.459 215.9 815.3V805.5C215.9 804.34 214.758 803.4 213.35 803.4H212.5ZM212.5 803.4H196.563M210.8 811.45C209.861 811.45 209.1 810.823 209.1 810.05C209.1 809.276 209.861 808.65 210.8 808.65C211.739 808.65 212.5 809.276 212.5 810.05C212.5 810.823 211.739 811.45 210.8 811.45Z" stroke="#333333" stroke-linecap="round" stroke-linejoin="round"/>
<path d="M195.76 826.66L193.288 835H191.74L189.988 828.688L188.128 835L186.592 835.012L184.228 826.66H185.68L187.408 833.452L189.28 826.66H190.816L192.556 833.416L194.296 826.66H195.76ZM196.432 831.664C196.432 831 196.568 830.412 196.84 829.9C197.12 829.388 197.496 828.992 197.968 828.712C198.448 828.424 198.976 828.28 199.552 828.28C200.072 828.28 200.524 828.384 200.908 828.592C201.3 828.792 201.612 829.044 201.844 829.348V828.388H203.224V835H201.844V834.016C201.612 834.328 201.296 834.588 200.896 834.796C200.496 835.004 200.04 835.108 199.528 835.108C198.96 835.108 198.44 834.964 197.968 834.676C197.496 834.38 197.12 833.972 196.84 833.452C196.568 832.924 196.432 832.328 196.432 831.664ZM201.844 831.688C201.844 831.232 201.748 830.836 201.556 830.5C201.372 830.164 201.128 829.908 200.824 829.732C200.52 829.556 200.192 829.468 199.84 829.468C199.488 829.468 199.16 829.556 198.856 829.732C198.552 829.9 198.304 830.152 198.112 830.488C197.928 830.816 197.836 831.208 197.836 831.664C197.836 832.12 197.928 832.52 198.112 832.864C198.304 833.208 198.552 833.472 198.856 833.656C199.168 833.832 199.496 833.92 199.84 833.92C200.192 833.92 200.52 833.832 200.824 833.656C201.128 833.48 201.372 833.224 201.556 832.888C201.748 832.544 201.844 832.144 201.844 831.688ZM206.389 826.12V835H205.021V826.12H206.389ZM209.553 826.12V835H208.185V826.12H209.553ZM217.409 831.532C217.409 831.78 217.393 832.004 217.361 832.204H212.309C212.349 832.732 212.545 833.156 212.897 833.476C213.249 833.796 213.681 833.956 214.193 833.956C214.929 833.956 215.449 833.648 215.753 833.032H217.229C217.029 833.64 216.665 834.14 216.137 834.532C215.617 834.916 214.969 835.108 214.193 835.108C213.561 835.108 212.993 834.968 212.489 834.688C211.993 834.4 211.601 834 211.313 833.488C211.033 832.968 210.893 832.368 210.893 831.688C210.893 831.008 211.029 830.412 211.301 829.9C211.581 829.38 211.969 828.98 212.465 828.7C212.969 828.42 213.545 828.28 214.193 828.28C214.817 828.28 215.373 828.416 215.861 828.688C216.349 828.96 216.729 829.344 217.001 829.84C217.273 830.328 217.409 830.892 217.409 831.532ZM215.981 831.1C215.973 830.596 215.793 830.192 215.441 829.888C215.089 829.584 214.653 829.432 214.133 829.432C213.661 829.432 213.257 829.584 212.921 829.888C212.585 830.184 212.385 830.588 212.321 831.1H215.981ZM220.351 829.504V833.164C220.351 833.412 220.407 833.592 220.519 833.704C220.639 833.808 220.839 833.86 221.119 833.86H221.959V835H220.879C220.263 835 219.791 834.856 219.463 834.568C219.135 834.28 218.971 833.812 218.971 833.164V829.504H218.191V828.388H218.971V826.744H220.351V828.388H221.959V829.504H220.351Z" fill="#414141"/>
</g>
<defs>
<clipPath id="clip0_78_3546">
<rect width="393" height="852" fill="white"/>
</clipPath>
</defs>
</svg>
