<svg width="2129" height="102" viewBox="0 0 2129 102" fill="none" xmlns="http://www.w3.org/2000/svg">
<rect width="2129" height="102" rx="4" fill="#52C498"/>
<path d="M66.3012 61.172H56.4072L54.7072 66H50.6612L59.1272 42.336H63.6152L72.0812 66H68.0012L66.3012 61.172ZM65.2132 58.01L61.3712 47.028L57.4952 58.01H65.2132ZM92.7282 47.266V66H88.8522V63.79C88.2402 64.5607 87.4355 65.1727 86.4382 65.626C85.4635 66.0567 84.4209 66.272 83.3102 66.272C81.8369 66.272 80.5109 65.966 79.3322 65.354C78.1762 64.742 77.2582 63.8353 76.5782 62.634C75.9209 61.4327 75.5922 59.982 75.5922 58.282V47.266H79.4342V57.704C79.4342 59.3813 79.8535 60.6733 80.6922 61.58C81.5309 62.464 82.6755 62.906 84.1262 62.906C85.5769 62.906 86.7215 62.464 87.5602 61.58C88.4215 60.6733 88.8522 59.3813 88.8522 57.704V47.266H92.7282ZM102.364 50.428V60.798C102.364 61.5007 102.523 62.0107 102.84 62.328C103.18 62.6227 103.747 62.77 104.54 62.77H106.92V66H103.86C102.115 66 100.778 65.592 99.8483 64.776C98.9189 63.96 98.4543 62.634 98.4543 60.798V50.428H96.2443V47.266H98.4543V42.608H102.364V47.266H106.92V50.428H102.364ZM120.183 46.96C121.611 46.96 122.88 47.266 123.991 47.878C125.124 48.49 126.008 49.3967 126.643 50.598C127.3 51.7993 127.629 53.25 127.629 54.95V66H123.787V55.528C123.787 53.8507 123.367 52.57 122.529 51.686C121.69 50.7793 120.545 50.326 119.095 50.326C117.644 50.326 116.488 50.7793 115.627 51.686C114.788 52.57 114.369 53.8507 114.369 55.528V66H110.493V40.84H114.369V49.442C115.026 48.6487 115.853 48.0367 116.851 47.606C117.871 47.1753 118.981 46.96 120.183 46.96ZM149.743 56.174C149.743 56.8767 149.697 57.5113 149.607 58.078H135.293C135.406 59.574 135.961 60.7753 136.959 61.682C137.956 62.5887 139.18 63.042 140.631 63.042C142.716 63.042 144.189 62.1693 145.051 60.424H149.233C148.666 62.1467 147.635 63.5633 146.139 64.674C144.665 65.762 142.829 66.306 140.631 66.306C138.84 66.306 137.231 65.9093 135.803 65.116C134.397 64.3 133.287 63.1667 132.471 61.716C131.677 60.2427 131.281 58.5427 131.281 56.616C131.281 54.6893 131.666 53.0007 132.437 51.55C133.23 50.0767 134.329 48.9433 135.735 48.15C137.163 47.3567 138.795 46.96 140.631 46.96C142.399 46.96 143.974 47.3453 145.357 48.116C146.739 48.8867 147.816 49.9747 148.587 51.38C149.357 52.7627 149.743 54.3607 149.743 56.174ZM145.697 54.95C145.674 53.522 145.164 52.3773 144.167 51.516C143.169 50.6547 141.934 50.224 140.461 50.224C139.123 50.224 137.979 50.6547 137.027 51.516C136.075 52.3547 135.508 53.4993 135.327 54.95H145.697ZM163.009 46.96C164.482 46.96 165.797 47.266 166.953 47.878C168.132 48.49 169.05 49.3967 169.707 50.598C170.364 51.7993 170.693 53.25 170.693 54.95V66H166.851V55.528C166.851 53.8507 166.432 52.57 165.593 51.686C164.754 50.7793 163.61 50.326 162.159 50.326C160.708 50.326 159.552 50.7793 158.691 51.686C157.852 52.57 157.433 53.8507 157.433 55.528V66H153.557V47.266H157.433V49.408C158.068 48.6373 158.872 48.0367 159.847 47.606C160.844 47.1753 161.898 46.96 163.009 46.96ZM180.159 50.428V60.798C180.159 61.5007 180.318 62.0107 180.635 62.328C180.975 62.6227 181.542 62.77 182.335 62.77H184.715V66H181.655C179.91 66 178.573 65.592 177.643 64.776C176.714 63.96 176.249 62.634 176.249 60.798V50.428H174.039V47.266H176.249V42.608H180.159V47.266H184.715V50.428H180.159ZM190.26 44.784C189.557 44.784 188.968 44.546 188.492 44.07C188.016 43.594 187.778 43.0047 187.778 42.302C187.778 41.5993 188.016 41.01 188.492 40.534C188.968 40.058 189.557 39.82 190.26 39.82C190.94 39.82 191.518 40.058 191.994 40.534C192.47 41.01 192.708 41.5993 192.708 42.302C192.708 43.0047 192.47 43.594 191.994 44.07C191.518 44.546 190.94 44.784 190.26 44.784ZM192.164 47.266V66H188.288V47.266H192.164ZM195.96 56.616C195.96 54.6893 196.346 53.0007 197.116 51.55C197.91 50.0767 198.998 48.9433 200.38 48.15C201.763 47.3567 203.35 46.96 205.14 46.96C207.407 46.96 209.277 47.504 210.75 48.592C212.246 49.6573 213.255 51.1873 213.776 53.182H209.594C209.254 52.2527 208.71 51.5273 207.962 51.006C207.214 50.4847 206.274 50.224 205.14 50.224C203.554 50.224 202.284 50.7907 201.332 51.924C200.403 53.0347 199.938 54.5987 199.938 56.616C199.938 58.6333 200.403 60.2087 201.332 61.342C202.284 62.4753 203.554 63.042 205.14 63.042C207.384 63.042 208.869 62.056 209.594 60.084H213.776C213.232 61.988 212.212 63.5067 210.716 64.64C209.22 65.7507 207.362 66.306 205.14 66.306C203.35 66.306 201.763 65.9093 200.38 65.116C198.998 64.3 197.91 63.1667 197.116 61.716C196.346 60.2427 195.96 58.5427 195.96 56.616ZM216.347 56.548C216.347 54.6667 216.732 53.0007 217.503 51.55C218.296 50.0993 219.362 48.9773 220.699 48.184C222.059 47.368 223.555 46.96 225.187 46.96C226.66 46.96 227.941 47.2547 229.029 47.844C230.14 48.4107 231.024 49.1247 231.681 49.986V47.266H235.591V66H231.681V63.212C231.024 64.096 230.128 64.8327 228.995 65.422C227.862 66.0113 226.57 66.306 225.119 66.306C223.51 66.306 222.036 65.898 220.699 65.082C219.362 64.2433 218.296 63.0873 217.503 61.614C216.732 60.118 216.347 58.4293 216.347 56.548ZM231.681 56.616C231.681 55.324 231.409 54.202 230.865 53.25C230.344 52.298 229.652 51.5727 228.791 51.074C227.93 50.5753 227 50.326 226.003 50.326C225.006 50.326 224.076 50.5753 223.215 51.074C222.354 51.55 221.651 52.264 221.107 53.216C220.586 54.1453 220.325 55.256 220.325 56.548C220.325 57.84 220.586 58.9733 221.107 59.948C221.651 60.9227 222.354 61.6707 223.215 62.192C224.099 62.6907 225.028 62.94 226.003 62.94C227 62.94 227.93 62.6907 228.791 62.192C229.652 61.6933 230.344 60.968 230.865 60.016C231.409 59.0413 231.681 57.908 231.681 56.616ZM245.204 50.428V60.798C245.204 61.5007 245.363 62.0107 245.68 62.328C246.02 62.6227 246.587 62.77 247.38 62.77H249.76V66H246.7C244.955 66 243.617 65.592 242.688 64.776C241.759 63.96 241.294 62.634 241.294 60.798V50.428H239.084V47.266H241.294V42.608H245.204V47.266H249.76V50.428H245.204ZM255.305 44.784C254.602 44.784 254.013 44.546 253.537 44.07C253.061 43.594 252.823 43.0047 252.823 42.302C252.823 41.5993 253.061 41.01 253.537 40.534C254.013 40.058 254.602 39.82 255.305 39.82C255.985 39.82 256.563 40.058 257.039 40.534C257.515 41.01 257.753 41.5993 257.753 42.302C257.753 43.0047 257.515 43.594 257.039 44.07C256.563 44.546 255.985 44.784 255.305 44.784ZM257.209 47.266V66H253.333V47.266H257.209ZM270.423 66.306C268.655 66.306 267.057 65.9093 265.629 65.116C264.201 64.3 263.079 63.1667 262.263 61.716C261.447 60.2427 261.039 58.5427 261.039 56.616C261.039 54.712 261.459 53.0233 262.297 51.55C263.136 50.0767 264.281 48.9433 265.731 48.15C267.182 47.3567 268.803 46.96 270.593 46.96C272.384 46.96 274.005 47.3567 275.455 48.15C276.906 48.9433 278.051 50.0767 278.889 51.55C279.728 53.0233 280.147 54.712 280.147 56.616C280.147 58.52 279.717 60.2087 278.855 61.682C277.994 63.1553 276.815 64.3 275.319 65.116C273.846 65.9093 272.214 66.306 270.423 66.306ZM270.423 62.94C271.421 62.94 272.35 62.702 273.211 62.226C274.095 61.75 274.809 61.036 275.353 60.084C275.897 59.132 276.169 57.976 276.169 56.616C276.169 55.256 275.909 54.1113 275.387 53.182C274.866 52.23 274.175 51.516 273.313 51.04C272.452 50.564 271.523 50.326 270.525 50.326C269.528 50.326 268.599 50.564 267.737 51.04C266.899 51.516 266.23 52.23 265.731 53.182C265.233 54.1113 264.983 55.256 264.983 56.616C264.983 58.6333 265.493 60.1973 266.513 61.308C267.556 62.396 268.859 62.94 270.423 62.94ZM293.431 46.96C294.904 46.96 296.219 47.266 297.375 47.878C298.554 48.49 299.472 49.3967 300.129 50.598C300.786 51.7993 301.115 53.25 301.115 54.95V66H297.273V55.528C297.273 53.8507 296.854 52.57 296.015 51.686C295.176 50.7793 294.032 50.326 292.581 50.326C291.13 50.326 289.974 50.7793 289.113 51.686C288.274 52.57 287.855 53.8507 287.855 55.528V66H283.979V47.266H287.855V49.408C288.49 48.6373 289.294 48.0367 290.269 47.606C291.266 47.1753 292.32 46.96 293.431 46.96Z" fill="#414141"/>
</svg>
