<svg width="400" height="400" viewBox="0 0 400 400" fill="none" xmlns="http://www.w3.org/2000/svg">
  <!-- Background Circle -->
  <circle cx="200" cy="200" r="200" fill="#3B82F6"/>
  
  <!-- Face -->
  <ellipse cx="200" cy="180" rx="85" ry="95" fill="#FDB98F"/>
  
  <!-- Hair -->
  <path d="M115 140C115 100 145 70 200 70C255 70 285 100 285 140C285 145 285 150 284 155L280 140C275 120 260 105 240 100C220 95 200 95 180 95C160 95 140 100 125 115C120 120 116 130 115 140Z" fill="#2C1810"/>
  
  <!-- Ears -->
  <ellipse cx="115" cy="180" rx="18" ry="25" fill="#F4A86F"/>
  <ellipse cx="285" cy="180" rx="18" ry="25" fill="#F4A86F"/>
  
  <!-- Eyes -->
  <ellipse cx="170" cy="170" rx="12" ry="15" fill="white"/>
  <ellipse cx="230" cy="170" rx="12" ry="15" fill="white"/>
  <circle cx="172" cy="172" r="8" fill="#2C1810"/>
  <circle cx="232" cy="172" r="8" fill="#2C1810"/>
  <circle cx="174" cy="170" r="3" fill="white"/>
  <circle cx="234" cy="170" r="3" fill="white"/>
  
  <!-- Eyebrows -->
  <path d="M155 155C160 152 170 150 182 152" stroke="#2C1810" stroke-width="4" stroke-linecap="round" fill="none"/>
  <path d="M245 155C240 152 230 150 218 152" stroke="#2C1810" stroke-width="4" stroke-linecap="round" fill="none"/>
  
  <!-- Nose -->
  <path d="M200 180L195 200L200 205L205 200L200 180Z" fill="#E59870"/>
  
  <!-- Mouth -->
  <path d="M180 220C185 228 192 232 200 232C208 232 215 228 220 220" stroke="#2C1810" stroke-width="3" stroke-linecap="round" fill="none"/>
  
  <!-- Smile -->
  <path d="M180 220C185 226 192 230 200 230C208 230 215 226 220 220" fill="#D67070"/>
  
  <!-- Neck -->
  <rect x="175" y="260" width="50" height="40" fill="#F4A86F"/>
  
  <!-- Shirt -->
  <path d="M150 300L175 260L200 280L225 260L250 300L250 400L150 400Z" fill="#1F2937"/>
  <path d="M200 280L200 400" stroke="#374151" stroke-width="2"/>
  
  <!-- Collar -->
  <path d="M175 260L180 280L200 280" fill="#374151"/>
  <path d="M225 260L220 280L200 280" fill="#374151"/>
</svg>
