<svg width="1434" height="109" viewBox="0 0 1434 109" fill="none" xmlns="http://www.w3.org/2000/svg">
<rect width="1434" height="109" rx="4" fill="#52C498"/>
<path d="M62.336 68.238C60.7493 68.238 59.3213 67.966 58.052 67.422C56.7827 66.8553 55.7853 66.062 55.06 65.042C54.3347 64.022 53.972 62.832 53.972 61.472H58.12C58.2107 62.492 58.6073 63.3307 59.31 63.988C60.0353 64.6453 61.044 64.974 62.336 64.974C63.6733 64.974 64.716 64.6567 65.464 64.022C66.212 63.3647 66.586 62.526 66.586 61.506C66.586 60.7127 66.348 60.0667 65.872 59.568C65.4187 59.0693 64.8407 58.684 64.138 58.412C63.458 58.14 62.506 57.8453 61.282 57.528C59.7407 57.12 58.4827 56.712 57.508 56.304C56.556 55.8733 55.74 55.216 55.06 54.332C54.38 53.448 54.04 52.2693 54.04 50.796C54.04 49.436 54.38 48.246 55.06 47.226C55.74 46.206 56.692 45.424 57.916 44.88C59.14 44.336 60.5567 44.064 62.166 44.064C64.4553 44.064 66.3253 44.642 67.776 45.798C69.2493 46.9313 70.0653 48.4953 70.224 50.49H65.94C65.872 49.6287 65.464 48.892 64.716 48.28C63.968 47.668 62.982 47.362 61.758 47.362C60.6473 47.362 59.7407 47.6453 59.038 48.212C58.3353 48.7787 57.984 49.5947 57.984 50.66C57.984 51.3853 58.1993 51.986 58.63 52.462C59.0833 52.9153 59.65 53.278 60.33 53.55C61.01 53.822 61.9393 54.1167 63.118 54.434C64.682 54.8647 65.9513 55.2953 66.926 55.726C67.9233 56.1567 68.762 56.8253 69.442 57.732C70.1447 58.616 70.496 59.806 70.496 61.302C70.496 62.5033 70.1673 63.6367 69.51 64.702C68.8753 65.7673 67.9347 66.6287 66.688 67.286C65.464 67.9207 64.0133 68.238 62.336 68.238ZM78.9455 52.02C79.6029 51.1587 80.4982 50.4333 81.6315 49.844C82.7649 49.2547 84.0455 48.96 85.4735 48.96C87.1055 48.96 88.5902 49.368 89.9275 50.184C91.2875 50.9773 92.3529 52.0993 93.1235 53.55C93.8942 55.0007 94.2795 56.6667 94.2795 58.548C94.2795 60.4293 93.8942 62.118 93.1235 63.614C92.3529 65.0873 91.2875 66.2433 89.9275 67.082C88.5902 67.898 87.1055 68.306 85.4735 68.306C84.0455 68.306 82.7762 68.0227 81.6655 67.456C80.5549 66.8667 79.6482 66.1413 78.9455 65.28V76.908H75.0695V49.266H78.9455V52.02ZM90.3355 58.548C90.3355 57.256 90.0635 56.1453 89.5195 55.216C88.9982 54.264 88.2955 53.55 87.4115 53.074C86.5502 52.5753 85.6209 52.326 84.6235 52.326C83.6489 52.326 82.7195 52.5753 81.8355 53.074C80.9742 53.5727 80.2715 54.298 79.7275 55.25C79.2062 56.202 78.9455 57.324 78.9455 58.616C78.9455 59.908 79.2062 61.0413 79.7275 62.016C80.2715 62.968 80.9742 63.6933 81.8355 64.192C82.7195 64.6907 83.6489 64.94 84.6235 64.94C85.6209 64.94 86.5502 64.6907 87.4115 64.192C88.2955 63.6707 88.9982 62.9227 89.5195 61.948C90.0635 60.9733 90.3355 59.84 90.3355 58.548ZM101.989 42.84V68H98.1125V42.84H101.989ZM105.785 58.548C105.785 56.6667 106.171 55.0007 106.941 53.55C107.735 52.0993 108.8 50.9773 110.137 50.184C111.497 49.368 112.993 48.96 114.625 48.96C116.099 48.96 117.379 49.2547 118.467 49.844C119.578 50.4107 120.462 51.1247 121.119 51.986V49.266H125.029V68H121.119V65.212C120.462 66.096 119.567 66.8327 118.433 67.422C117.3 68.0113 116.008 68.306 114.557 68.306C112.948 68.306 111.475 67.898 110.137 67.082C108.8 66.2433 107.735 65.0873 106.941 63.614C106.171 62.118 105.785 60.4293 105.785 58.548ZM121.119 58.616C121.119 57.324 120.847 56.202 120.303 55.25C119.782 54.298 119.091 53.5727 118.229 53.074C117.368 52.5753 116.439 52.326 115.441 52.326C114.444 52.326 113.515 52.5753 112.653 53.074C111.792 53.55 111.089 54.264 110.545 55.216C110.024 56.1453 109.763 57.256 109.763 58.548C109.763 59.84 110.024 60.9733 110.545 61.948C111.089 62.9227 111.792 63.6707 112.653 64.192C113.537 64.6907 114.467 64.94 115.441 64.94C116.439 64.94 117.368 64.6907 118.229 64.192C119.091 63.6933 119.782 62.968 120.303 62.016C120.847 61.0413 121.119 59.908 121.119 58.616ZM136.92 68.306C135.447 68.306 134.121 68.0453 132.942 67.524C131.786 66.98 130.868 66.2547 130.188 65.348C129.508 64.4187 129.146 63.3873 129.1 62.254H133.112C133.18 63.0473 133.554 63.716 134.234 64.26C134.937 64.7813 135.81 65.042 136.852 65.042C137.94 65.042 138.779 64.838 139.368 64.43C139.98 63.9993 140.286 63.4553 140.286 62.798C140.286 62.0953 139.946 61.574 139.266 61.234C138.609 60.894 137.555 60.52 136.104 60.112C134.699 59.7267 133.554 59.3527 132.67 58.99C131.786 58.6273 131.016 58.072 130.358 57.324C129.724 56.576 129.406 55.59 129.406 54.366C129.406 53.3687 129.701 52.462 130.29 51.646C130.88 50.8073 131.718 50.15 132.806 49.674C133.917 49.198 135.186 48.96 136.614 48.96C138.745 48.96 140.456 49.504 141.748 50.592C143.063 51.6573 143.766 53.1193 143.856 54.978H139.98C139.912 54.1393 139.572 53.4707 138.96 52.972C138.348 52.4733 137.521 52.224 136.478 52.224C135.458 52.224 134.676 52.4167 134.132 52.802C133.588 53.1873 133.316 53.6973 133.316 54.332C133.316 54.8307 133.498 55.25 133.86 55.59C134.223 55.93 134.665 56.202 135.186 56.406C135.708 56.5873 136.478 56.8253 137.498 57.12C138.858 57.4827 139.969 57.8567 140.83 58.242C141.714 58.6047 142.474 59.1487 143.108 59.874C143.743 60.5993 144.072 61.5627 144.094 62.764C144.094 63.8293 143.8 64.7813 143.21 65.62C142.621 66.4587 141.782 67.116 140.694 67.592C139.629 68.068 138.371 68.306 136.92 68.306ZM157.972 48.96C159.4 48.96 160.67 49.266 161.78 49.878C162.914 50.49 163.798 51.3967 164.432 52.598C165.09 53.7993 165.418 55.25 165.418 56.95V68H161.576V57.528C161.576 55.8507 161.157 54.57 160.318 53.686C159.48 52.7793 158.335 52.326 156.884 52.326C155.434 52.326 154.278 52.7793 153.416 53.686C152.578 54.57 152.158 55.8507 152.158 57.528V68H148.282V42.84H152.158V51.442C152.816 50.6487 153.643 50.0367 154.64 49.606C155.66 49.1753 156.771 48.96 157.972 48.96ZM195.719 51.408C195.719 52.6093 195.435 53.7427 194.869 54.808C194.302 55.8733 193.395 56.746 192.149 57.426C190.902 58.0833 189.304 58.412 187.355 58.412H183.071V68H179.195V44.37H187.355C189.168 44.37 190.698 44.6873 191.945 45.322C193.214 45.934 194.155 46.7727 194.767 47.838C195.401 48.9033 195.719 50.0933 195.719 51.408ZM187.355 55.25C188.828 55.25 189.927 54.9213 190.653 54.264C191.378 53.584 191.741 52.632 191.741 51.408C191.741 48.824 190.279 47.532 187.355 47.532H183.071V55.25H187.355ZM198.123 58.548C198.123 56.6667 198.509 55.0007 199.279 53.55C200.073 52.0993 201.138 50.9773 202.475 50.184C203.835 49.368 205.331 48.96 206.963 48.96C208.437 48.96 209.717 49.2547 210.805 49.844C211.916 50.4107 212.8 51.1247 213.457 51.986V49.266H217.367V68H213.457V65.212C212.8 66.096 211.905 66.8327 210.771 67.422C209.638 68.0113 208.346 68.306 206.895 68.306C205.286 68.306 203.813 67.898 202.475 67.082C201.138 66.2433 200.073 65.0873 199.279 63.614C198.509 62.118 198.123 60.4293 198.123 58.548ZM213.457 58.616C213.457 57.324 213.185 56.202 212.641 55.25C212.12 54.298 211.429 53.5727 210.567 53.074C209.706 52.5753 208.777 52.326 207.779 52.326C206.782 52.326 205.853 52.5753 204.991 53.074C204.13 53.55 203.427 54.264 202.883 55.216C202.362 56.1453 202.101 57.256 202.101 58.548C202.101 59.84 202.362 60.9733 202.883 61.948C203.427 62.9227 204.13 63.6707 204.991 64.192C205.875 64.6907 206.805 64.94 207.779 64.94C208.777 64.94 209.706 64.6907 210.567 64.192C211.429 63.6933 212.12 62.968 212.641 62.016C213.185 61.0413 213.457 59.908 213.457 58.616ZM230.006 48.96C231.457 48.96 232.738 49.2547 233.848 49.844C234.982 50.4107 235.866 51.1247 236.5 51.986V49.266H240.41V68.306C240.41 70.0287 240.048 71.5587 239.322 72.896C238.597 74.256 237.543 75.3213 236.16 76.092C234.8 76.8627 233.168 77.248 231.264 77.248C228.726 77.248 226.618 76.6473 224.94 75.446C223.263 74.2673 222.311 72.658 222.084 70.618H225.926C226.221 71.5927 226.844 72.3747 227.796 72.964C228.771 73.576 229.927 73.882 231.264 73.882C232.828 73.882 234.086 73.406 235.038 72.454C236.013 71.502 236.5 70.1193 236.5 68.306V65.178C235.843 66.062 234.948 66.81 233.814 67.422C232.704 68.0113 231.434 68.306 230.006 68.306C228.374 68.306 226.878 67.898 225.518 67.082C224.181 66.2433 223.116 65.0873 222.322 63.614C221.552 62.118 221.166 60.4293 221.166 58.548C221.166 56.6667 221.552 55.0007 222.322 53.55C223.116 52.0993 224.181 50.9773 225.518 50.184C226.878 49.368 228.374 48.96 230.006 48.96ZM236.5 58.616C236.5 57.324 236.228 56.202 235.684 55.25C235.163 54.298 234.472 53.5727 233.61 53.074C232.749 52.5753 231.82 52.326 230.822 52.326C229.825 52.326 228.896 52.5753 228.034 53.074C227.173 53.55 226.47 54.264 225.926 55.216C225.405 56.1453 225.144 57.256 225.144 58.548C225.144 59.84 225.405 60.9733 225.926 61.948C226.47 62.9227 227.173 63.6707 228.034 64.192C228.918 64.6907 229.848 64.94 230.822 64.94C231.82 64.94 232.749 64.6907 233.61 64.192C234.472 63.6933 235.163 62.968 235.684 62.016C236.228 61.0413 236.5 59.908 236.5 58.616ZM262.671 58.174C262.671 58.8767 262.626 59.5113 262.535 60.078H248.221C248.335 61.574 248.89 62.7753 249.887 63.682C250.885 64.5887 252.109 65.042 253.559 65.042C255.645 65.042 257.118 64.1693 257.979 62.424H262.161C261.595 64.1467 260.563 65.5633 259.067 66.674C257.594 67.762 255.758 68.306 253.559 68.306C251.769 68.306 250.159 67.9093 248.731 67.116C247.326 66.3 246.215 65.1667 245.399 63.716C244.606 62.2427 244.209 60.5427 244.209 58.616C244.209 56.6893 244.595 55.0007 245.365 53.55C246.159 52.0767 247.258 50.9433 248.663 50.15C250.091 49.3567 251.723 48.96 253.559 48.96C255.327 48.96 256.903 49.3453 258.285 50.116C259.668 50.8867 260.745 51.9747 261.515 53.38C262.286 54.7627 262.671 56.3607 262.671 58.174ZM258.625 56.95C258.603 55.522 258.093 54.3773 257.095 53.516C256.098 52.6547 254.863 52.224 253.389 52.224C252.052 52.224 250.907 52.6547 249.955 53.516C249.003 54.3547 248.437 55.4993 248.255 56.95H258.625Z" fill="#414141"/>
</svg>
