<svg width="1089" height="102" viewBox="0 0 1089 102" fill="none" xmlns="http://www.w3.org/2000/svg">
<rect width="1089" height="102" rx="4" fill="#52C498"/>
<path d="M128.805 66.238C127.218 66.238 125.79 65.966 124.521 65.422C123.251 64.8553 122.254 64.062 121.529 63.042C120.803 62.022 120.441 60.832 120.441 59.472H124.589C124.679 60.492 125.076 61.3307 125.779 61.988C126.504 62.6453 127.513 62.974 128.805 62.974C130.142 62.974 131.185 62.6567 131.933 62.022C132.681 61.3647 133.055 60.526 133.055 59.506C133.055 58.7127 132.817 58.0667 132.341 57.568C131.887 57.0693 131.309 56.684 130.607 56.412C129.927 56.14 128.975 55.8453 127.751 55.528C126.209 55.12 124.951 54.712 123.977 54.304C123.025 53.8733 122.209 53.216 121.529 52.332C120.849 51.448 120.509 50.2693 120.509 48.796C120.509 47.436 120.849 46.246 121.529 45.226C122.209 44.206 123.161 43.424 124.385 42.88C125.609 42.336 127.025 42.064 128.635 42.064C130.924 42.064 132.794 42.642 134.245 43.798C135.718 44.9313 136.534 46.4953 136.693 48.49H132.409C132.341 47.6287 131.933 46.892 131.185 46.28C130.437 45.668 129.451 45.362 128.227 45.362C127.116 45.362 126.209 45.6453 125.507 46.212C124.804 46.7787 124.453 47.5947 124.453 48.66C124.453 49.3853 124.668 49.986 125.099 50.462C125.552 50.9153 126.119 51.278 126.799 51.55C127.479 51.822 128.408 52.1167 129.587 52.434C131.151 52.8647 132.42 53.2953 133.395 53.726C134.392 54.1567 135.231 54.8253 135.911 55.732C136.613 56.616 136.965 57.806 136.965 59.302C136.965 60.5033 136.636 61.6367 135.979 62.702C135.344 63.7673 134.403 64.6287 133.157 65.286C131.933 65.9207 130.482 66.238 128.805 66.238ZM143.51 44.784C142.807 44.784 142.218 44.546 141.742 44.07C141.266 43.594 141.028 43.0047 141.028 42.302C141.028 41.5993 141.266 41.01 141.742 40.534C142.218 40.058 142.807 39.82 143.51 39.82C144.19 39.82 144.768 40.058 145.244 40.534C145.72 41.01 145.958 41.5993 145.958 42.302C145.958 43.0047 145.72 43.594 145.244 44.07C144.768 44.546 144.19 44.784 143.51 44.784ZM145.414 47.266V66H141.538V47.266H145.414ZM149.211 56.548C149.211 54.6667 149.596 53.0007 150.367 51.55C151.16 50.0993 152.226 48.9773 153.563 48.184C154.923 47.368 156.43 46.96 158.085 46.96C159.309 46.96 160.51 47.232 161.689 47.776C162.89 48.2973 163.842 49 164.545 49.884V40.84H168.455V66H164.545V63.178C163.91 64.0847 163.026 64.8327 161.893 65.422C160.782 66.0113 159.502 66.306 158.051 66.306C156.419 66.306 154.923 65.898 153.563 65.082C152.226 64.2433 151.16 63.0873 150.367 61.614C149.596 60.118 149.211 58.4293 149.211 56.548ZM164.545 56.616C164.545 55.324 164.273 54.202 163.729 53.25C163.208 52.298 162.516 51.5727 161.655 51.074C160.794 50.5753 159.864 50.326 158.867 50.326C157.87 50.326 156.94 50.5753 156.079 51.074C155.218 51.55 154.515 52.264 153.971 53.216C153.45 54.1453 153.189 55.256 153.189 56.548C153.189 57.84 153.45 58.9733 153.971 59.948C154.515 60.9227 155.218 61.6707 156.079 62.192C156.963 62.6907 157.892 62.94 158.867 62.94C159.864 62.94 160.794 62.6907 161.655 62.192C162.516 61.6933 163.208 60.968 163.729 60.016C164.273 59.0413 164.545 57.908 164.545 56.616ZM190.716 56.174C190.716 56.8767 190.671 57.5113 190.58 58.078H176.266C176.379 59.574 176.935 60.7753 177.932 61.682C178.929 62.5887 180.153 63.042 181.604 63.042C183.689 63.042 185.163 62.1693 186.024 60.424H190.206C189.639 62.1467 188.608 63.5633 187.112 64.674C185.639 65.762 183.803 66.306 181.604 66.306C179.813 66.306 178.204 65.9093 176.776 65.116C175.371 64.3 174.26 63.1667 173.444 61.716C172.651 60.2427 172.254 58.5427 172.254 56.616C172.254 54.6893 172.639 53.0007 173.41 51.55C174.203 50.0767 175.303 48.9433 176.708 48.15C178.136 47.3567 179.768 46.96 181.604 46.96C183.372 46.96 184.947 47.3453 186.33 48.116C187.713 48.8867 188.789 49.9747 189.56 51.38C190.331 52.7627 190.716 54.3607 190.716 56.174ZM186.67 54.95C186.647 53.522 186.137 52.3773 185.14 51.516C184.143 50.6547 182.907 50.224 181.434 50.224C180.097 50.224 178.952 50.6547 178 51.516C177.048 52.3547 176.481 53.4993 176.3 54.95H186.67ZM228.25 42.37V66H224.374V49.816L217.166 66H214.48L207.238 49.816V66H203.362V42.37H207.544L215.84 60.9L224.102 42.37H228.25ZM250.515 56.174C250.515 56.8767 250.469 57.5113 250.379 58.078H236.065C236.178 59.574 236.733 60.7753 237.731 61.682C238.728 62.5887 239.952 63.042 241.403 63.042C243.488 63.042 244.961 62.1693 245.823 60.424H250.005C249.438 62.1467 248.407 63.5633 246.911 64.674C245.437 65.762 243.601 66.306 241.403 66.306C239.612 66.306 238.003 65.9093 236.575 65.116C235.169 64.3 234.059 63.1667 233.243 61.716C232.449 60.2427 232.053 58.5427 232.053 56.616C232.053 54.6893 232.438 53.0007 233.209 51.55C234.002 50.0767 235.101 48.9433 236.507 48.15C237.935 47.3567 239.567 46.96 241.403 46.96C243.171 46.96 244.746 47.3453 246.129 48.116C247.511 48.8867 248.588 49.9747 249.359 51.38C250.129 52.7627 250.515 54.3607 250.515 56.174ZM246.469 54.95C246.446 53.522 245.936 52.3773 244.939 51.516C243.941 50.6547 242.706 50.224 241.233 50.224C239.895 50.224 238.751 50.6547 237.799 51.516C236.847 52.3547 236.28 53.4993 236.099 54.95H246.469ZM263.781 46.96C265.255 46.96 266.569 47.266 267.725 47.878C268.904 48.49 269.822 49.3967 270.479 50.598C271.137 51.7993 271.465 53.25 271.465 54.95V66H267.623V55.528C267.623 53.8507 267.204 52.57 266.365 51.686C265.527 50.7793 264.382 50.326 262.931 50.326C261.481 50.326 260.325 50.7793 259.463 51.686C258.625 52.57 258.205 53.8507 258.205 55.528V66H254.329V47.266H258.205V49.408C258.84 48.6373 259.645 48.0367 260.619 47.606C261.617 47.1753 262.671 46.96 263.781 46.96ZM293.375 47.266V66H289.499V63.79C288.887 64.5607 288.083 65.1727 287.085 65.626C286.111 66.0567 285.068 66.272 283.957 66.272C282.484 66.272 281.158 65.966 279.979 65.354C278.823 64.742 277.905 63.8353 277.225 62.634C276.568 61.4327 276.239 59.982 276.239 58.282V47.266H280.081V57.704C280.081 59.3813 280.501 60.6733 281.339 61.58C282.178 62.464 283.323 62.906 284.773 62.906C286.224 62.906 287.369 62.464 288.207 61.58C289.069 60.6733 289.499 59.3813 289.499 57.704V47.266H293.375Z" fill="#414141"/>
</svg>
