<svg width="6238" height="102" viewBox="0 0 6238 102" fill="none" xmlns="http://www.w3.org/2000/svg">
<rect width="6238" height="102" rx="4" fill="#52C498"/>
<path d="M287.455 42.37V45.532H281.165V66H277.289V45.532H270.965V42.37H287.455ZM295.256 49.986C295.823 49.034 296.571 48.2973 297.5 47.776C298.452 47.232 299.574 46.96 300.866 46.96V50.972H299.88C298.361 50.972 297.205 51.3573 296.412 52.128C295.641 52.8987 295.256 54.236 295.256 56.14V66H291.38V47.266H295.256V49.986ZM303.137 56.548C303.137 54.6667 303.522 53.0007 304.293 51.55C305.086 50.0993 306.152 48.9773 307.489 48.184C308.849 47.368 310.345 46.96 311.977 46.96C313.45 46.96 314.731 47.2547 315.819 47.844C316.93 48.4107 317.814 49.1247 318.471 49.986V47.266H322.381V66H318.471V63.212C317.814 64.096 316.918 64.8327 315.785 65.422C314.652 66.0113 313.36 66.306 311.909 66.306C310.3 66.306 308.826 65.898 307.489 65.082C306.152 64.2433 305.086 63.0873 304.293 61.614C303.522 60.118 303.137 58.4293 303.137 56.548ZM318.471 56.616C318.471 55.324 318.199 54.202 317.655 53.25C317.134 52.298 316.442 51.5727 315.581 51.074C314.72 50.5753 313.79 50.326 312.793 50.326C311.796 50.326 310.866 50.5753 310.005 51.074C309.144 51.55 308.441 52.264 307.897 53.216C307.376 54.1453 307.115 55.256 307.115 56.548C307.115 57.84 307.376 58.9733 307.897 59.948C308.441 60.9227 309.144 61.6707 310.005 62.192C310.889 62.6907 311.818 62.94 312.793 62.94C313.79 62.94 314.72 62.6907 315.581 62.192C316.442 61.6933 317.134 60.968 317.655 60.016C318.199 59.0413 318.471 57.908 318.471 56.616ZM336.924 46.96C338.397 46.96 339.712 47.266 340.868 47.878C342.047 48.49 342.965 49.3967 343.622 50.598C344.279 51.7993 344.608 53.25 344.608 54.95V66H340.766V55.528C340.766 53.8507 340.347 52.57 339.508 51.686C338.669 50.7793 337.525 50.326 336.074 50.326C334.623 50.326 333.467 50.7793 332.606 51.686C331.767 52.57 331.348 53.8507 331.348 55.528V66H327.472V47.266H331.348V49.408C331.983 48.6373 332.787 48.0367 333.762 47.606C334.759 47.1753 335.813 46.96 336.924 46.96ZM356.352 66.306C354.879 66.306 353.553 66.0453 352.374 65.524C351.218 64.98 350.3 64.2547 349.62 63.348C348.94 62.4187 348.577 61.3873 348.532 60.254H352.544C352.612 61.0473 352.986 61.716 353.666 62.26C354.369 62.7813 355.241 63.042 356.284 63.042C357.372 63.042 358.211 62.838 358.8 62.43C359.412 61.9993 359.718 61.4553 359.718 60.798C359.718 60.0953 359.378 59.574 358.698 59.234C358.041 58.894 356.987 58.52 355.536 58.112C354.131 57.7267 352.986 57.3527 352.102 56.99C351.218 56.6273 350.447 56.072 349.79 55.324C349.155 54.576 348.838 53.59 348.838 52.366C348.838 51.3687 349.133 50.462 349.722 49.646C350.311 48.8073 351.15 48.15 352.238 47.674C353.349 47.198 354.618 46.96 356.046 46.96C358.177 46.96 359.888 47.504 361.18 48.592C362.495 49.6573 363.197 51.1193 363.288 52.978H359.412C359.344 52.1393 359.004 51.4707 358.392 50.972C357.78 50.4733 356.953 50.224 355.91 50.224C354.89 50.224 354.108 50.4167 353.564 50.802C353.02 51.1873 352.748 51.6973 352.748 52.332C352.748 52.8307 352.929 53.25 353.292 53.59C353.655 53.93 354.097 54.202 354.618 54.406C355.139 54.5873 355.91 54.8253 356.93 55.12C358.29 55.4827 359.401 55.8567 360.262 56.242C361.146 56.6047 361.905 57.1487 362.54 57.874C363.175 58.5993 363.503 59.5627 363.526 60.764C363.526 61.8293 363.231 62.7813 362.642 63.62C362.053 64.4587 361.214 65.116 360.126 65.592C359.061 66.068 357.803 66.306 356.352 66.306ZM371.59 50.02C372.247 49.1587 373.143 48.4333 374.276 47.844C375.409 47.2547 376.69 46.96 378.118 46.96C379.75 46.96 381.235 47.368 382.572 48.184C383.932 48.9773 384.997 50.0993 385.768 51.55C386.539 53.0007 386.924 54.6667 386.924 56.548C386.924 58.4293 386.539 60.118 385.768 61.614C384.997 63.0873 383.932 64.2433 382.572 65.082C381.235 65.898 379.75 66.306 378.118 66.306C376.69 66.306 375.421 66.0227 374.31 65.456C373.199 64.8667 372.293 64.1413 371.59 63.28V74.908H367.714V47.266H371.59V50.02ZM382.98 56.548C382.98 55.256 382.708 54.1453 382.164 53.216C381.643 52.264 380.94 51.55 380.056 51.074C379.195 50.5753 378.265 50.326 377.268 50.326C376.293 50.326 375.364 50.5753 374.48 51.074C373.619 51.5727 372.916 52.298 372.372 53.25C371.851 54.202 371.59 55.324 371.59 56.616C371.59 57.908 371.851 59.0413 372.372 60.016C372.916 60.968 373.619 61.6933 374.48 62.192C375.364 62.6907 376.293 62.94 377.268 62.94C378.265 62.94 379.195 62.6907 380.056 62.192C380.94 61.6707 381.643 60.9227 382.164 59.948C382.708 58.9733 382.98 57.84 382.98 56.548ZM398.883 66.306C397.115 66.306 395.517 65.9093 394.089 65.116C392.661 64.3 391.539 63.1667 390.723 61.716C389.907 60.2427 389.499 58.5427 389.499 56.616C389.499 54.712 389.918 53.0233 390.757 51.55C391.596 50.0767 392.74 48.9433 394.191 48.15C395.642 47.3567 397.262 46.96 399.053 46.96C400.844 46.96 402.464 47.3567 403.915 48.15C405.366 48.9433 406.51 50.0767 407.349 51.55C408.188 53.0233 408.607 54.712 408.607 56.616C408.607 58.52 408.176 60.2087 407.315 61.682C406.454 63.1553 405.275 64.3 403.779 65.116C402.306 65.9093 400.674 66.306 398.883 66.306ZM398.883 62.94C399.88 62.94 400.81 62.702 401.671 62.226C402.555 61.75 403.269 61.036 403.813 60.084C404.357 59.132 404.629 57.976 404.629 56.616C404.629 55.256 404.368 54.1113 403.847 53.182C403.326 52.23 402.634 51.516 401.773 51.04C400.912 50.564 399.982 50.326 398.985 50.326C397.988 50.326 397.058 50.564 396.197 51.04C395.358 51.516 394.69 52.23 394.191 53.182C393.692 54.1113 393.443 55.256 393.443 56.616C393.443 58.6333 393.953 60.1973 394.973 61.308C396.016 62.396 397.319 62.94 398.883 62.94ZM416.315 49.986C416.881 49.034 417.629 48.2973 418.559 47.776C419.511 47.232 420.633 46.96 421.925 46.96V50.972H420.939C419.42 50.972 418.264 51.3573 417.471 52.128C416.7 52.8987 416.315 54.236 416.315 56.14V66H412.439V47.266H416.315V49.986ZM430.01 50.428V60.798C430.01 61.5007 430.168 62.0107 430.486 62.328C430.826 62.6227 431.392 62.77 432.186 62.77H434.566V66H431.506C429.76 66 428.423 65.592 427.494 64.776C426.564 63.96 426.1 62.634 426.1 60.798V50.428H423.89V47.266H426.1V42.608H430.01V47.266H434.566V50.428H430.01Z" fill="#414141"/>
</svg>
